<svg width="334" height="154" viewBox="0 0 334 154" fill="none" xmlns="http://www.w3.org/2000/svg">
<path d="M193.876 42.6454C205.289 22.0255 226.641 7.43422 251.951 5.71314C291.554 3.02004 325.843 32.8619 328.542 72.372C331.242 111.882 301.329 146.09 261.726 148.783C233.449 150.706 207.873 136.037 194.578 113.104" stroke="black" stroke-miterlimit="10"/>
<path d="M5.224 80.312C5.224 80.888 5.328 81.376 5.536 81.776C5.744 82.176 6.016 82.504 6.352 82.76C6.704 83 7.112 83.184 7.576 83.312C8.04 83.424 8.52 83.48 9.016 83.48C9.352 83.48 9.712 83.456 10.096 83.408C10.48 83.344 10.84 83.232 11.176 83.072C11.512 82.912 11.792 82.696 12.016 82.424C12.24 82.136 12.352 81.776 12.352 81.344C12.352 80.88 12.2 80.504 11.896 80.216C11.608 79.928 11.224 79.688 10.744 79.496C10.264 79.304 9.72 79.136 9.112 78.992C8.504 78.848 7.888 78.688 7.264 78.512C6.624 78.352 6 78.16 5.392 77.936C4.784 77.696 4.24 77.392 3.76 77.024C3.28 76.656 2.888 76.2 2.584 75.656C2.296 75.096 2.152 74.424 2.152 73.64C2.152 72.76 2.336 72 2.704 71.36C3.088 70.704 3.584 70.16 4.192 69.728C4.8 69.296 5.488 68.976 6.256 68.768C7.024 68.56 7.792 68.456 8.56 68.456C9.456 68.456 10.312 68.56 11.128 68.768C11.96 68.96 12.696 69.28 13.336 69.728C13.976 70.176 14.48 70.752 14.848 71.456C15.232 72.144 15.424 72.984 15.424 73.976H11.776C11.744 73.464 11.632 73.04 11.44 72.704C11.264 72.368 11.024 72.104 10.72 71.912C10.416 71.72 10.064 71.584 9.664 71.504C9.28 71.424 8.856 71.384 8.392 71.384C8.088 71.384 7.784 71.416 7.48 71.48C7.176 71.544 6.896 71.656 6.64 71.816C6.4 71.976 6.2 72.176 6.04 72.416C5.88 72.656 5.8 72.96 5.8 73.328C5.8 73.664 5.864 73.936 5.992 74.144C6.12 74.352 6.368 74.544 6.736 74.72C7.12 74.896 7.64 75.072 8.296 75.248C8.968 75.424 9.84 75.648 10.912 75.92C11.232 75.984 11.672 76.104 12.232 76.28C12.808 76.44 13.376 76.704 13.936 77.072C14.496 77.44 14.976 77.936 15.376 78.56C15.792 79.168 16 79.952 16 80.912C16 81.696 15.848 82.424 15.544 83.096C15.24 83.768 14.784 84.352 14.176 84.848C13.584 85.328 12.84 85.704 11.944 85.976C11.064 86.248 10.04 86.384 8.872 86.384C7.928 86.384 7.008 86.264 6.112 86.024C5.232 85.8 4.448 85.44 3.76 84.944C3.088 84.448 2.552 83.816 2.152 83.048C1.752 82.28 1.56 81.368 1.576 80.312H5.224ZM19.5379 77.984H26.7619V80.912H19.5379V77.984ZM31.3754 68.864H35.1434V75.44H42.0794V68.864H45.8474V86H42.0794V78.608H35.1434V86H31.3754V68.864ZM53.8684 77.504C53.8684 78.224 53.9484 78.928 54.1084 79.616C54.2844 80.288 54.5564 80.896 54.9244 81.44C55.2924 81.984 55.7724 82.424 56.3644 82.76C56.9564 83.08 57.6764 83.24 58.5244 83.24C59.3724 83.24 60.0924 83.08 60.6844 82.76C61.2764 82.424 61.7564 81.984 62.1244 81.44C62.4924 80.896 62.7564 80.288 62.9164 79.616C63.0924 78.928 63.1804 78.224 63.1804 77.504C63.1804 76.752 63.0924 76.024 62.9164 75.32C62.7564 74.616 62.4924 73.992 62.1244 73.448C61.7564 72.888 61.2764 72.448 60.6844 72.128C60.0924 71.792 59.3724 71.624 58.5244 71.624C57.6764 71.624 56.9564 71.792 56.3644 72.128C55.7724 72.448 55.2924 72.888 54.9244 73.448C54.5564 73.992 54.2844 74.616 54.1084 75.32C53.9484 76.024 53.8684 76.752 53.8684 77.504ZM50.1004 77.504C50.1004 76.224 50.2924 75.04 50.6764 73.952C51.0604 72.848 51.6124 71.888 52.3324 71.072C53.0524 70.256 53.9324 69.616 54.9724 69.152C56.0284 68.688 57.2124 68.456 58.5244 68.456C59.8524 68.456 61.0364 68.688 62.0764 69.152C63.1164 69.616 63.9964 70.256 64.7164 71.072C65.4364 71.888 65.9884 72.848 66.3724 73.952C66.7564 75.04 66.9484 76.224 66.9484 77.504C66.9484 78.752 66.7564 79.92 66.3724 81.008C65.9884 82.08 65.4364 83.016 64.7164 83.816C63.9964 84.616 63.1164 85.248 62.0764 85.712C61.0364 86.16 59.8524 86.384 58.5244 86.384C57.2124 86.384 56.0284 86.16 54.9724 85.712C53.9324 85.248 53.0524 84.616 52.3324 83.816C51.6124 83.016 51.0604 82.08 50.6764 81.008C50.2924 79.92 50.1004 78.752 50.1004 77.504ZM85.7481 79.52C85.7481 81.84 85.1001 83.568 83.8041 84.704C82.5081 85.824 80.7161 86.384 78.4281 86.384C76.1081 86.384 74.3081 85.824 73.0281 84.704C71.7641 83.584 71.1321 81.856 71.1321 79.52V68.864H74.9001V79.52C74.9001 79.984 74.9401 80.44 75.0201 80.888C75.1001 81.336 75.2681 81.736 75.5241 82.088C75.7801 82.424 76.1321 82.704 76.5801 82.928C77.0441 83.136 77.6601 83.24 78.4281 83.24C79.7721 83.24 80.7001 82.944 81.2121 82.352C81.7241 81.744 81.9801 80.8 81.9801 79.52V68.864H85.7481V79.52ZM93.2412 80.312C93.2412 80.888 93.3452 81.376 93.5532 81.776C93.7612 82.176 94.0332 82.504 94.3692 82.76C94.7212 83 95.1292 83.184 95.5932 83.312C96.0572 83.424 96.5372 83.48 97.0332 83.48C97.3692 83.48 97.7292 83.456 98.1132 83.408C98.4972 83.344 98.8572 83.232 99.1932 83.072C99.5292 82.912 99.8092 82.696 100.033 82.424C100.257 82.136 100.369 81.776 100.369 81.344C100.369 80.88 100.217 80.504 99.9132 80.216C99.6252 79.928 99.2412 79.688 98.7612 79.496C98.2812 79.304 97.7372 79.136 97.1292 78.992C96.5212 78.848 95.9052 78.688 95.2812 78.512C94.6412 78.352 94.0172 78.16 93.4092 77.936C92.8012 77.696 92.2572 77.392 91.7772 77.024C91.2972 76.656 90.9052 76.2 90.6012 75.656C90.3132 75.096 90.1692 74.424 90.1692 73.64C90.1692 72.76 90.3532 72 90.7212 71.36C91.1052 70.704 91.6012 70.16 92.2092 69.728C92.8172 69.296 93.5052 68.976 94.2732 68.768C95.0412 68.56 95.8092 68.456 96.5772 68.456C97.4732 68.456 98.3292 68.56 99.1452 68.768C99.9772 68.96 100.713 69.28 101.353 69.728C101.993 70.176 102.497 70.752 102.865 71.456C103.249 72.144 103.441 72.984 103.441 73.976H99.7932C99.7612 73.464 99.6492 73.04 99.4572 72.704C99.2812 72.368 99.0412 72.104 98.7372 71.912C98.4332 71.72 98.0812 71.584 97.6812 71.504C97.2972 71.424 96.8732 71.384 96.4092 71.384C96.1052 71.384 95.8012 71.416 95.4972 71.48C95.1932 71.544 94.9132 71.656 94.6572 71.816C94.4172 71.976 94.2172 72.176 94.0572 72.416C93.8972 72.656 93.8172 72.96 93.8172 73.328C93.8172 73.664 93.8812 73.936 94.0092 74.144C94.1372 74.352 94.3852 74.544 94.7532 74.72C95.1372 74.896 95.6572 75.072 96.3132 75.248C96.9852 75.424 97.8572 75.648 98.9292 75.92C99.2492 75.984 99.6892 76.104 100.249 76.28C100.825 76.44 101.393 76.704 101.953 77.072C102.513 77.44 102.993 77.936 103.393 78.56C103.809 79.168 104.017 79.952 104.017 80.912C104.017 81.696 103.865 82.424 103.561 83.096C103.257 83.768 102.801 84.352 102.193 84.848C101.601 85.328 100.857 85.704 99.9612 85.976C99.0812 86.248 98.0572 86.384 96.8892 86.384C95.9452 86.384 95.0252 86.264 94.1292 86.024C93.2492 85.8 92.4652 85.44 91.7772 84.944C91.1052 84.448 90.5692 83.816 90.1692 83.048C89.7692 82.28 89.5772 81.368 89.5932 80.312H93.2412ZM107.939 68.864H120.755V72.032H111.707V75.704H120.011V78.632H111.707V82.832H120.947V86H107.939V68.864ZM134.254 69.224C137.206 69.632 142.006 69.512 144.574 69.2V72.296C141.646 72.584 137.278 72.584 134.278 72.296L134.254 69.224ZM136.174 79.472C135.982 80.288 135.886 80.864 135.886 81.488C135.886 82.568 136.822 83.216 139.27 83.216C141.406 83.216 143.182 83.024 145.27 82.568L145.342 85.808C143.782 86.12 141.838 86.288 139.126 86.288C134.998 86.288 133.006 84.8 133.006 82.352C133.006 81.392 133.15 80.456 133.438 79.232L136.174 79.472ZM130.558 67.616C130.39 68.12 130.078 69.344 129.982 69.776C129.646 71.36 128.806 76.16 128.806 78.56C128.806 79.04 128.83 79.64 128.902 80.12C129.262 79.304 129.646 78.488 130.006 77.672L131.494 78.848C130.798 80.864 130.006 83.456 129.766 84.728C129.694 85.088 129.622 85.616 129.622 85.856C129.646 86.12 129.646 86.528 129.67 86.864L126.91 87.032C126.43 85.4 125.974 82.472 125.974 79.208C125.974 75.584 126.694 71.552 126.958 69.68C127.054 69.032 127.174 68.12 127.198 67.352L130.558 67.616ZM150.478 72.848C151.366 72.704 152.566 72.392 153.454 72.128C155.278 71.552 160.174 69.848 163.702 69.848C168.022 69.848 171.454 72.344 171.454 76.784C171.454 82.208 166.27 85.688 157.822 86.12L156.406 82.928C162.91 82.784 168.022 80.912 168.022 76.712C168.022 74.456 166.462 72.752 163.582 72.752C160.03 72.752 154.366 75.128 151.846 76.232L150.478 72.848ZM181.102 68.864C180.934 69.704 180.814 71.12 180.814 71.792C180.814 73.352 180.814 75.128 180.958 76.88C181.294 80.336 182.014 82.712 183.526 82.712C184.678 82.712 185.614 79.88 186.07 77.984L188.494 80.888C186.886 85.088 185.398 86.528 183.478 86.528C180.814 86.528 178.534 84.176 177.862 77.744C177.622 75.536 177.598 72.704 177.598 71.24C177.598 70.592 177.574 69.56 177.406 68.816L181.102 68.864ZM193.102 69.392C195.382 72.152 197.23 78.152 197.494 81.824L194.326 83.072C193.966 79.184 192.67 73.376 190.054 70.4L193.102 69.392ZM201.543 69.512C202.479 69.488 203.439 69.44 203.895 69.392C205.911 69.2 209.847 68.864 214.263 68.48C216.735 68.264 219.351 68.12 221.055 68.048L221.079 71.144C219.783 71.144 217.719 71.168 216.423 71.456C213.543 72.224 211.359 75.344 211.359 78.176C211.359 82.136 215.055 83.552 219.111 83.768L218.007 87.056C212.967 86.744 208.215 84.032 208.215 78.824C208.215 75.368 210.159 72.656 211.791 71.432C209.535 71.672 204.639 72.176 201.855 72.8L201.543 69.512Z" fill="black"/>
<path d="M5.02 40.1H9.86L7.48 33.44H7.44L5.02 40.1ZM6.44 31.72H8.54L14.12 46H12.02L10.46 41.7H4.42L2.82 46H0.88L6.44 31.72ZM17.7087 31.72H19.4087V37.06H19.4487C19.7287 36.4867 20.1687 36.0733 20.7687 35.82C21.3687 35.5533 22.0287 35.42 22.7487 35.42C23.5487 35.42 24.2421 35.5667 24.8287 35.86C25.4287 36.1533 25.9221 36.5533 26.3087 37.06C26.7087 37.5533 27.0088 38.1267 27.2088 38.78C27.4088 39.4333 27.5088 40.1267 27.5088 40.86C27.5088 41.5933 27.4088 42.2867 27.2088 42.94C27.0221 43.5933 26.7287 44.1667 26.3288 44.66C25.9421 45.14 25.4487 45.52 24.8488 45.8C24.2621 46.08 23.5754 46.22 22.7887 46.22C22.5354 46.22 22.2488 46.1933 21.9288 46.14C21.6221 46.0867 21.3154 46 21.0087 45.88C20.7021 45.76 20.4087 45.6 20.1287 45.4C19.8621 45.1867 19.6354 44.9267 19.4487 44.62H19.4087V46H17.7087V31.72ZM25.7087 40.74C25.7087 40.26 25.6421 39.7933 25.5087 39.34C25.3887 38.8733 25.1954 38.46 24.9288 38.1C24.6754 37.74 24.3421 37.4533 23.9288 37.24C23.5288 37.0267 23.0554 36.92 22.5087 36.92C21.9354 36.92 21.4487 37.0333 21.0487 37.26C20.6487 37.4867 20.3221 37.7867 20.0687 38.16C19.8154 38.52 19.6287 38.9333 19.5087 39.4C19.4021 39.8667 19.3487 40.34 19.3487 40.82C19.3487 41.3267 19.4087 41.82 19.5287 42.3C19.6487 42.7667 19.8354 43.18 20.0887 43.54C20.3554 43.9 20.6954 44.1933 21.1087 44.42C21.5221 44.6333 22.0221 44.74 22.6087 44.74C23.1954 44.74 23.6821 44.6267 24.0688 44.4C24.4688 44.1733 24.7888 43.8733 25.0288 43.5C25.2688 43.1267 25.4421 42.7 25.5488 42.22C25.6554 41.74 25.7087 41.2467 25.7087 40.74ZM33.1442 40.84C33.1442 41.4667 33.2242 42.0267 33.3842 42.52C33.5576 43 33.7909 43.4067 34.0842 43.74C34.3776 44.06 34.7176 44.3067 35.1042 44.48C35.5042 44.6533 35.9242 44.74 36.3642 44.74C36.8042 44.74 37.2176 44.6533 37.6042 44.48C38.0042 44.3067 38.3509 44.06 38.6442 43.74C38.9376 43.4067 39.1642 43 39.3242 42.52C39.4976 42.0267 39.5842 41.4667 39.5842 40.84C39.5842 40.2133 39.4976 39.66 39.3242 39.18C39.1642 38.6867 38.9376 38.2733 38.6442 37.94C38.3509 37.6067 38.0042 37.3533 37.6042 37.18C37.2176 37.0067 36.8042 36.92 36.3642 36.92C35.9242 36.92 35.5042 37.0067 35.1042 37.18C34.7176 37.3533 34.3776 37.6067 34.0842 37.94C33.7909 38.2733 33.5576 38.6867 33.3842 39.18C33.2242 39.66 33.1442 40.2133 33.1442 40.84ZM31.3442 40.84C31.3442 40.08 31.4509 39.3733 31.6642 38.72C31.8776 38.0533 32.1976 37.48 32.6242 37C33.0509 36.5067 33.5776 36.12 34.2042 35.84C34.8309 35.56 35.5509 35.42 36.3642 35.42C37.1909 35.42 37.9109 35.56 38.5242 35.84C39.1509 36.12 39.6776 36.5067 40.1042 37C40.5309 37.48 40.8509 38.0533 41.0642 38.72C41.2776 39.3733 41.3842 40.08 41.3842 40.84C41.3842 41.6 41.2776 42.3067 41.0642 42.96C40.8509 43.6133 40.5309 44.1867 40.1042 44.68C39.6776 45.16 39.1509 45.54 38.5242 45.82C37.9109 46.0867 37.1909 46.22 36.3642 46.22C35.5509 46.22 34.8309 46.0867 34.2042 45.82C33.5776 45.54 33.0509 45.16 32.6242 44.68C32.1976 44.1867 31.8776 43.6133 31.6642 42.96C31.4509 42.3067 31.3442 41.6 31.3442 40.84ZM54.3486 46H52.7486V44.36H52.7086C52.3486 45 51.8886 45.4733 51.3286 45.78C50.7686 46.0733 50.1086 46.22 49.3486 46.22C48.6686 46.22 48.1019 46.1333 47.6486 45.96C47.1953 45.7733 46.8286 45.5133 46.5486 45.18C46.2686 44.8467 46.0686 44.4533 45.9486 44C45.8419 43.5333 45.7886 43.02 45.7886 42.46V35.66H47.4886V42.66C47.4886 43.3 47.6753 43.8067 48.0486 44.18C48.4219 44.5533 48.9353 44.74 49.5886 44.74C50.1086 44.74 50.5553 44.66 50.9286 44.5C51.3153 44.34 51.6353 44.1133 51.8886 43.82C52.1419 43.5267 52.3286 43.1867 52.4486 42.8C52.5819 42.4 52.6486 41.9667 52.6486 41.5V35.66H54.3486V46ZM61.6619 35.66H63.7219V37.16H61.6619V43.58C61.6619 43.78 61.6752 43.94 61.7019 44.06C61.7419 44.18 61.8085 44.2733 61.9019 44.34C61.9952 44.4067 62.1219 44.4533 62.2819 44.48C62.4552 44.4933 62.6752 44.5 62.9419 44.5H63.7219V46H62.4219C61.9819 46 61.6019 45.9733 61.2819 45.92C60.9752 45.8533 60.7219 45.74 60.5219 45.58C60.3352 45.42 60.1952 45.1933 60.1019 44.9C60.0085 44.6067 59.9619 44.22 59.9619 43.74V37.16H58.2019V35.66H59.9619V32.56H61.6619V35.66Z" fill="black"/>
</svg>
