<svg width="239" height="47" viewBox="0 0 239 47" fill="none" xmlns="http://www.w3.org/2000/svg">
<path d="M12.072 28.08H30.056L21.224 4.656L12.072 28.08ZM18.984 0.303997H23.848L41.768 46H37.096L31.528 31.792H10.728L5.224 46H0.616L18.984 0.303997ZM55.72 0.303997H60.392L70.76 40.304H70.888L82.024 0.303997H87.464L98.664 40.304H98.792L109.224 0.303997H113.576L100.968 46H96.36L84.776 5.104H84.648L73.128 46H68.392L55.72 0.303997ZM138.45 28.08H156.434L147.602 4.656L138.45 28.08ZM145.362 0.303997H150.226L168.146 46H163.474L157.906 31.792H137.106L131.602 46H126.994L145.362 0.303997ZM205.45 0.303997H209.802V33.264C209.802 35.6107 209.567 37.6373 209.098 39.344C208.629 41.0507 207.861 42.4587 206.794 43.568C205.77 44.6773 204.405 45.5093 202.698 46.064C201.034 46.6187 198.965 46.896 196.49 46.896C193.887 46.896 191.754 46.4693 190.09 45.616C188.426 44.72 187.125 43.568 186.186 42.16C185.247 40.7093 184.607 39.0453 184.266 37.168C183.925 35.2907 183.754 33.3493 183.754 31.344H188.106C188.149 32.3253 188.213 33.4987 188.298 34.864C188.383 36.2293 188.682 37.5307 189.194 38.768C189.706 40.0053 190.538 41.072 191.69 41.968C192.885 42.8213 194.613 43.248 196.874 43.248C198.581 43.248 199.989 43.0347 201.098 42.608C202.207 42.1387 203.082 41.4347 203.722 40.496C204.362 39.5147 204.81 38.2773 205.066 36.784C205.322 35.2907 205.45 33.4987 205.45 31.408V0.303997ZM234.058 0.303997H238.41V46H234.058V0.303997Z" fill="black"/>
</svg>
