<svg width="239" height="144" viewBox="0 0 239 144" fill="none" xmlns="http://www.w3.org/2000/svg">
<path d="M13.464 67.752L15.096 65.784C17.52 66.888 20.856 68.688 22.488 69.984L20.76 72.24C19.224 70.896 15.96 68.952 13.464 67.752ZM13.944 60.624H16.8C16.608 67.056 15.888 70.536 9.216 72.336C8.976 71.64 8.232 70.536 7.68 69.984C13.488 68.592 13.8 66.072 13.944 60.624ZM9.84 61.968L12.312 62.496C11.952 64.104 11.184 65.976 10.296 67.176L7.824 66.24C8.664 65.256 9.432 63.528 9.84 61.968ZM9.504 72.624L12.096 73.152C11.712 74.904 10.92 76.92 9.984 78.216L7.464 77.088C8.328 76.056 9.096 74.232 9.504 72.624ZM19.656 61.968L22.56 62.88C21.6 64.416 20.52 65.976 19.632 67.032L17.4 66.168C18.192 65.04 19.152 63.24 19.656 61.968ZM19.848 72.456L22.848 73.392C21.888 75.024 20.808 76.776 19.944 77.904L17.592 77.04C18.384 75.792 19.344 73.872 19.848 72.456ZM13.872 70.776H16.704C16.488 77.568 15.744 81.264 8.352 83.136C8.064 82.392 7.344 81.24 6.768 80.64C13.32 79.2 13.68 76.536 13.872 70.776ZM16.416 73.92C17.304 77.472 19.368 79.848 23.568 80.592C22.944 81.192 22.2 82.32 21.84 83.088C17.112 81.912 15.048 78.984 13.944 74.28L16.416 73.92ZM1.824 63.048L3.6 61.08C5.016 61.776 7.008 62.928 7.992 63.72L6.144 65.928C5.232 65.088 3.264 63.84 1.824 63.048ZM0.576 69.552L2.376 67.584C3.816 68.256 5.832 69.336 6.84 70.128L4.944 72.312C4.008 71.496 2.04 70.32 0.576 69.552ZM1.128 80.856C2.256 79.056 3.888 76.104 5.16 73.368L7.44 75.24C6.36 77.736 5.016 80.424 3.744 82.728L1.128 80.856ZM39.936 79.824H47.496V82.296H39.936V79.824ZM40.968 62.904H47.064V65.352H40.968V62.904ZM38.76 74.208H48.672V83.016H45.936V76.632H41.4V83.088H38.76V74.208ZM46.056 62.904H46.56L47.064 62.808L48.888 63.576C47.136 69.6 43.08 73.44 38.208 75.504C37.872 74.832 37.152 73.848 36.576 73.32C40.92 71.736 44.712 68.064 46.056 63.36V62.904ZM41.064 60.6L43.8 61.272C42.72 64.512 40.944 67.632 39 69.6C38.52 69.096 37.416 68.16 36.768 67.752C38.64 66.072 40.224 63.384 41.064 60.6ZM41.136 64.248C42.504 67.488 45.624 71.208 50.52 72.744C49.944 73.296 49.128 74.424 48.744 75.168C43.8 73.248 40.656 69.048 39.192 65.496L41.136 64.248ZM28.56 71.208H30.912V79.944H28.56V71.208ZM31.248 63.984V67.032H34.416V63.984H31.248ZM28.752 61.512H37.056V69.504H28.752V61.512ZM32.112 68.496H34.656V79.224H32.112V68.496ZM27.504 79.488C30.048 79.032 33.888 78.192 37.488 77.376L37.752 79.92C34.368 80.76 30.72 81.624 27.984 82.248L27.504 79.488ZM33.12 72.312H37.296V74.832H33.12V72.312ZM62.304 73.08H76.68V75.648H62.304V73.08ZM70.008 64.728H72.576V68.208C72.576 68.784 72.648 68.856 73.08 68.856C73.272 68.856 74.04 68.856 74.256 68.856C74.664 68.856 74.76 68.616 74.808 67.032C75.312 67.416 76.368 67.8 77.064 67.968C76.8 70.464 76.152 71.136 74.568 71.136C74.136 71.136 73.056 71.136 72.648 71.136C70.44 71.136 70.008 70.392 70.008 68.232V64.728ZM62.52 61.728H76.608V66.528H74.064V64.176H64.968V66.648H62.52V61.728ZM67.992 70.704H70.824V83.136H67.992V70.704ZM66.144 64.752H68.76C68.544 68.424 67.776 70.56 63.408 71.688C63.168 71.064 62.52 70.104 62.016 69.648C65.544 68.856 66 67.464 66.144 64.752ZM71.544 74.328C72.744 76.56 75.072 78.816 77.376 79.992C76.776 80.52 75.888 81.528 75.432 82.224C73.032 80.712 70.728 77.952 69.36 75.144L71.544 74.328ZM67.368 74.088L69.6 74.832C68.136 78.048 65.592 80.904 62.64 82.416C62.232 81.768 61.416 80.76 60.816 80.232C63.576 79.056 66.12 76.656 67.368 74.088ZM54.24 72.696C56.16 72.264 59.016 71.496 61.728 70.728L62.112 73.32C59.64 74.088 57 74.856 54.888 75.456L54.24 72.696ZM54.624 65.184H61.968V67.824H54.624V65.184ZM57.168 60.648H59.808V80.112C59.808 81.456 59.568 82.2 58.824 82.632C58.104 83.088 57.072 83.184 55.512 83.184C55.44 82.464 55.104 81.288 54.768 80.496C55.632 80.544 56.472 80.544 56.76 80.52C57.048 80.52 57.168 80.448 57.168 80.112V60.648ZM91.128 76.608H93.984V83.16H91.128V76.608ZM91.104 60.624H93.96V67.536H91.104V60.624ZM90.456 67.968L93.072 69.192C91.632 70.488 89.976 71.784 88.656 72.624L86.64 71.544C87.912 70.608 89.544 69.096 90.456 67.968ZM95.664 69.504L98.232 70.896C95.256 73.128 91.368 75.552 88.32 77.088L86.424 75.768C89.496 74.184 93.336 71.568 95.664 69.504ZM84.528 72L86.4 70.392C88.128 71.232 90.432 72.576 91.608 73.584L89.592 75.384C88.536 74.376 86.304 72.936 84.528 72ZM95.784 73.896L97.68 72.432C99.576 73.632 102.12 75.432 103.392 76.68L101.376 78.336C100.2 77.112 97.728 75.168 95.784 73.896ZM95.352 79.08L97.56 77.64C99.432 78.624 102.072 80.184 103.464 81.288L101.088 82.92C99.888 81.816 97.32 80.184 95.352 79.08ZM82.104 75.192C86.592 75.216 93.912 75.144 100.776 75.048L100.632 77.232C94.032 77.472 86.952 77.688 82.248 77.784L82.104 75.192ZM87 77.712L89.736 78.744C88.176 80.376 85.728 82.032 83.688 82.992C83.184 82.44 82.128 81.456 81.48 80.976C83.544 80.232 85.728 78.984 87 77.712ZM82.368 62.496H102.84V64.968H82.368V62.496ZM82.176 66.432H103.128V71.424H100.296V68.856H84.888V71.424H82.176V66.432Z" fill="black"/>
<path d="M3.46 39.4H6.62C6.83333 39.4 7.1 39.3867 7.42 39.36C7.74 39.32 8.08 39.24 8.44 39.12C8.8 38.9867 9.15333 38.8 9.5 38.56C9.86 38.32 10.18 37.9933 10.46 37.58C10.74 37.1667 10.9667 36.6533 11.14 36.04C11.3267 35.4133 11.42 34.66 11.42 33.78C11.42 32.9267 11.3333 32.1667 11.16 31.5C11 30.82 10.7267 30.2467 10.34 29.78C9.96667 29.3 9.48 28.94 8.88 28.7C8.28 28.4467 7.54 28.32 6.66 28.32H3.46V39.4ZM1.56 26.72H6.46C8.66 26.72 10.3533 27.28 11.54 28.4C12.7267 29.52 13.32 31.2267 13.32 33.52C13.32 34.72 13.1867 35.7867 12.92 36.72C12.6533 37.64 12.24 38.42 11.68 39.06C11.12 39.6867 10.4067 40.1667 9.54 40.5C8.67333 40.8333 7.64667 41 6.46 41H1.56V26.72ZM19.562 28.8H17.862V26.72H19.562V28.8ZM17.862 30.66H19.562V41H17.862V30.66ZM25.6356 37.74C25.649 38.1133 25.7356 38.4333 25.8956 38.7C26.0556 38.9533 26.2623 39.16 26.5156 39.32C26.7823 39.4667 27.0756 39.5733 27.3956 39.64C27.729 39.7067 28.069 39.74 28.4156 39.74C28.6823 39.74 28.9623 39.72 29.2556 39.68C29.549 39.64 29.8156 39.5667 30.0556 39.46C30.309 39.3533 30.5156 39.2 30.6756 39C30.8356 38.7867 30.9156 38.52 30.9156 38.2C30.9156 37.76 30.749 37.4267 30.4156 37.2C30.0823 36.9733 29.6623 36.7933 29.1556 36.66C28.6623 36.5133 28.1223 36.3867 27.5356 36.28C26.949 36.16 26.4023 36 25.8956 35.8C25.4023 35.5867 24.989 35.2933 24.6556 34.92C24.3223 34.5467 24.1556 34.0267 24.1556 33.36C24.1556 32.84 24.269 32.3933 24.4956 32.02C24.7356 31.6467 25.0356 31.3467 25.3956 31.12C25.769 30.88 26.1823 30.7067 26.6356 30.6C27.1023 30.48 27.5623 30.42 28.0156 30.42C28.6023 30.42 29.1423 30.4733 29.6356 30.58C30.129 30.6733 30.5623 30.8467 30.9356 31.1C31.3223 31.34 31.629 31.6733 31.8556 32.1C32.0823 32.5133 32.2156 33.0333 32.2556 33.66H30.5556C30.529 33.3267 30.4423 33.0533 30.2956 32.84C30.149 32.6133 29.9623 32.4333 29.7356 32.3C29.509 32.1667 29.2556 32.0733 28.9756 32.02C28.709 31.9533 28.4356 31.92 28.1556 31.92C27.9023 31.92 27.6423 31.94 27.3756 31.98C27.1223 32.02 26.889 32.0933 26.6756 32.2C26.4623 32.2933 26.289 32.4267 26.1556 32.6C26.0223 32.76 25.9556 32.9733 25.9556 33.24C25.9556 33.5333 26.0556 33.78 26.2556 33.98C26.469 34.1667 26.7356 34.3267 27.0556 34.46C27.3756 34.58 27.7356 34.6867 28.1356 34.78C28.5356 34.86 28.9356 34.9467 29.3356 35.04C29.7623 35.1333 30.1756 35.2467 30.5756 35.38C30.989 35.5133 31.349 35.6933 31.6556 35.92C31.9756 36.1333 32.229 36.4067 32.4156 36.74C32.6156 37.0733 32.7156 37.4867 32.7156 37.98C32.7156 38.6067 32.5823 39.1267 32.3156 39.54C32.0623 39.9533 31.7223 40.2867 31.2956 40.54C30.8823 40.7933 30.409 40.9667 29.8756 41.06C29.3556 41.1667 28.8356 41.22 28.3156 41.22C27.7423 41.22 27.1956 41.16 26.6756 41.04C26.1556 40.92 25.6956 40.7267 25.2956 40.46C24.8956 40.18 24.5756 39.82 24.3356 39.38C24.0956 38.9267 23.9623 38.38 23.9356 37.74H25.6356ZM44.0156 33.98C43.8823 33.3267 43.6023 32.82 43.1756 32.46C42.749 32.1 42.1756 31.92 41.4556 31.92C40.8423 31.92 40.329 32.0333 39.9156 32.26C39.5023 32.4867 39.169 32.7867 38.9156 33.16C38.6756 33.5333 38.5023 33.9667 38.3956 34.46C38.289 34.94 38.2356 35.44 38.2356 35.96C38.2356 36.44 38.289 36.9067 38.3956 37.36C38.5156 37.8133 38.6956 38.22 38.9356 38.58C39.1756 38.9267 39.489 39.2067 39.8756 39.42C40.2623 39.6333 40.7223 39.74 41.2556 39.74C42.0956 39.74 42.749 39.52 43.2156 39.08C43.6956 38.64 43.989 38.02 44.0956 37.22H45.8356C45.649 38.5 45.169 39.4867 44.3956 40.18C43.6356 40.8733 42.5956 41.22 41.2756 41.22C40.489 41.22 39.789 41.0933 39.1756 40.84C38.5756 40.5867 38.069 40.2267 37.6556 39.76C37.2556 39.2933 36.949 38.74 36.7356 38.1C36.5356 37.4467 36.4356 36.7333 36.4356 35.96C36.4356 35.1867 36.5356 34.4667 36.7356 33.8C36.9356 33.12 37.2356 32.5333 37.6356 32.04C38.049 31.5333 38.5623 31.14 39.1756 30.86C39.789 30.5667 40.5023 30.42 41.3156 30.42C41.9023 30.42 42.449 30.4933 42.9556 30.64C43.4756 30.7733 43.929 30.9867 44.3156 31.28C44.7156 31.5733 45.0423 31.9467 45.2956 32.4C45.549 32.84 45.709 33.3667 45.7756 33.98H44.0156ZM51.3778 35.84C51.3778 36.4667 51.4578 37.0267 51.6178 37.52C51.7911 38 52.0245 38.4067 52.3178 38.74C52.6111 39.06 52.9511 39.3067 53.3378 39.48C53.7378 39.6533 54.1578 39.74 54.5978 39.74C55.0378 39.74 55.4511 39.6533 55.8378 39.48C56.2378 39.3067 56.5845 39.06 56.8778 38.74C57.1711 38.4067 57.3978 38 57.5578 37.52C57.7311 37.0267 57.8178 36.4667 57.8178 35.84C57.8178 35.2133 57.7311 34.66 57.5578 34.18C57.3978 33.6867 57.1711 33.2733 56.8778 32.94C56.5845 32.6067 56.2378 32.3533 55.8378 32.18C55.4511 32.0067 55.0378 31.92 54.5978 31.92C54.1578 31.92 53.7378 32.0067 53.3378 32.18C52.9511 32.3533 52.6111 32.6067 52.3178 32.94C52.0245 33.2733 51.7911 33.6867 51.6178 34.18C51.4578 34.66 51.3778 35.2133 51.3778 35.84ZM49.5778 35.84C49.5778 35.08 49.6845 34.3733 49.8978 33.72C50.1111 33.0533 50.4311 32.48 50.8578 32C51.2845 31.5067 51.8111 31.12 52.4378 30.84C53.0645 30.56 53.7845 30.42 54.5978 30.42C55.4245 30.42 56.1445 30.56 56.7578 30.84C57.3845 31.12 57.9111 31.5067 58.3378 32C58.7645 32.48 59.0845 33.0533 59.2978 33.72C59.5111 34.3733 59.6178 35.08 59.6178 35.84C59.6178 36.6 59.5111 37.3067 59.2978 37.96C59.0845 38.6133 58.7645 39.1867 58.3378 39.68C57.9111 40.16 57.3845 40.54 56.7578 40.82C56.1445 41.0867 55.4245 41.22 54.5978 41.22C53.7845 41.22 53.0645 41.0867 52.4378 40.82C51.8111 40.54 51.2845 40.16 50.8578 39.68C50.4311 39.1867 50.1111 38.6133 49.8978 37.96C49.6845 37.3067 49.5778 36.6 49.5778 35.84ZM68.6822 41H66.8622L63.0222 30.66H64.9222L67.8222 39.28H67.8622L70.6822 30.66H72.4622L68.6822 41ZM83.6022 34.84C83.5755 34.44 83.4822 34.06 83.3222 33.7C83.1755 33.34 82.9689 33.0333 82.7022 32.78C82.4489 32.5133 82.1422 32.3067 81.7822 32.16C81.4355 32 81.0489 31.92 80.6222 31.92C80.1822 31.92 79.7822 32 79.4222 32.16C79.0755 32.3067 78.7755 32.5133 78.5222 32.78C78.2689 33.0467 78.0689 33.36 77.9222 33.72C77.7755 34.0667 77.6889 34.44 77.6622 34.84H83.6022ZM85.2422 37.72C85.0155 38.88 84.5155 39.7533 83.7422 40.34C82.9689 40.9267 81.9955 41.22 80.8222 41.22C79.9955 41.22 79.2755 41.0867 78.6622 40.82C78.0622 40.5533 77.5555 40.18 77.1422 39.7C76.7289 39.22 76.4155 38.6467 76.2022 37.98C76.0022 37.3133 75.8889 36.5867 75.8622 35.8C75.8622 35.0133 75.9822 34.2933 76.2222 33.64C76.4622 32.9867 76.7955 32.42 77.2222 31.94C77.6622 31.46 78.1755 31.0867 78.7622 30.82C79.3622 30.5533 80.0155 30.42 80.7222 30.42C81.6422 30.42 82.4022 30.6133 83.0022 31C83.6155 31.3733 84.1022 31.8533 84.4622 32.44C84.8355 33.0267 85.0889 33.6667 85.2222 34.36C85.3689 35.0533 85.4289 35.7133 85.4022 36.34H77.6622C77.6489 36.7933 77.7022 37.2267 77.8222 37.64C77.9422 38.04 78.1355 38.4 78.4022 38.72C78.6689 39.0267 79.0089 39.2733 79.4222 39.46C79.8355 39.6467 80.3222 39.74 80.8822 39.74C81.6022 39.74 82.1889 39.5733 82.6422 39.24C83.1089 38.9067 83.4155 38.4 83.5622 37.72H85.2422ZM89.5044 30.66H91.1044V32.84H91.1444C91.5577 32 92.0644 31.38 92.6644 30.98C93.2644 30.58 94.0244 30.3933 94.9444 30.42V32.22C94.2644 32.22 93.6844 32.3133 93.2044 32.5C92.7244 32.6867 92.3377 32.96 92.0444 33.32C91.751 33.68 91.5377 34.12 91.4044 34.64C91.271 35.1467 91.2044 35.7333 91.2044 36.4V41H89.5044V30.66Z" fill="black"/>
<g clip-path="url(#clip0_10_4412)">
<path d="M103.876 37.6455C115.289 17.0256 136.641 2.43434 161.951 0.71326C201.554 -1.97984 235.843 27.862 238.542 67.3721C241.242 106.882 211.329 141.09 171.726 143.783C143.449 145.706 117.873 131.037 104.578 108.104" stroke="black" stroke-miterlimit="10"/>
</g>
<defs>
<clipPath id="clip0_10_4412">
<rect width="137" height="144" fill="white" transform="translate(102)"/>
</clipPath>
</defs>
</svg>
