<svg width="101" height="316" viewBox="0 0 101 316" fill="none" xmlns="http://www.w3.org/2000/svg">
<path d="M1.848 253.864H4.272L13.296 267.76H13.344V253.864H15.504V271H13.008L4.056 257.248H4.008V271H1.848V253.864ZM30.3523 263.608C30.3203 263.128 30.2083 262.672 30.0163 262.24C29.8403 261.808 29.5923 261.44 29.2723 261.136C28.9683 260.816 28.6003 260.568 28.1683 260.392C27.7523 260.2 27.2883 260.104 26.7763 260.104C26.2483 260.104 25.7683 260.2 25.3363 260.392C24.9203 260.568 24.5603 260.816 24.2563 261.136C23.9523 261.456 23.7123 261.832 23.5363 262.264C23.3603 262.68 23.2563 263.128 23.2243 263.608H30.3523ZM32.3203 267.064C32.0483 268.456 31.4483 269.504 30.5203 270.208C29.5923 270.912 28.4243 271.264 27.0163 271.264C26.0243 271.264 25.1603 271.104 24.4243 270.784C23.7043 270.464 23.0963 270.016 22.6003 269.44C22.1043 268.864 21.7283 268.176 21.4723 267.376C21.2323 266.576 21.0963 265.704 21.0643 264.76C21.0643 263.816 21.2083 262.952 21.4963 262.168C21.7843 261.384 22.1843 260.704 22.6963 260.128C23.2243 259.552 23.8403 259.104 24.5443 258.784C25.2643 258.464 26.0483 258.304 26.8963 258.304C28.0003 258.304 28.9123 258.536 29.6323 259C30.3683 259.448 30.9523 260.024 31.3843 260.728C31.8323 261.432 32.1363 262.2 32.2963 263.032C32.4723 263.864 32.5443 264.656 32.5123 265.408H23.2243C23.2083 265.952 23.2723 266.472 23.4163 266.968C23.5603 267.448 23.7923 267.88 24.1123 268.264C24.4323 268.632 24.8403 268.928 25.3363 269.152C25.8323 269.376 26.4163 269.488 27.0883 269.488C27.9523 269.488 28.6563 269.288 29.2003 268.888C29.7603 268.488 30.1283 267.88 30.3043 267.064H32.3203ZM49.7949 271H47.6349L45.1149 261.136H45.0669L42.5709 271H40.3629L36.3789 258.592H38.6349L41.4429 268.744H41.4909L43.9869 258.592H46.2189L48.8109 268.744H48.8589L51.6429 258.592H53.7549L49.7949 271ZM59.8224 267.088C59.8384 267.536 59.9424 267.92 60.1344 268.24C60.3264 268.544 60.5744 268.792 60.8784 268.984C61.1984 269.16 61.5504 269.288 61.9344 269.368C62.3344 269.448 62.7424 269.488 63.1584 269.488C63.4784 269.488 63.8144 269.464 64.1664 269.416C64.5184 269.368 64.8384 269.28 65.1264 269.152C65.4304 269.024 65.6784 268.84 65.8704 268.6C66.0624 268.344 66.1584 268.024 66.1584 267.64C66.1584 267.112 65.9584 266.712 65.5584 266.44C65.1584 266.168 64.6544 265.952 64.0464 265.792C63.4544 265.616 62.8064 265.464 62.1024 265.336C61.3984 265.192 60.7424 265 60.1344 264.76C59.5424 264.504 59.0464 264.152 58.6464 263.704C58.2464 263.256 58.0464 262.632 58.0464 261.832C58.0464 261.208 58.1824 260.672 58.4544 260.224C58.7424 259.776 59.1024 259.416 59.5344 259.144C59.9824 258.856 60.4784 258.648 61.0224 258.52C61.5824 258.376 62.1344 258.304 62.6784 258.304C63.3824 258.304 64.0304 258.368 64.6224 258.496C65.2144 258.608 65.7344 258.816 66.1824 259.12C66.6464 259.408 67.0144 259.808 67.2864 260.32C67.5584 260.816 67.7184 261.44 67.7664 262.192H65.7264C65.6944 261.792 65.5904 261.464 65.4144 261.208C65.2384 260.936 65.0144 260.72 64.7424 260.56C64.4704 260.4 64.1664 260.288 63.8304 260.224C63.5104 260.144 63.1824 260.104 62.8464 260.104C62.5424 260.104 62.2304 260.128 61.9104 260.176C61.6064 260.224 61.3264 260.312 61.0704 260.44C60.8144 260.552 60.6064 260.712 60.4464 260.92C60.2864 261.112 60.2064 261.368 60.2064 261.688C60.2064 262.04 60.3264 262.336 60.5664 262.576C60.8224 262.8 61.1424 262.992 61.5264 263.152C61.9104 263.296 62.3424 263.424 62.8224 263.536C63.3024 263.632 63.7824 263.736 64.2624 263.848C64.7744 263.96 65.2704 264.096 65.7504 264.256C66.2464 264.416 66.6784 264.632 67.0464 264.904C67.4304 265.16 67.7344 265.488 67.9584 265.888C68.1984 266.288 68.3184 266.784 68.3184 267.376C68.3184 268.128 68.1584 268.752 67.8384 269.248C67.5344 269.744 67.1264 270.144 66.6144 270.448C66.1184 270.752 65.5504 270.96 64.9104 271.072C64.2864 271.2 63.6624 271.264 63.0384 271.264C62.3504 271.264 61.6944 271.192 61.0704 271.048C60.4464 270.904 59.8944 270.672 59.4144 270.352C58.9344 270.016 58.5504 269.584 58.2624 269.056C57.9744 268.512 57.8144 267.856 57.7824 267.088H59.8224ZM88.0781 260.464C88.3181 260.304 88.5741 260.128 88.8461 259.936C89.1181 259.744 89.3661 259.528 89.5901 259.288C89.8141 259.048 89.9981 258.784 90.1421 258.496C90.2861 258.192 90.3581 257.856 90.3581 257.488C90.3581 256.992 90.1821 256.568 89.8301 256.216C89.4781 255.848 88.9981 255.664 88.3901 255.664C87.9101 255.664 87.4621 255.816 87.0461 256.12C86.6301 256.408 86.4221 256.864 86.4221 257.488C86.4221 257.744 86.4701 258 86.5661 258.256C86.6781 258.512 86.8141 258.768 86.9741 259.024C87.1341 259.264 87.3101 259.504 87.5021 259.744C87.6941 259.984 87.8861 260.224 88.0781 260.464ZM92.4701 268.864C91.9581 269.664 91.2541 270.264 90.3581 270.664C89.4781 271.064 88.5661 271.264 87.6221 271.264C86.4701 271.264 85.5421 271.088 84.8381 270.736C84.1341 270.384 83.5901 269.96 83.2061 269.464C82.8221 268.968 82.5661 268.456 82.4381 267.928C82.3261 267.4 82.2701 266.96 82.2701 266.608C82.2701 265.936 82.3741 265.344 82.5821 264.832C82.8061 264.32 83.0941 263.864 83.4461 263.464C83.8141 263.048 84.2381 262.68 84.7181 262.36C85.2141 262.024 85.7341 261.712 86.2781 261.424C86.0381 261.088 85.8061 260.768 85.5821 260.464C85.3581 260.16 85.1501 259.856 84.9581 259.552C84.7821 259.232 84.6381 258.904 84.5261 258.568C84.4301 258.216 84.3821 257.824 84.3821 257.392C84.3821 256.928 84.4621 256.488 84.6221 256.072C84.7981 255.64 85.0461 255.264 85.3661 254.944C85.7021 254.608 86.1101 254.344 86.5901 254.152C87.0701 253.96 87.6221 253.864 88.2461 253.864C88.7741 253.864 89.2861 253.936 89.7821 254.08C90.2941 254.224 90.7421 254.448 91.1261 254.752C91.5101 255.04 91.8141 255.408 92.0381 255.856C92.2781 256.288 92.3981 256.792 92.3981 257.368C92.3981 257.88 92.3101 258.36 92.1341 258.808C91.9581 259.24 91.7181 259.64 91.4141 260.008C91.1101 260.376 90.7661 260.712 90.3821 261.016C89.9981 261.304 89.5981 261.568 89.1821 261.808L92.2781 265.576C92.5981 264.68 92.7821 263.792 92.8301 262.912H94.7741C94.7261 263.424 94.6701 263.864 94.6061 264.232C94.5581 264.584 94.4861 264.912 94.3901 265.216C94.3101 265.52 94.2061 265.824 94.0781 266.128C93.9501 266.416 93.7981 266.752 93.6221 267.136L96.9581 271H94.2941L92.4701 268.864ZM87.4061 262.72C87.0061 262.944 86.6221 263.176 86.2541 263.416C85.9021 263.656 85.5901 263.928 85.3181 264.232C85.0461 264.536 84.8301 264.88 84.6701 265.264C84.5101 265.632 84.4301 266.072 84.4301 266.584C84.4301 267.016 84.5181 267.416 84.6941 267.784C84.8861 268.136 85.1341 268.44 85.4381 268.696C85.7421 268.936 86.0861 269.128 86.4701 269.272C86.8701 269.416 87.2781 269.488 87.6941 269.488C88.4781 269.488 89.1741 269.304 89.7821 268.936C90.4061 268.568 90.9261 268.072 91.3421 267.448L87.4061 262.72ZM1.872 289.864H13.704V291.784H4.152V297.232H13.056V299.152H4.152V305.08H13.776V307H1.872V289.864ZM24.6799 307H22.4959L17.8879 294.592H20.1679L23.6479 304.936H23.6959L27.0799 294.592H29.2159L24.6799 307ZM42.5839 299.608C42.5519 299.128 42.4399 298.672 42.2479 298.24C42.0719 297.808 41.8239 297.44 41.5039 297.136C41.1999 296.816 40.8319 296.568 40.3999 296.392C39.9839 296.2 39.5199 296.104 39.0079 296.104C38.4799 296.104 37.9999 296.2 37.5679 296.392C37.1519 296.568 36.7919 296.816 36.4879 297.136C36.1839 297.456 35.9439 297.832 35.7679 298.264C35.5919 298.68 35.4879 299.128 35.4559 299.608H42.5839ZM44.5519 303.064C44.2799 304.456 43.6799 305.504 42.7519 306.208C41.8239 306.912 40.6559 307.264 39.2479 307.264C38.2559 307.264 37.3919 307.104 36.6559 306.784C35.9359 306.464 35.3279 306.016 34.8319 305.44C34.3359 304.864 33.9599 304.176 33.7039 303.376C33.4639 302.576 33.3279 301.704 33.2959 300.76C33.2959 299.816 33.4399 298.952 33.7279 298.168C34.0159 297.384 34.4159 296.704 34.9279 296.128C35.4559 295.552 36.0719 295.104 36.7759 294.784C37.4959 294.464 38.2799 294.304 39.1279 294.304C40.2319 294.304 41.1439 294.536 41.8639 295C42.5999 295.448 43.1839 296.024 43.6159 296.728C44.0639 297.432 44.3679 298.2 44.5279 299.032C44.7039 299.864 44.7759 300.656 44.7439 301.408H35.4559C35.4399 301.952 35.5039 302.472 35.6479 302.968C35.7919 303.448 36.0239 303.88 36.3439 304.264C36.6639 304.632 37.0719 304.928 37.5679 305.152C38.0639 305.376 38.6479 305.488 39.3199 305.488C40.1839 305.488 40.8879 305.288 41.4319 304.888C41.9919 304.488 42.3599 303.88 42.5359 303.064H44.5519ZM49.7385 294.592H51.6585V296.56H51.7065C52.5545 295.056 53.8985 294.304 55.7385 294.304C56.5545 294.304 57.2345 294.416 57.7785 294.64C58.3225 294.864 58.7625 295.176 59.0985 295.576C59.4345 295.976 59.6665 296.456 59.7945 297.016C59.9385 297.56 60.0105 298.168 60.0105 298.84V307H57.9705V298.6C57.9705 297.832 57.7465 297.224 57.2985 296.776C56.8505 296.328 56.2345 296.104 55.4505 296.104C54.8265 296.104 54.2825 296.2 53.8185 296.392C53.3705 296.584 52.9945 296.856 52.6905 297.208C52.3865 297.56 52.1545 297.976 51.9945 298.456C51.8505 298.92 51.7785 299.432 51.7785 299.992V307H49.7385V294.592ZM68.7864 294.592H71.2584V296.392H68.7864V304.096C68.7864 304.336 68.8024 304.528 68.8344 304.672C68.8824 304.816 68.9624 304.928 69.0744 305.008C69.1864 305.088 69.3384 305.144 69.5304 305.176C69.7384 305.192 70.0024 305.2 70.3224 305.2H71.2584V307H69.6984C69.1704 307 68.7144 306.968 68.3304 306.904C67.9624 306.824 67.6584 306.688 67.4184 306.496C67.1944 306.304 67.0264 306.032 66.9144 305.68C66.8024 305.328 66.7464 304.864 66.7464 304.288V296.392H64.6344V294.592H66.7464V290.872H68.7864V294.592ZM77.6528 303.088C77.6688 303.536 77.7728 303.92 77.9648 304.24C78.1568 304.544 78.4048 304.792 78.7088 304.984C79.0288 305.16 79.3808 305.288 79.7648 305.368C80.1648 305.448 80.5728 305.488 80.9888 305.488C81.3088 305.488 81.6448 305.464 81.9968 305.416C82.3488 305.368 82.6688 305.28 82.9568 305.152C83.2608 305.024 83.5088 304.84 83.7008 304.6C83.8928 304.344 83.9888 304.024 83.9888 303.64C83.9888 303.112 83.7888 302.712 83.3888 302.44C82.9888 302.168 82.4848 301.952 81.8768 301.792C81.2848 301.616 80.6368 301.464 79.9328 301.336C79.2288 301.192 78.5728 301 77.9648 300.76C77.3728 300.504 76.8768 300.152 76.4768 299.704C76.0768 299.256 75.8768 298.632 75.8768 297.832C75.8768 297.208 76.0128 296.672 76.2848 296.224C76.5728 295.776 76.9328 295.416 77.3648 295.144C77.8128 294.856 78.3088 294.648 78.8528 294.52C79.4128 294.376 79.9648 294.304 80.5088 294.304C81.2128 294.304 81.8608 294.368 82.4528 294.496C83.0448 294.608 83.5648 294.816 84.0128 295.12C84.4768 295.408 84.8448 295.808 85.1168 296.32C85.3888 296.816 85.5488 297.44 85.5968 298.192H83.5568C83.5248 297.792 83.4208 297.464 83.2448 297.208C83.0688 296.936 82.8448 296.72 82.5728 296.56C82.3008 296.4 81.9968 296.288 81.6608 296.224C81.3408 296.144 81.0128 296.104 80.6768 296.104C80.3728 296.104 80.0608 296.128 79.7408 296.176C79.4368 296.224 79.1568 296.312 78.9008 296.44C78.6448 296.552 78.4368 296.712 78.2768 296.92C78.1168 297.112 78.0368 297.368 78.0368 297.688C78.0368 298.04 78.1568 298.336 78.3968 298.576C78.6528 298.8 78.9728 298.992 79.3568 299.152C79.7408 299.296 80.1728 299.424 80.6528 299.536C81.1328 299.632 81.6128 299.736 82.0928 299.848C82.6048 299.96 83.1008 300.096 83.5808 300.256C84.0768 300.416 84.5088 300.632 84.8768 300.904C85.2608 301.16 85.5648 301.488 85.7888 301.888C86.0288 302.288 86.1488 302.784 86.1488 303.376C86.1488 304.128 85.9888 304.752 85.6688 305.248C85.3648 305.744 84.9568 306.144 84.4448 306.448C83.9488 306.752 83.3808 306.96 82.7408 307.072C82.1168 307.2 81.4928 307.264 80.8688 307.264C80.1808 307.264 79.5248 307.192 78.9008 307.048C78.2768 306.904 77.7248 306.672 77.2448 306.352C76.7648 306.016 76.3808 305.584 76.0928 305.056C75.8048 304.512 75.6448 303.856 75.6128 303.088H77.6528Z" fill="black"/>
<path d="M76.556 29.696V23.54C74.756 23.684 72.92 23.828 70.508 23.828C69.896 23.828 69.716 23.612 69.644 23.072C69.536 22.388 69.392 21.2 69.248 19.94C70.184 20.084 71.12 20.12 72.056 20.12C73.568 20.12 75.116 19.976 76.628 19.832C76.628 18.644 76.664 17.276 76.664 15.728C76.664 14.792 76.628 13.748 76.412 12.812C78.212 12.92 79.724 13.172 80.696 13.46C81.128 13.568 81.416 13.82 81.416 14.144C81.416 14.288 81.344 14.468 81.2 14.72C80.948 15.188 80.768 15.656 80.696 16.124C80.588 17.06 80.552 17.96 80.516 19.112C82.1 18.788 83.576 18.32 85.124 17.78C85.448 17.672 85.7 17.744 85.736 18.104C85.88 19.004 85.952 19.976 85.952 20.912C85.952 21.272 85.844 21.38 85.484 21.488C83.108 22.244 82.496 22.424 80.336 22.856C80.3 24.584 80.3 26.348 80.264 28.076C83.648 26.636 86.816 26.06 89.12 26.096C93.584 26.132 96.788 28.976 96.788 33.296C96.788 37.904 93.836 40.604 88.976 40.604C87.932 40.604 86.78 40.46 86.024 40.28C85.448 40.136 85.232 39.776 85.232 39.2C85.16 38.408 84.908 37.184 84.152 36.14C85.88 36.716 87.32 36.788 88.652 36.788C90.668 36.788 92.54 35.636 92.54 33.08C92.54 30.74 91.1 29.444 88.58 29.444C86.528 29.444 84.044 29.984 80.336 31.892C80.372 33.404 80.408 34.628 80.48 36.212C80.588 37.796 80.768 40.064 80.768 40.892C80.768 41.396 80.84 41.936 80.228 42.08C79.436 42.296 78.284 42.476 77.564 42.512C77.168 42.548 77.024 42.26 76.7 41.792C75.728 40.46 73.856 38.732 71.588 37.184C71.192 37.4 70.76 37.688 70.436 37.976C70.256 38.156 70.004 38.228 69.824 38.228C69.536 38.228 69.248 38.012 69.032 37.652C68.636 37.004 67.916 35.492 67.376 34.304C68.312 34.088 69.5 33.692 70.688 33.044C72.236 32.18 73.928 31.208 76.556 29.696ZM76.736 33.476C75.728 34.16 74.504 34.988 73.208 35.924C74.216 36.464 75.44 37.076 76.592 37.544C76.88 37.616 76.988 37.58 76.952 37.256C76.88 36.32 76.808 34.664 76.736 33.476ZM88.76 19.832C89.228 18.86 89.804 17.924 90.416 17.024C90.668 16.628 90.776 16.52 91.028 16.592C94.34 17.564 96.788 19.076 98.66 20.984C98.804 21.128 98.876 21.236 98.876 21.344C98.876 21.452 98.804 21.56 98.732 21.704C98.264 22.424 97.328 23.54 96.788 24.26C96.68 24.404 96.176 24.44 96.068 24.26C94.16 22.136 91.64 20.804 88.76 19.832ZM87.5 96.548H84.548C84.188 96.548 84.152 96.512 84.152 96.152C84.152 95.9 84.224 93.956 84.224 85.316V76.928C84.224 70.916 84.152 68.9 84.152 68.648C84.152 68.324 84.188 68.288 84.548 68.288C84.8 68.288 85.736 68.36 88.472 68.36H93.512C96.284 68.36 97.22 68.288 97.436 68.288C97.832 68.288 97.868 68.324 97.868 68.648C97.868 68.864 97.796 70.88 97.796 75.848V85.136C97.796 93.596 97.868 95.54 97.868 95.756C97.868 96.116 97.832 96.152 97.436 96.152H94.484C94.124 96.152 94.088 96.116 94.088 95.756V93.596H87.896V96.152C87.896 96.512 87.86 96.548 87.5 96.548ZM87.896 71.816V90.104H94.088V71.816H87.896ZM78.248 82.364H77.024C77.024 82.544 76.988 82.688 76.952 82.832C78.716 86.36 80.768 88.628 83.612 90.644C83.036 91.256 82.352 92.264 81.92 93.272C81.704 93.776 81.56 93.992 81.38 93.992C81.2 93.992 80.984 93.812 80.624 93.452C78.644 91.472 77.168 89.6 75.908 87.116C74.792 90.356 72.776 93.452 69.68 96.296C69.356 96.584 69.14 96.728 68.96 96.728C68.708 96.728 68.492 96.476 68.204 96.044C67.664 95.18 67.016 94.496 66.26 93.992C70.292 90.968 72.2 87.764 73.136 83.732C73.244 83.3 73.316 82.832 73.388 82.364H71.48C68.42 82.364 67.376 82.436 67.16 82.436C66.764 82.436 66.728 82.4 66.728 82.004V79.376C66.728 79.052 66.764 79.016 67.16 79.016C67.376 79.016 68.42 79.088 71.48 79.088H73.784C73.928 77.396 73.964 75.524 74 73.58H71.876C71.336 74.552 70.76 75.524 70.148 76.424C69.86 76.892 69.68 77.108 69.464 77.108C69.248 77.108 69.032 76.928 68.636 76.568C67.916 75.884 67.196 75.56 66.584 75.272C68.564 72.968 69.932 70.304 70.832 67.28C71.084 66.488 71.156 65.84 71.228 64.976C72.416 65.156 73.496 65.408 74.576 65.732C74.972 65.84 75.188 65.984 75.188 66.236C75.188 66.452 75.08 66.596 74.864 66.848C74.648 67.1 74.36 67.352 74.108 68.18C73.892 68.864 73.64 69.584 73.352 70.304H77.6C80.732 70.304 81.776 70.232 81.992 70.232C82.388 70.232 82.424 70.268 82.424 70.628V73.256C82.424 73.616 82.388 73.652 81.992 73.652C81.776 73.652 80.732 73.58 77.6 73.58C77.564 75.452 77.528 77.288 77.384 79.088H78.248C81.344 79.088 82.388 79.016 82.604 79.016C82.964 79.016 83 79.052 83 79.376V82.004C83 82.4 82.964 82.436 82.604 82.436C82.388 82.436 81.344 82.364 78.248 82.364ZM75.656 122.504C76.52 121.208 77.204 120.272 77.78 119.696C77.96 119.516 78.176 119.408 78.464 119.516C81.128 120.56 83.36 121.928 85.52 123.8C85.7 123.944 85.772 124.052 85.772 124.196C85.772 124.304 85.7 124.448 85.592 124.628C85.124 125.384 84.368 126.428 83.756 127.148C83.612 127.328 83.468 127.436 83.36 127.436C83.216 127.436 83.108 127.364 82.928 127.184C80.912 125.42 78.5 123.764 75.656 122.504ZM73.136 127.508C74.54 127.904 76.052 128.336 76.88 128.804C77.276 128.984 77.456 129.2 77.456 129.488C77.456 129.668 77.384 129.848 77.276 130.028C76.952 130.604 76.7 131.252 76.556 131.936C76.196 133.772 75.836 136.436 75.692 138.488C79.004 135.14 83.324 132.8 87.716 132.8C92.972 132.8 96.104 135.86 96.104 140.504C96.104 144.428 93.764 147.02 90.668 148.568C88.256 149.792 84.548 150.656 81.452 151.052C80.66 151.16 80.336 151.124 80.012 150.584C79.328 149.36 78.68 148.388 77.564 147.524C81.596 147.272 85.052 146.588 87.464 145.508C90.38 144.248 91.712 142.376 91.712 140.072C91.712 138.128 90.488 136.364 87.392 136.364C84.224 136.364 80.408 138.416 77.024 141.836C76.376 142.484 75.908 143.096 75.476 143.816C75.26 144.176 75.116 144.176 74.648 144.068C73.82 143.78 72.956 143.456 72.2 143.096C71.84 142.952 71.696 142.88 71.696 142.376C71.912 138.2 72.38 133.952 72.812 130.748C72.956 129.668 73.136 128.732 73.136 127.508ZM74.504 184.568V180.716C74.432 178.88 74.36 178.304 74 176.9C75.8 177.044 77.42 177.296 78.32 177.512C78.716 177.584 79.076 177.944 79.076 178.268C79.076 178.52 78.968 178.772 78.86 179.024C78.644 179.564 78.536 180.032 78.5 180.608C78.464 181.472 78.464 182.84 78.428 184.064C80.912 183.74 84.728 183.344 87.32 183.056C87.356 181.256 87.356 179.312 87.356 177.98C87.356 176.612 87.248 175.244 86.888 173.876C89.084 174.128 90.344 174.308 91.244 174.596C91.748 174.74 91.928 174.92 91.928 175.28C91.928 175.568 91.784 175.856 91.712 176C91.532 176.576 91.388 177.008 91.352 177.62C91.28 179.564 91.244 180.968 91.208 182.66C94.124 182.444 96.284 182.336 98.228 182.264C98.516 182.264 98.66 182.3 98.66 182.624C98.696 183.596 98.732 184.604 98.66 185.576C98.66 186.044 98.588 186.08 98.192 186.08C95.816 186.08 93.404 186.188 91.028 186.368C90.92 188.744 90.812 190.508 90.596 191.912C90.2 194.72 88.58 195.908 85.88 195.908C85.232 195.908 84.404 195.908 83.648 195.8C83.072 195.764 82.928 195.512 82.928 194.864C82.856 193.676 82.64 192.776 82.136 191.624C83.324 191.948 84.296 192.056 85.196 192.056C86.168 192.056 86.708 191.768 86.888 190.508C87.032 189.392 87.104 188.096 87.14 186.692C84.26 186.908 81.128 187.268 78.356 187.7C78.32 191.624 78.284 193.784 78.428 195.836C78.644 198.788 79.436 199.364 83.828 199.364C87.032 199.364 90.488 199.04 93.152 198.644C93.692 198.608 93.8 198.68 93.872 199.112C94.016 199.868 94.088 201.452 94.088 202.136C94.088 202.568 93.944 202.748 93.62 202.784C91.964 203.036 87.5 203.324 84.584 203.324C77.312 203.324 75.188 201.812 74.756 197.096C74.576 195.152 74.504 192.128 74.504 188.312C72.668 188.564 71.516 188.78 70.148 189.068C69.752 189.176 69.176 189.32 68.528 189.608C68.06 189.824 67.808 189.68 67.592 189.212C67.16 188.312 66.764 186.836 66.584 185.612C67.34 185.612 68.888 185.468 70.436 185.252C71.444 185.108 73.172 184.784 74.504 184.568Z" fill="black"/>
<path d="M22.104 22.352V34.268C22.104 36.752 22.14 38.876 22.212 41.756C22.248 42.224 22.068 42.368 21.672 42.368C20.52 42.44 19.224 42.44 18.072 42.368C17.676 42.368 17.532 42.224 17.568 41.792C17.604 39.2 17.712 36.86 17.712 34.412V26.024C14.544 28.688 10.692 31.424 7.812 32.936C7.632 33.044 7.452 33.08 7.272 33.08C6.984 33.08 6.768 32.972 6.516 32.72C5.688 31.892 4.5 31.172 3.42 30.596C8.388 28.04 11.448 25.952 14.76 23.216C17.604 20.876 20.196 18.356 22.428 15.692C23.652 14.252 24.12 13.532 24.696 11.984C26.316 12.884 27.9 13.856 28.692 14.504C28.908 14.648 28.98 14.864 28.98 15.044C28.98 15.332 28.764 15.656 28.476 15.836C27.864 16.232 27.288 16.772 26.316 17.816C24.912 19.508 23.58 20.912 22.104 22.352ZM2.196 83.732C3.636 82.832 4.5 82.112 5.868 80.672C7.632 78.872 9.396 77.036 11.088 75.236C12.528 73.724 13.212 73.328 14.328 73.328C15.444 73.328 16.128 73.616 17.46 74.804C22.032 78.872 27.54 82.796 33.588 86.504C34.056 86.72 34.128 87.08 33.912 87.476C33.264 88.772 32.652 89.78 32.04 90.608C31.86 90.86 31.68 91.004 31.5 91.004C31.356 91.004 31.248 90.968 31.104 90.86C25.38 86.9 20.34 82.904 15.156 78.296C14.94 78.116 14.76 78.044 14.58 78.044C14.328 78.044 14.184 78.152 14.004 78.332C12.24 80.168 10.62 82.112 8.136 84.848C7.164 85.928 6.876 86.396 6.696 86.684C6.516 86.972 6.3 87.152 6.048 87.152C5.904 87.152 5.724 87.08 5.544 86.9C4.572 86.108 3.492 85.064 2.196 83.732ZM21.852 72.14L23.76 70.808C23.94 70.664 24.084 70.7 24.3 70.88C25.416 71.744 26.712 73.184 27.72 74.732C27.864 74.948 27.864 75.128 27.612 75.308L26.1 76.424C25.848 76.604 25.668 76.568 25.488 76.316C24.408 74.66 23.256 73.292 21.852 72.14ZM25.164 69.764L26.964 68.468C27.18 68.324 27.288 68.36 27.504 68.54C28.836 69.548 30.132 70.988 30.924 72.248C31.068 72.464 31.104 72.68 30.816 72.896L29.376 74.012C29.088 74.228 28.908 74.12 28.764 73.904C27.792 72.356 26.64 70.988 25.164 69.764ZM4.824 126.572C5.616 125.6 6.66 124.484 7.344 123.764C7.488 123.584 7.668 123.476 7.848 123.476C7.992 123.476 8.136 123.548 8.316 123.656C10.152 124.628 13.14 126.824 15.192 128.768C15.408 128.984 15.516 129.128 15.516 129.272C15.516 129.416 15.444 129.56 15.3 129.74C14.76 130.46 13.572 131.9 13.068 132.44C12.888 132.62 12.78 132.728 12.636 132.728C12.492 132.728 12.348 132.62 12.168 132.44C10.008 130.208 7.416 128.156 4.824 126.572ZM5.616 144.536C7.452 144.032 8.568 143.708 10.476 142.736C14.868 140.468 17.208 138.956 20.844 136.04C25.236 132.476 27.648 130.172 30.708 126.248C30.924 128.048 31.248 129.272 31.716 130.46C31.824 130.712 31.896 130.928 31.896 131.144C31.896 131.468 31.716 131.756 31.32 132.224C29.412 134.456 26.316 137.336 23.04 139.856C20.052 142.196 17.028 144.212 12.168 146.912C10.548 147.884 10.08 148.244 9.756 148.568C9.54 148.784 9.324 148.928 9.108 148.928C8.928 148.928 8.712 148.784 8.496 148.532C7.596 147.524 6.48 146.048 5.616 144.536ZM16.812 179.348V184.496C21.204 185.864 24.696 187.268 28.26 189.392C28.656 189.608 28.836 189.86 28.656 190.328C28.188 191.516 27.612 192.632 27.108 193.46C26.964 193.712 26.82 193.856 26.64 193.856C26.532 193.856 26.388 193.82 26.244 193.676C22.932 191.552 19.692 189.968 16.776 189.068V197.024C16.776 199.364 16.848 201.488 16.92 204.08C16.956 204.512 16.776 204.62 16.272 204.62C15.228 204.692 14.112 204.692 13.068 204.62C12.564 204.62 12.384 204.512 12.384 204.08C12.492 201.416 12.528 199.292 12.528 196.988V179.276C12.528 176.576 12.42 175.388 12.168 173.948C13.824 174.056 15.624 174.236 16.668 174.524C17.172 174.632 17.352 174.848 17.352 175.136C17.352 175.352 17.244 175.64 17.064 175.964C16.812 176.432 16.812 177.332 16.812 179.348Z" fill="black"/>
</svg>
