<svg width="323" height="144" viewBox="0 0 323 144" fill="none" xmlns="http://www.w3.org/2000/svg">
<path d="M13.464 67.752L15.096 65.784C17.52 66.888 20.856 68.688 22.488 69.984L20.76 72.24C19.224 70.896 15.96 68.952 13.464 67.752ZM13.944 60.624H16.8C16.608 67.056 15.888 70.536 9.216 72.336C8.976 71.64 8.232 70.536 7.68 69.984C13.488 68.592 13.8 66.072 13.944 60.624ZM9.84 61.968L12.312 62.496C11.952 64.104 11.184 65.976 10.296 67.176L7.824 66.24C8.664 65.256 9.432 63.528 9.84 61.968ZM9.504 72.624L12.096 73.152C11.712 74.904 10.92 76.92 9.984 78.216L7.464 77.088C8.328 76.056 9.096 74.232 9.504 72.624ZM19.656 61.968L22.56 62.88C21.6 64.416 20.52 65.976 19.632 67.032L17.4 66.168C18.192 65.04 19.152 63.24 19.656 61.968ZM19.848 72.456L22.848 73.392C21.888 75.024 20.808 76.776 19.944 77.904L17.592 77.04C18.384 75.792 19.344 73.872 19.848 72.456ZM13.872 70.776H16.704C16.488 77.568 15.744 81.264 8.352 83.136C8.064 82.392 7.344 81.24 6.768 80.64C13.32 79.2 13.68 76.536 13.872 70.776ZM16.416 73.92C17.304 77.472 19.368 79.848 23.568 80.592C22.944 81.192 22.2 82.32 21.84 83.088C17.112 81.912 15.048 78.984 13.944 74.28L16.416 73.92ZM1.824 63.048L3.6 61.08C5.016 61.776 7.008 62.928 7.992 63.72L6.144 65.928C5.232 65.088 3.264 63.84 1.824 63.048ZM0.576 69.552L2.376 67.584C3.816 68.256 5.832 69.336 6.84 70.128L4.944 72.312C4.008 71.496 2.04 70.32 0.576 69.552ZM1.128 80.856C2.256 79.056 3.888 76.104 5.16 73.368L7.44 75.24C6.36 77.736 5.016 80.424 3.744 82.728L1.128 80.856ZM39.936 79.824H47.496V82.296H39.936V79.824ZM40.968 62.904H47.064V65.352H40.968V62.904ZM38.76 74.208H48.672V83.016H45.936V76.632H41.4V83.088H38.76V74.208ZM46.056 62.904H46.56L47.064 62.808L48.888 63.576C47.136 69.6 43.08 73.44 38.208 75.504C37.872 74.832 37.152 73.848 36.576 73.32C40.92 71.736 44.712 68.064 46.056 63.36V62.904ZM41.064 60.6L43.8 61.272C42.72 64.512 40.944 67.632 39 69.6C38.52 69.096 37.416 68.16 36.768 67.752C38.64 66.072 40.224 63.384 41.064 60.6ZM41.136 64.248C42.504 67.488 45.624 71.208 50.52 72.744C49.944 73.296 49.128 74.424 48.744 75.168C43.8 73.248 40.656 69.048 39.192 65.496L41.136 64.248ZM28.56 71.208H30.912V79.944H28.56V71.208ZM31.248 63.984V67.032H34.416V63.984H31.248ZM28.752 61.512H37.056V69.504H28.752V61.512ZM32.112 68.496H34.656V79.224H32.112V68.496ZM27.504 79.488C30.048 79.032 33.888 78.192 37.488 77.376L37.752 79.92C34.368 80.76 30.72 81.624 27.984 82.248L27.504 79.488ZM33.12 72.312H37.296V74.832H33.12V72.312ZM65.568 69.144H68.52C68.856 75.024 71.52 80.352 73.608 80.328C74.208 80.304 74.448 79.296 74.592 76.848C75.24 77.448 76.296 78.024 77.088 78.264C76.68 82.32 75.648 83.184 73.464 83.184C69.216 83.184 66.024 76.584 65.568 69.144ZM58.872 72.024H76.536V74.712H58.872V72.024ZM54.816 79.752C57.84 79.464 62.472 78.912 66.696 78.384L66.792 81.216C62.808 81.792 58.536 82.344 55.44 82.752L54.816 79.752ZM57.36 61.728H60.336V80.856H57.36V61.728ZM58.8 61.728H74.832V69.648H58.8V66.984H71.904V64.392H58.8V61.728ZM85.944 60.72L88.656 61.536C87.24 65.616 84.96 69.96 82.512 72.72C82.248 72.048 81.456 70.44 80.952 69.744C82.968 67.536 84.84 64.128 85.944 60.72ZM84 67.344L86.712 64.608L86.736 64.632V83.136H84V67.344ZM94.224 60.744H97.032V82.992H94.224V60.744ZM88.128 64.896H103.68V67.632H88.128V64.896ZM91.056 76.536H100.248V79.104H91.056V76.536ZM98.04 66.432C99.312 70.512 101.736 74.856 104.328 77.304C103.656 77.808 102.696 78.792 102.192 79.56C99.552 76.68 97.32 71.76 96 67.032L98.04 66.432ZM93.336 66.216L95.4 66.792C94.032 71.76 91.752 76.704 88.896 79.632C88.44 78.936 87.48 77.928 86.856 77.448C89.592 75 92.064 70.488 93.336 66.216ZM121.488 72.12V74.352H127.608V72.12H121.488ZM119.136 70.056H130.08V76.416H119.136V70.056ZM124.368 63.144C123.264 65.064 121.176 67.44 118.92 68.832C118.632 68.136 118.056 67.128 117.6 66.528C119.832 65.256 122.016 62.688 123.024 60.624H125.52C126.936 62.856 129.048 65.064 131.184 66.072C130.68 66.744 130.08 67.776 129.72 68.568C127.68 67.32 125.544 65.064 124.368 63.144ZM123.24 67.536H125.784V72.216C125.784 76.08 125.064 80.448 119.352 83.208C118.992 82.608 118.176 81.672 117.6 81.192C122.64 78.888 123.24 75.312 123.24 72.192V67.536ZM126.024 75.168C126.864 77.688 128.616 79.848 131.064 80.88C130.464 81.384 129.624 82.44 129.24 83.136C126.552 81.72 124.824 78.984 123.84 75.72L126.024 75.168ZM120.792 66.552H128.184V68.76H120.792V66.552ZM110.736 65.16H117.768V67.32H110.736V65.16ZM110.736 68.784H117.768V70.968H110.736V68.784ZM109.392 72.432H117.6V74.664H109.392V72.432ZM113.376 62.856H115.656V73.68H113.376V62.856ZM114.192 75.768L115.296 75.384C115.8 76.344 116.256 77.616 116.448 78.432L115.248 78.888C115.104 78.024 114.648 76.728 114.192 75.768ZM112.632 76.08L113.856 75.864C114.24 77.112 114.576 78.696 114.648 79.728L113.352 80.016C113.304 78.96 112.992 77.328 112.632 76.08ZM110.976 76.224L112.2 76.08C112.44 77.496 112.536 79.344 112.464 80.52L111.168 80.688C111.24 79.464 111.168 77.664 110.976 76.224ZM109.2 75.72L110.784 76.008C110.664 78.24 110.4 80.472 109.416 81.816L107.976 81.024C108.816 79.8 109.104 77.76 109.2 75.72ZM109.392 61.512H118.248V63.84H111.744V73.968H109.392V61.512ZM116.352 72.432H118.728C118.728 72.432 118.728 73.08 118.704 73.392C118.464 79.224 118.224 81.48 117.648 82.224C117.24 82.752 116.808 82.968 116.232 83.04C115.728 83.136 114.936 83.16 114.096 83.136C114.048 82.44 113.832 81.504 113.496 80.904C114.144 80.976 114.672 80.976 114.96 80.976C115.248 80.976 115.416 80.904 115.608 80.688C115.944 80.208 116.16 78.288 116.352 72.84V72.432ZM146.064 61.752C145.872 62.64 145.56 64.056 144.888 65.784C144.384 66.96 143.688 68.328 143.016 69.288C143.664 69 144.936 68.832 145.752 68.832C147.744 68.832 149.256 70.008 149.256 72.24C149.256 73.536 149.328 76.152 149.352 77.664H146.472C146.568 76.536 146.616 74.496 146.592 73.2C146.592 71.664 145.632 71.16 144.624 71.16C143.304 71.16 141.792 71.952 140.88 72.816C140.16 73.536 139.488 74.4 138.672 75.456L136.104 73.536C139.176 70.704 141.024 68.112 142.032 65.472C142.512 64.176 142.824 62.712 142.896 61.488L146.064 61.752ZM137.016 63.984C138.24 64.152 140.016 64.248 141.24 64.248C144.408 64.248 148.752 64.08 152.232 63.456L152.208 66.24C148.824 66.72 144 66.936 141.072 66.936C140.088 66.936 138.336 66.888 137.016 66.768V63.984ZM156.024 70.8C155.28 71.016 153.984 71.496 153.168 71.808C151.608 72.408 149.448 73.272 147.192 74.424C145.008 75.552 143.832 76.584 143.832 77.904C143.832 79.224 144.984 79.584 147.312 79.584C149.352 79.584 152.04 79.32 154.152 78.888L154.056 81.984C152.448 82.2 149.52 82.416 147.24 82.416C143.496 82.416 140.688 81.48 140.688 78.384C140.688 75.048 144.12 73.08 147 71.64C149.208 70.488 150.72 69.912 152.16 69.24C153.096 68.832 153.936 68.448 154.848 67.992L156.024 70.8ZM176.952 61.656C176.88 62.064 176.808 63.336 176.784 63.72C176.712 65.304 176.76 70.2 176.784 72.12L173.784 71.112C173.784 69.624 173.784 65.016 173.688 63.744C173.616 62.784 173.52 61.968 173.472 61.656H176.952ZM163.368 64.656C166.944 64.656 173.28 64.464 176.28 64.464C178.728 64.464 182.376 64.44 183.72 64.464L183.672 67.296C182.184 67.224 179.736 67.152 176.208 67.152C171.84 67.152 167.064 67.344 163.44 67.536L163.368 64.656ZM176.376 71.76C176.376 75.672 174.936 77.616 172.176 77.616C170.328 77.616 168.024 76.152 168.024 73.224C168.024 70.512 170.232 68.736 172.824 68.736C175.992 68.736 177.648 71.064 177.648 74.04C177.648 77.184 175.8 81.144 169.944 82.8L167.4 80.256C171.48 79.368 174.672 77.76 174.672 73.56C174.672 72 173.832 71.256 172.776 71.256C171.84 71.256 170.904 71.904 170.904 73.176C170.904 74.256 171.792 74.952 172.776 74.952C173.904 74.952 174.888 73.992 174.12 71.136L176.376 71.76ZM193.44 62.736C194.112 62.808 194.928 62.856 195.6 62.856C196.896 62.856 202.008 62.736 203.376 62.616C204.384 62.544 204.936 62.448 205.224 62.352L206.76 64.512C206.208 64.872 205.632 65.208 205.104 65.616C203.808 66.528 201.288 68.64 199.752 69.84C200.568 69.624 201.288 69.576 202.032 69.576C206.112 69.576 209.208 72.12 209.208 75.6C209.208 79.392 206.328 82.392 200.52 82.392C197.184 82.392 194.664 80.88 194.664 78.456C194.664 76.512 196.44 74.736 198.984 74.736C202.272 74.736 204.096 76.944 204.168 79.584L201.36 79.944C201.312 78.216 200.4 77.016 198.984 77.016C198.096 77.016 197.496 77.568 197.496 78.192C197.496 79.08 198.48 79.68 199.944 79.68C204 79.68 206.064 78.144 206.064 75.576C206.064 73.392 203.904 71.928 201.096 71.928C197.4 71.928 195.024 73.896 192.456 76.8L190.272 74.544C191.976 73.2 194.88 70.752 196.272 69.576C197.616 68.472 200.136 66.456 201.312 65.4C200.088 65.448 196.776 65.568 195.48 65.664C194.832 65.712 194.088 65.76 193.536 65.856L193.44 62.736Z" fill="black"/>
<path d="M1.56 26.72H11.42V28.32H3.46V32.86H10.88V34.46H3.46V39.4H11.48V41H1.56V26.72ZM18.6866 35.56L15.0866 30.66H17.2666L19.7466 34.28L22.3266 30.66H24.3666L20.8066 35.42L24.8066 41H22.6266L19.7466 36.72L16.8666 41H14.8066L18.6866 35.56ZM28.7181 30.66H30.4181V32.06H30.4581C30.7381 31.4867 31.1781 31.0733 31.7781 30.82C32.3781 30.5533 33.0381 30.42 33.7581 30.42C34.5581 30.42 35.2515 30.5667 35.8381 30.86C36.4381 31.1533 36.9315 31.5533 37.3181 32.06C37.7181 32.5533 38.0181 33.1267 38.2181 33.78C38.4181 34.4333 38.5181 35.1267 38.5181 35.86C38.5181 36.5933 38.4181 37.2867 38.2181 37.94C38.0315 38.5933 37.7381 39.1667 37.3381 39.66C36.9515 40.14 36.4581 40.52 35.8581 40.8C35.2715 41.08 34.5848 41.22 33.7981 41.22C33.5448 41.22 33.2581 41.1933 32.9381 41.14C32.6315 41.0867 32.3248 41 32.0181 40.88C31.7115 40.76 31.4181 40.6 31.1381 40.4C30.8715 40.1867 30.6448 39.9267 30.4581 39.62H30.4181V44.94H28.7181V30.66ZM36.7181 35.74C36.7181 35.26 36.6515 34.7933 36.5181 34.34C36.3981 33.8733 36.2048 33.46 35.9381 33.1C35.6848 32.74 35.3515 32.4533 34.9381 32.24C34.5381 32.0267 34.0648 31.92 33.5181 31.92C32.9448 31.92 32.4581 32.0333 32.0581 32.26C31.6581 32.4867 31.3315 32.7867 31.0781 33.16C30.8248 33.52 30.6381 33.9333 30.5181 34.4C30.4115 34.8667 30.3581 35.34 30.3581 35.82C30.3581 36.3267 30.4181 36.82 30.5381 37.3C30.6581 37.7667 30.8448 38.18 31.0981 38.54C31.3648 38.9 31.7048 39.1933 32.1181 39.42C32.5315 39.6333 33.0315 39.74 33.6181 39.74C34.2048 39.74 34.6915 39.6267 35.0781 39.4C35.4781 39.1733 35.7981 38.8733 36.0381 38.5C36.2781 38.1267 36.4515 37.7 36.5581 37.22C36.6648 36.74 36.7181 36.2467 36.7181 35.74ZM50.0936 34.84C50.0669 34.44 49.9736 34.06 49.8136 33.7C49.6669 33.34 49.4603 33.0333 49.1936 32.78C48.9403 32.5133 48.6336 32.3067 48.2736 32.16C47.9269 32 47.5403 31.92 47.1136 31.92C46.6736 31.92 46.2736 32 45.9136 32.16C45.5669 32.3067 45.2669 32.5133 45.0136 32.78C44.7603 33.0467 44.5603 33.36 44.4136 33.72C44.2669 34.0667 44.1803 34.44 44.1536 34.84H50.0936ZM51.7336 37.72C51.5069 38.88 51.0069 39.7533 50.2336 40.34C49.4603 40.9267 48.4869 41.22 47.3136 41.22C46.4869 41.22 45.7669 41.0867 45.1536 40.82C44.5536 40.5533 44.0469 40.18 43.6336 39.7C43.2203 39.22 42.9069 38.6467 42.6936 37.98C42.4936 37.3133 42.3803 36.5867 42.3536 35.8C42.3536 35.0133 42.4736 34.2933 42.7136 33.64C42.9536 32.9867 43.2869 32.42 43.7136 31.94C44.1536 31.46 44.6669 31.0867 45.2536 30.82C45.8536 30.5533 46.5069 30.42 47.2136 30.42C48.1336 30.42 48.8936 30.6133 49.4936 31C50.1069 31.3733 50.5936 31.8533 50.9536 32.44C51.3269 33.0267 51.5803 33.6667 51.7136 34.36C51.8603 35.0533 51.9203 35.7133 51.8936 36.34H44.1536C44.1403 36.7933 44.1936 37.2267 44.3136 37.64C44.4336 38.04 44.6269 38.4 44.8936 38.72C45.1603 39.0267 45.5003 39.2733 45.9136 39.46C46.3269 39.6467 46.8136 39.74 47.3736 39.74C48.0936 39.74 48.6803 39.5733 49.1336 39.24C49.6003 38.9067 49.9069 38.4 50.0536 37.72H51.7336ZM55.9958 30.66H57.5958V32.84H57.6358C58.0491 32 58.5558 31.38 59.1558 30.98C59.7558 30.58 60.5158 30.3933 61.4358 30.42V32.22C60.7558 32.22 60.1758 32.3133 59.6958 32.5C59.2158 32.6867 58.8291 32.96 58.5358 33.32C58.2424 33.68 58.0291 34.12 57.8958 34.64C57.7624 35.1467 57.6958 35.7333 57.6958 36.4V41H55.9958V30.66ZM66.9159 28.8H65.2159V26.72H66.9159V28.8ZM65.2159 30.66H66.9159V41H65.2159V30.66ZM79.1295 34.84C79.1029 34.44 79.0095 34.06 78.8495 33.7C78.7029 33.34 78.4962 33.0333 78.2295 32.78C77.9762 32.5133 77.6695 32.3067 77.3095 32.16C76.9629 32 76.5762 31.92 76.1495 31.92C75.7095 31.92 75.3095 32 74.9495 32.16C74.6029 32.3067 74.3029 32.5133 74.0495 32.78C73.7962 33.0467 73.5962 33.36 73.4495 33.72C73.3029 34.0667 73.2162 34.44 73.1895 34.84H79.1295ZM80.7695 37.72C80.5429 38.88 80.0429 39.7533 79.2695 40.34C78.4962 40.9267 77.5229 41.22 76.3495 41.22C75.5229 41.22 74.8029 41.0867 74.1895 40.82C73.5895 40.5533 73.0829 40.18 72.6695 39.7C72.2562 39.22 71.9429 38.6467 71.7295 37.98C71.5295 37.3133 71.4162 36.5867 71.3895 35.8C71.3895 35.0133 71.5095 34.2933 71.7495 33.64C71.9895 32.9867 72.3229 32.42 72.7495 31.94C73.1895 31.46 73.7029 31.0867 74.2895 30.82C74.8895 30.5533 75.5429 30.42 76.2495 30.42C77.1695 30.42 77.9295 30.6133 78.5295 31C79.1429 31.3733 79.6295 31.8533 79.9895 32.44C80.3629 33.0267 80.6162 33.6667 80.7495 34.36C80.8962 35.0533 80.9562 35.7133 80.9295 36.34H73.1895C73.1762 36.7933 73.2295 37.2267 73.3495 37.64C73.4695 38.04 73.6629 38.4 73.9295 38.72C74.1962 39.0267 74.5362 39.2733 74.9495 39.46C75.3629 39.6467 75.8495 39.74 76.4095 39.74C77.1295 39.74 77.7162 39.5733 78.1695 39.24C78.6362 38.9067 78.9429 38.4 79.0895 37.72H80.7695ZM85.0917 30.66H86.6917V32.3H86.7317C87.4384 31.0467 88.5584 30.42 90.0917 30.42C90.7717 30.42 91.3384 30.5133 91.7917 30.7C92.2451 30.8867 92.6117 31.1467 92.8917 31.48C93.1717 31.8133 93.3651 32.2133 93.4717 32.68C93.5917 33.1333 93.6517 33.64 93.6517 34.2V41H91.9517V34C91.9517 33.36 91.7651 32.8533 91.3917 32.48C91.0184 32.1067 90.5051 31.92 89.8517 31.92C89.3317 31.92 88.8784 32 88.4917 32.16C88.1184 32.32 87.8051 32.5467 87.5517 32.84C87.2984 33.1333 87.1051 33.48 86.9717 33.88C86.8517 34.2667 86.7917 34.6933 86.7917 35.16V41H85.0917V30.66ZM105.625 33.98C105.492 33.3267 105.212 32.82 104.785 32.46C104.358 32.1 103.785 31.92 103.065 31.92C102.452 31.92 101.938 32.0333 101.525 32.26C101.112 32.4867 100.778 32.7867 100.525 33.16C100.285 33.5333 100.112 33.9667 100.005 34.46C99.8983 34.94 99.845 35.44 99.845 35.96C99.845 36.44 99.8983 36.9067 100.005 37.36C100.125 37.8133 100.305 38.22 100.545 38.58C100.785 38.9267 101.098 39.2067 101.485 39.42C101.872 39.6333 102.332 39.74 102.865 39.74C103.705 39.74 104.358 39.52 104.825 39.08C105.305 38.64 105.598 38.02 105.705 37.22H107.445C107.258 38.5 106.778 39.4867 106.005 40.18C105.245 40.8733 104.205 41.22 102.885 41.22C102.098 41.22 101.398 41.0933 100.785 40.84C100.185 40.5867 99.6783 40.2267 99.265 39.76C98.865 39.2933 98.5583 38.74 98.345 38.1C98.145 37.4467 98.045 36.7333 98.045 35.96C98.045 35.1867 98.145 34.4667 98.345 33.8C98.545 33.12 98.845 32.5333 99.245 32.04C99.6583 31.5333 100.172 31.14 100.785 30.86C101.398 30.5667 102.112 30.42 102.925 30.42C103.512 30.42 104.058 30.4933 104.565 30.64C105.085 30.7733 105.538 30.9867 105.925 31.28C106.325 31.5733 106.652 31.9467 106.905 32.4C107.158 32.84 107.318 33.3667 107.385 33.98H105.625ZM118.927 34.84C118.901 34.44 118.807 34.06 118.647 33.7C118.501 33.34 118.294 33.0333 118.027 32.78C117.774 32.5133 117.467 32.3067 117.107 32.16C116.761 32 116.374 31.92 115.947 31.92C115.507 31.92 115.107 32 114.747 32.16C114.401 32.3067 114.101 32.5133 113.847 32.78C113.594 33.0467 113.394 33.36 113.247 33.72C113.101 34.0667 113.014 34.44 112.987 34.84H118.927ZM120.567 37.72C120.341 38.88 119.841 39.7533 119.067 40.34C118.294 40.9267 117.321 41.22 116.147 41.22C115.321 41.22 114.601 41.0867 113.987 40.82C113.387 40.5533 112.881 40.18 112.467 39.7C112.054 39.22 111.741 38.6467 111.527 37.98C111.327 37.3133 111.214 36.5867 111.187 35.8C111.187 35.0133 111.307 34.2933 111.547 33.64C111.787 32.9867 112.121 32.42 112.547 31.94C112.987 31.46 113.501 31.0867 114.087 30.82C114.687 30.5533 115.341 30.42 116.047 30.42C116.967 30.42 117.727 30.6133 118.327 31C118.941 31.3733 119.427 31.8533 119.787 32.44C120.161 33.0267 120.414 33.6667 120.547 34.36C120.694 35.0533 120.754 35.7133 120.727 36.34H112.987C112.974 36.7933 113.027 37.2267 113.147 37.64C113.267 38.04 113.461 38.4 113.727 38.72C113.994 39.0267 114.334 39.2733 114.747 39.46C115.161 39.6467 115.647 39.74 116.207 39.74C116.927 39.74 117.514 39.5733 117.967 39.24C118.434 38.9067 118.741 38.4 118.887 37.72H120.567Z" fill="black"/>
<g clip-path="url(#clip0_11_4432)">
<path d="M187.876 37.6455C199.289 17.0256 220.641 2.43434 245.951 0.71326C285.554 -1.97984 319.843 27.862 322.542 67.3721C325.242 106.882 295.329 141.09 255.726 143.783C227.449 145.706 201.873 131.037 188.578 108.104" stroke="black" stroke-miterlimit="10"/>
</g>
<defs>
<clipPath id="clip0_11_4432">
<rect width="137" height="144" fill="white" transform="translate(186)"/>
</clipPath>
</defs>
</svg>
