<svg xmlns="http://www.w3.org/2000/svg" viewBox="0 0 82 19" class="instagram"><defs><style>.cls-1{fill:#1a1a1a;}.cls-1,.cls-2{stroke-width:0px;}.cls-2{fill:#fff;}</style></defs><path class="cls-2" d="M-911-29h1180v128h-1180z"/><path class="cls-1" d="M12.24 2.86c-.52 0-.94.42-.94.94s.42.94.94.94.94-.42.94-.94-.42-.94-.94-.94zM8.07 4.06c-2.17 0-3.94 1.77-3.94 3.94s1.77 3.94 3.94 3.94 3.94-1.77 3.94-3.94-1.77-3.94-3.94-3.94zm0 6.46c-1.39 0-2.52-1.13-2.52-2.52s1.13-2.52 2.52-2.52 2.52 1.13 2.52 2.52-1.13 2.52-2.52 2.52zM11.19 16h-6.39c-2.65 0-4.81-2.16-4.81-4.81v-6.39c.01-2.64 2.17-4.8 4.82-4.8h6.39c2.65 0 4.81 2.16 4.81 4.81v6.39c0 2.65-2.16 4.81-4.81 4.81zm-6.38-14.49c-1.82 0-3.3 1.48-3.3 3.3v6.39c0 1.82 1.48 3.3 3.3 3.3h6.39c1.82 0 3.3-1.48 3.3-3.3v-6.39c0-1.82-1.48-3.3-3.3-3.3h-6.39zM50.51 7.25c.12-.14.26-.44.39-.43.35.02.7.15 1.03.28.07.03.1.25.1.38 0 1.34-.04 2.69-.03 4.03 0 .33.07.67.17.98.18.57.64.64 1.01.18.3-.37.45-.78.39-1.28-.13-1.03-.05-2.04.31-3.02.22-.59.55-1.1 1.06-1.49.68-.52 1.56-.44 2.15.2l.2.23.07-.04c.08-.54.14-.58.69-.47l.34.09c.29.07.39.25.38.55-.03 1.39-.04 2.78-.05 4.18v.37l.12.05.08-.16c.63-.94 1.17-1.93 1.48-3.03.07-.25.09-.45-.12-.67-.31-.33-.26-.75-.1-1.14.14-.33.4-.53.76-.57.55-.06.84.22.82.76l-.03.35c.32-.05.62-.1.92-.16l.66-.13c.72-.08 1.04.3.89 1.01-.15.68-.29 1.37-.39 2.06-.11.71-.04 1.41.23 2.07.09.22.32.5.5.52.21.02.49-.19.67-.37.22-.24.32-.55.26-.92-.2-1.13-.13-2.25.27-3.34.23-.64.57-1.21 1.2-1.54.72-.38 1.54-.21 2.06.42l.16.19c.08-.18.14-.48.22-.48.33-.02.67.02.99.1.26.06.28.3.28.55-.01 1.4-.02 2.81 0 4.21 0 .29.09.59.2.86.16.4.56.48.86.17.42-.44.72-.94.72-1.58 0-1.36 0-2.71.01-4.07 0-.45.06-.5.49-.43l.14.02c.7.09.74.14.74.85v1.91l.09.02.18-.5c.22-.59.43-1.19.67-1.77.23-.55.4-.64.88-.54.61.13.92.45.94.95.04.93.08 1.85.13 2.78 0 .07.02.14.09.22l.08-.22c.32-1.07.61-2.15.95-3.21.18-.55.45-.65 1-.48.19.06.38.14.55.24.29.16.42.41.42.76-.02 1.18-.04 2.35 0 3.53.01.42.13.85.27 1.24.06.16.29.36.45.37.16 0 .4-.17.48-.33.16-.32.23-.7.36-1.04.05-.12.18-.2.28-.3.05.12.16.25.14.35-.07.47-.13.94-.3 1.38-.2.52-.62.83-1.21.84-.59.01-1.03-.25-1.31-.77-.37-.66-.46-1.4-.49-2.14-.03-.7-.01-1.4-.02-2.11 0-.13 0-.25-.08-.41-.06.1-.13.2-.17.31-.54 1.23-.81 2.53-.92 3.87-.02.24.09.54-.27.66-.37.12-.8.06-.98-.29-.2-.39-.36-.83-.41-1.27-.12-.98-.16-1.97-.23-2.95l-.06-.38c-.14.2-.24.31-.3.43-.56 1.11-.78 2.31-.88 3.54l-.06 1.07c0 .09 0 .21-.06.27-.32.33-.71.18-1.08.13-.25-.04-.45-.15-.47-.45l-.05-.58c-.45.65-.88 1.19-1.67 1.07-.77-.11-1.1-.68-1.29-1.46-.45.76-.97 1.31-1.81 1.44-.91.15-1.47-.3-1.9-1.09l-.22.34c-.59.93-1.65 1.04-2.41.22-.49-.53-.75-1.18-.73-1.89.02-.86.15-1.72.24-2.59l.08-.43c-.38 0-.72-.02-1.06.01-.08 0-.19.14-.22.23-.55 1.59-1.44 2.96-2.47 4.27-.11.14-.17.36-.18.54-.06 1.07-.06 2.14-.16 3.2-.06.64-.32 1.24-.79 1.72-.67.67-1.73.84-2.57.42-.76-.38-1.12-1.27-.71-2.07.3-.59.74-1.13 1.19-1.63.45-.5.96-.96 1.48-1.39.35-.28.34-.58.2-1-.47.65-1.04 1.09-1.83 1.15-.85.07-1.31-.5-1.75-1.15-.4.61-.78 1.24-1.63 1.13-.8-.11-1.15-.68-1.36-1.48-.5.93-1.19 1.53-2.22 1.48-1.12-.06-1.47-.95-1.78-1.91-.08.17-.12.28-.19.37-.25.37-.46.79-.77 1.1-.62.62-1.51.52-2.05-.19-.36-.48-.5-1.04-.58-1.63-.02-.11-.04-.22-.14-.34l-.25.5c-.53.97-1.21 1.78-2.36 2.02-.71.14-1.43.12-2.1-.17-.22-.1-.54-.39-.52-.53.06-.29.31-.55.52-.8.04-.05.26 0 .38.07.22.11.41.3.63.39.51.22.92.01 1.07-.52.14-.47.06-.91-.25-1.27-.38-.44-.79-.85-1.23-1.31l-.25.37c-.46.75-.91 1.51-1.37 2.25-.33.54-.73 1.03-1.29 1.36-.73.42-1.34.21-1.52-.62-.13-.63-.15-1.3-.15-1.95 0-.95.06-1.9.09-2.85l-.04-.37-.39.38c-.74.94-1.19 2.03-1.51 3.17-.2.7-.35 1.41-.49 2.12-.05.27-.18.33-.41.32-.81-.04-1.01-.23-1.01-1.07 0-1.88.01-3.76.02-5.64 0-.3.13-.41.42-.36l.32.06c.53.14.58.2.58.76v2.46c0 .09.01.18.08.29.09-.22.15-.46.26-.67.37-.74.7-1.52 1.15-2.2.54-.81 1.18-.88 2.01-.38.34.2.5.48.48.88-.05 1.09-.08 2.19-.1 3.28 0 .32.02.64.08.95.07.32.29.38.52.15.23-.24.45-.5.62-.78.43-.7.83-1.42 1.25-2.12.11-.17.07-.29-.04-.44-.35-.5-.35-1.02-.06-1.55.3-.55.8-.81 1.4-.84.47-.02.73.25.64.72-.07.35-.26.68-.41 1.01-.07.16-.2.29-.32.46.26.19.51.37.75.56.32.26.65.52.96.8.52.47.79 1.06.7 1.8.69-.58 1.16-1.28 1.19-2.18.03-1.03.01-2.07.03-3.11 0-.24-.07-.34-.32-.33-.38.02-.76 0-1.14 0-.23 0-.32-.1-.32-.32-.02-.55.2-.77.75-.75.26 0 .52 0 .78.02.24.02.34-.06.34-.32 0-.49.03-.97.05-1.46.02-.38.13-.47.52-.44l.21.03c.84.15.88.2.84 1.05-.02.39 0 .78 0 1.22l1.69.09c.49.03.62.22.4.66-.06.12-.24.23-.38.24-.5.04-1 .05-1.5.05-.21 0-.29.07-.3.29-.03 1.56-.08 3.11-.08 4.67 0 .37.1.75.23 1.11.13.36.45.45.75.22.21-.16.41-.37.54-.6.31-.54.52-1.11.52-1.75 0-.95.21-1.87.7-2.7.54-.9 1.44-1.28 2.26-.92.32.14.59.42.82.59zm6.96 2.52c-.12-.53-.18-1.1-.38-1.6-.24-.6-.83-.71-1.3-.26-.25.25-.45.58-.58.92-.3.81-.37 1.67-.25 2.53.05.39.14.8.31 1.15.3.61.88.67 1.32.14.21-.25.39-.55.47-.86.17-.65.26-1.32.4-2.02zm9.33.95h.06c0 .14-.02.29 0 .43.09.45.14.92.32 1.34.29.66.9.71 1.35.15.17-.22.32-.48.41-.74.31-.85.41-1.73.3-2.63-.05-.38-.15-.78-.33-1.11-.32-.57-.98-.62-1.39-.1-.21.26-.37.59-.45.91-.13.57-.18 1.17-.27 1.75zm-18.69-.12l.1.01c0 .25-.04.51 0 .75.09.41.18.84.38 1.2.27.49.78.52 1.16.1.22-.25.41-.56.52-.88.35-.98.41-2 .23-3.02-.11-.66-.48-1.09-.92-1.13-.46-.04-.92.3-1.11.98-.18.65-.25 1.32-.37 1.98zm9.51 3.96l-.16-.05c-.85.76-1.63 1.57-2.03 2.68l-.04.17c-.14.7.37 1.2 1.07 1.06.53-.11.81-.5.87-.97.14-.96.2-1.92.29-2.89zM27.56 3.8l-.45.54c-.83 1.07-1.14 2.29-.95 3.62.05.35.27.68.4 1.02.04.11.05.24.07.36-.12 0-.25.04-.36 0-.98-.32-1.63-1.45-1.42-2.52.29-1.51 1.08-2.7 2.36-3.55.54-.36 1.09-.43 1.68-.13.23.12.36.28.36.56v8.17c0 .68-.08 1.36-.38 1.98-.25.53-.6.97-1.16 1.21-.1.04-.22.02-.34.03 0-.1-.04-.21 0-.3.34-.94.35-1.91.35-2.89 0-2.53.02-5.07.03-7.6l-.02-.41-.15-.09z"/></svg>