<svg width="114" height="60" viewBox="0 0 114 60" fill="none" xmlns="http://www.w3.org/2000/svg">
<path d="M12.96 49.84C12.96 51.6667 12.4733 53.04 11.5 53.96C10.5267 54.8667 9.14 55.32 7.34 55.32C5.5 55.32 4.06 54.8867 3.02 54.02C1.99333 53.14 1.48 51.7467 1.48 49.84V40.72H3.38V49.84C3.38 51.12 3.72 52.0933 4.4 52.76C5.08 53.4133 6.06 53.74 7.34 53.74C8.55333 53.74 9.47333 53.4133 10.1 52.76C10.74 52.0933 11.06 51.12 11.06 49.84V40.72H12.96V49.84ZM18.1536 51.74C18.1669 52.1133 18.2536 52.4333 18.4136 52.7C18.5736 52.9533 18.7803 53.16 19.0336 53.32C19.3003 53.4667 19.5936 53.5733 19.9136 53.64C20.2469 53.7067 20.5869 53.74 20.9336 53.74C21.2003 53.74 21.4803 53.72 21.7736 53.68C22.0669 53.64 22.3336 53.5667 22.5736 53.46C22.8269 53.3533 23.0336 53.2 23.1936 53C23.3536 52.7867 23.4336 52.52 23.4336 52.2C23.4336 51.76 23.2669 51.4267 22.9336 51.2C22.6003 50.9733 22.1803 50.7933 21.6736 50.66C21.1803 50.5133 20.6403 50.3867 20.0536 50.28C19.4669 50.16 18.9203 50 18.4136 49.8C17.9203 49.5867 17.5069 49.2933 17.1736 48.92C16.8403 48.5467 16.6736 48.0267 16.6736 47.36C16.6736 46.84 16.7869 46.3933 17.0136 46.02C17.2536 45.6467 17.5536 45.3467 17.9136 45.12C18.2869 44.88 18.7003 44.7067 19.1536 44.6C19.6203 44.48 20.0803 44.42 20.5336 44.42C21.1203 44.42 21.6603 44.4733 22.1536 44.58C22.6469 44.6733 23.0803 44.8467 23.4536 45.1C23.8403 45.34 24.1469 45.6733 24.3736 46.1C24.6003 46.5133 24.7336 47.0333 24.7736 47.66H23.0736C23.0469 47.3267 22.9603 47.0533 22.8136 46.84C22.6669 46.6133 22.4803 46.4333 22.2536 46.3C22.0269 46.1667 21.7736 46.0733 21.4936 46.02C21.2269 45.9533 20.9536 45.92 20.6736 45.92C20.4203 45.92 20.1603 45.94 19.8936 45.98C19.6403 46.02 19.4069 46.0933 19.1936 46.2C18.9803 46.2933 18.8069 46.4267 18.6736 46.6C18.5403 46.76 18.4736 46.9733 18.4736 47.24C18.4736 47.5333 18.5736 47.78 18.7736 47.98C18.9869 48.1667 19.2536 48.3267 19.5736 48.46C19.8936 48.58 20.2536 48.6867 20.6536 48.78C21.0536 48.86 21.4536 48.9467 21.8536 49.04C22.2803 49.1333 22.6936 49.2467 23.0936 49.38C23.5069 49.5133 23.8669 49.6933 24.1736 49.92C24.4936 50.1333 24.7469 50.4067 24.9336 50.74C25.1336 51.0733 25.2336 51.4867 25.2336 51.98C25.2336 52.6067 25.1003 53.1267 24.8336 53.54C24.5803 53.9533 24.2403 54.2867 23.8136 54.54C23.4003 54.7933 22.9269 54.9667 22.3936 55.06C21.8736 55.1667 21.3536 55.22 20.8336 55.22C20.2603 55.22 19.7136 55.16 19.1936 55.04C18.6736 54.92 18.2136 54.7267 17.8136 54.46C17.4136 54.18 17.0936 53.82 16.8536 53.38C16.6136 52.9267 16.4803 52.38 16.4536 51.74H18.1536ZM35.6936 48.84C35.6669 48.44 35.5736 48.06 35.4136 47.7C35.2669 47.34 35.0603 47.0333 34.7936 46.78C34.5403 46.5133 34.2336 46.3067 33.8736 46.16C33.5269 46 33.1403 45.92 32.7136 45.92C32.2736 45.92 31.8736 46 31.5136 46.16C31.1669 46.3067 30.8669 46.5133 30.6136 46.78C30.3603 47.0467 30.1603 47.36 30.0136 47.72C29.8669 48.0667 29.7803 48.44 29.7536 48.84H35.6936ZM37.3336 51.72C37.1069 52.88 36.6069 53.7533 35.8336 54.34C35.0603 54.9267 34.0869 55.22 32.9136 55.22C32.0869 55.22 31.3669 55.0867 30.7536 54.82C30.1536 54.5533 29.6469 54.18 29.2336 53.7C28.8203 53.22 28.5069 52.6467 28.2936 51.98C28.0936 51.3133 27.9803 50.5867 27.9536 49.8C27.9536 49.0133 28.0736 48.2933 28.3136 47.64C28.5536 46.9867 28.8869 46.42 29.3136 45.94C29.7536 45.46 30.2669 45.0867 30.8536 44.82C31.4536 44.5533 32.1069 44.42 32.8136 44.42C33.7336 44.42 34.4936 44.6133 35.0936 45C35.7069 45.3733 36.1936 45.8533 36.5536 46.44C36.9269 47.0267 37.1803 47.6667 37.3136 48.36C37.4603 49.0533 37.5203 49.7133 37.4936 50.34H29.7536C29.7403 50.7933 29.7936 51.2267 29.9136 51.64C30.0336 52.04 30.2269 52.4 30.4936 52.72C30.7603 53.0267 31.1003 53.2733 31.5136 53.46C31.9269 53.6467 32.4136 53.74 32.9736 53.74C33.6936 53.74 34.2803 53.5733 34.7336 53.24C35.2003 52.9067 35.5069 52.4 35.6536 51.72H37.3336ZM40.5958 44.66H42.1958V46.84H42.2358C42.6491 46 43.1558 45.38 43.7558 44.98C44.3558 44.58 45.1158 44.3933 46.0358 44.42V46.22C45.3558 46.22 44.7758 46.3133 44.2958 46.5C43.8158 46.6867 43.4291 46.96 43.1358 47.32C42.8424 47.68 42.6291 48.12 42.4958 48.64C42.3624 49.1467 42.2958 49.7333 42.2958 50.4V55H40.5958V44.66ZM66.6423 53.22C66.0823 53.9667 65.389 54.5067 64.5623 54.84C63.7357 55.16 62.9023 55.32 62.0623 55.32C60.9957 55.32 60.0423 55.1267 59.2023 54.74C58.3623 54.34 57.649 53.8067 57.0623 53.14C56.4757 52.4733 56.029 51.7067 55.7223 50.84C55.4157 49.9733 55.2623 49.0733 55.2623 48.14C55.2623 47.1 55.4023 46.1133 55.6823 45.18C55.9757 44.2333 56.4023 43.4067 56.9623 42.7C57.5357 41.9933 58.2423 41.4333 59.0823 41.02C59.9357 40.5933 60.929 40.38 62.0623 40.38C62.8357 40.38 63.5623 40.4733 64.2423 40.66C64.9357 40.8333 65.549 41.1133 66.0823 41.5C66.629 41.8867 67.0823 42.38 67.4423 42.98C67.8157 43.5667 68.069 44.28 68.2023 45.12H66.3023C66.209 44.5733 66.0357 44.1067 65.7823 43.72C65.529 43.32 65.2157 42.9933 64.8423 42.74C64.469 42.4867 64.0423 42.3 63.5623 42.18C63.0957 42.0467 62.5957 41.98 62.0623 41.98C61.1957 41.98 60.449 42.1533 59.8223 42.5C59.209 42.8467 58.7023 43.3067 58.3023 43.88C57.9157 44.44 57.629 45.0867 57.4423 45.82C57.2557 46.54 57.1623 47.28 57.1623 48.04C57.1623 48.7867 57.269 49.5067 57.4823 50.2C57.6957 50.88 58.009 51.4867 58.4223 52.02C58.8357 52.54 59.3423 52.96 59.9423 53.28C60.5557 53.5867 61.2623 53.74 62.0623 53.74C62.809 53.74 63.469 53.62 64.0423 53.38C64.6157 53.14 65.0957 52.8133 65.4823 52.4C65.8823 51.9733 66.1823 51.48 66.3823 50.92C66.5823 50.3467 66.669 49.7333 66.6423 49.08H62.0823V47.48H68.3423V55H67.1423L66.6423 53.22ZM80.8181 55H79.2181V53.36H79.1781C78.8181 54 78.3581 54.4733 77.7981 54.78C77.2381 55.0733 76.5781 55.22 75.8181 55.22C75.1381 55.22 74.5715 55.1333 74.1181 54.96C73.6648 54.7733 73.2981 54.5133 73.0181 54.18C72.7381 53.8467 72.5381 53.4533 72.4181 53C72.3115 52.5333 72.2581 52.02 72.2581 51.46V44.66H73.9581V51.66C73.9581 52.3 74.1448 52.8067 74.5181 53.18C74.8915 53.5533 75.4048 53.74 76.0581 53.74C76.5781 53.74 77.0248 53.66 77.3981 53.5C77.7848 53.34 78.1048 53.1133 78.3581 52.82C78.6115 52.5267 78.7981 52.1867 78.9181 51.8C79.0515 51.4 79.1181 50.9667 79.1181 50.5V44.66H80.8181V55ZM86.5714 42.8H84.8714V40.72H86.5714V42.8ZM84.8714 44.66H86.5714V55H84.8714V44.66ZM91.845 49.92C91.845 50.4 91.905 50.8733 92.025 51.34C92.1583 51.7933 92.3517 52.2 92.605 52.56C92.8717 52.92 93.205 53.2067 93.605 53.42C94.0183 53.6333 94.4983 53.74 95.045 53.74C95.6183 53.74 96.105 53.6267 96.505 53.4C96.905 53.1733 97.2317 52.88 97.485 52.52C97.7383 52.1467 97.9183 51.7267 98.025 51.26C98.145 50.7933 98.205 50.32 98.205 49.84C98.205 49.3333 98.145 48.8467 98.025 48.38C97.905 47.9 97.7117 47.48 97.445 47.12C97.1917 46.76 96.8583 46.4733 96.445 46.26C96.0317 46.0333 95.5317 45.92 94.945 45.92C94.3717 45.92 93.885 46.0333 93.485 46.26C93.085 46.4867 92.765 46.7867 92.525 47.16C92.285 47.5333 92.1117 47.96 92.005 48.44C91.8983 48.92 91.845 49.4133 91.845 49.92ZM99.845 55H98.145V53.6H98.105C97.825 54.1733 97.385 54.5867 96.785 54.84C96.185 55.0933 95.525 55.22 94.805 55.22C94.005 55.22 93.305 55.0733 92.705 54.78C92.1183 54.4867 91.625 54.0933 91.225 53.6C90.8383 53.1067 90.545 52.5333 90.345 51.88C90.145 51.2267 90.045 50.5333 90.045 49.8C90.045 49.0667 90.1383 48.3733 90.325 47.72C90.525 47.0667 90.8183 46.5 91.205 46.02C91.605 45.5267 92.0983 45.14 92.685 44.86C93.285 44.5667 93.9783 44.42 94.765 44.42C95.0317 44.42 95.3183 44.4467 95.625 44.5C95.9317 44.5533 96.2383 44.6467 96.545 44.78C96.8517 44.9 97.1383 45.0667 97.405 45.28C97.685 45.48 97.9183 45.7333 98.105 46.04H98.145V40.72H99.845V55ZM111.04 48.84C111.014 48.44 110.92 48.06 110.76 47.7C110.614 47.34 110.407 47.0333 110.14 46.78C109.887 46.5133 109.58 46.3067 109.22 46.16C108.874 46 108.487 45.92 108.06 45.92C107.62 45.92 107.22 46 106.86 46.16C106.514 46.3067 106.214 46.5133 105.96 46.78C105.707 47.0467 105.507 47.36 105.36 47.72C105.214 48.0667 105.127 48.44 105.1 48.84H111.04ZM112.68 51.72C112.454 52.88 111.954 53.7533 111.18 54.34C110.407 54.9267 109.434 55.22 108.26 55.22C107.434 55.22 106.714 55.0867 106.1 54.82C105.5 54.5533 104.994 54.18 104.58 53.7C104.167 53.22 103.854 52.6467 103.64 51.98C103.44 51.3133 103.327 50.5867 103.3 49.8C103.3 49.0133 103.42 48.2933 103.66 47.64C103.9 46.9867 104.234 46.42 104.66 45.94C105.1 45.46 105.614 45.0867 106.2 44.82C106.8 44.5533 107.454 44.42 108.16 44.42C109.08 44.42 109.84 44.6133 110.44 45C111.054 45.3733 111.54 45.8533 111.9 46.44C112.274 47.0267 112.527 47.6667 112.66 48.36C112.807 49.0533 112.867 49.7133 112.84 50.34H105.1C105.087 50.7933 105.14 51.2267 105.26 51.64C105.38 52.04 105.574 52.4 105.84 52.72C106.107 53.0267 106.447 53.2733 106.86 53.46C107.274 53.6467 107.76 53.74 108.32 53.74C109.04 53.74 109.627 53.5733 110.08 53.24C110.547 52.9067 110.854 52.4 111 51.72H112.68Z" fill="black"/>
<path d="M4.44 16.92C4.72 17.06 5.04 17.24 5.32 17.4C5.44 17.46 5.46 17.54 5.38 17.66C5.12 18.08 4.84 18.66 4.84 19.22C4.84 20.86 6.68 21.66 9.96 21.66C12.3 21.66 14.2 21.44 15.7 21.08C15.88 21.04 15.94 21.06 15.98 21.22C16.04 21.44 16.12 21.94 16.16 22.26C16.18 22.42 16.1 22.48 15.9 22.52C14.34 22.84 12.58 23.04 9.84 23.04C5.94 23.04 3.62 21.86 3.62 19.28C3.62 18.42 3.94 17.66 4.44 16.92ZM5 9.46C6.34 9.76 8.08 9.92 10 9.92C11.44 9.92 13.04 9.86 14.42 9.74C14.6 9.72 14.68 9.78 14.7 9.92C14.74 10.18 14.76 10.46 14.76 10.82C14.76 11.04 14.68 11.1 14.48 11.12C12.8 11.36 10.96 12.28 9.3 13.4C9.12 13.54 8.92 13.56 8.74 13.44C8.5 13.26 8.24 13.12 7.92 13.04C9.18 12.18 10.32 11.54 11.36 11.04C10.7 11.1 9.82 11.12 9.2 11.12C7.9 11.12 6.36 11.02 5.14 10.76C5.02 10.74 4.96 10.68 4.96 10.48C4.96 10.22 4.98 9.8 5 9.46ZM14.42 7.88L15.14 7.36C15.22 7.3 15.28 7.3 15.36 7.36C16.16 7.92 17.04 8.9 17.62 9.78C17.68 9.86 17.66 9.94 17.58 10L17 10.48C16.9 10.56 16.8 10.54 16.74 10.44C16.16 9.46 15.32 8.52 14.42 7.88ZM16.18 6.54L16.82 6.04C16.9 5.98 16.96 5.96 17.04 6.02C17.84 6.64 18.74 7.52 19.32 8.36C19.38 8.46 19.36 8.52 19.26 8.6L18.72 9.08C18.64 9.16 18.56 9.16 18.48 9.04C17.98 8.22 17.12 7.24 16.18 6.54ZM31.4 12.54V13.32C31.4 13.46 31.38 13.48 31.24 13.48C31.12 13.48 30.6 13.44 28.86 13.44H28.24C29.12 15.06 30.18 16.52 31.38 17.74C31.18 17.96 31 18.2 30.84 18.52C30.76 18.68 30.72 18.74 30.66 18.74C30.6 18.74 30.54 18.68 30.44 18.56C29.54 17.46 28.6 15.92 27.88 14.28C27.9 19.58 28.04 23.98 28.04 24.28C28.04 24.42 28.02 24.44 27.88 24.44H26.88C26.74 24.44 26.72 24.42 26.72 24.28C26.72 23.98 26.88 19.48 26.9 14.3C25.86 17.02 24.62 18.92 23.12 20.84C23.02 20.98 22.94 21.04 22.88 21.04C22.82 21.04 22.76 20.98 22.7 20.82C22.58 20.5 22.36 20.2 22.16 20C23.74 18.32 25.24 16.22 26.46 13.44H25.06C23.34 13.44 22.8 13.48 22.68 13.48C22.54 13.48 22.54 13.46 22.54 13.32V12.54C22.54 12.4 22.54 12.38 22.68 12.38C22.8 12.38 23.34 12.42 25.06 12.42H26.8V9.26C25.88 9.52 24.9 9.76 23.9 9.96C23.5 10.02 23.5 10.02 23.32 9.68C23.18 9.44 23.04 9.26 22.84 9.08C25.2 8.72 27.82 7.88 29 7.32C29.44 7.1 29.62 7 29.9 6.74C30.24 6.98 30.54 7.22 30.76 7.44C30.9 7.58 30.94 7.66 30.94 7.78C30.94 7.9 30.84 7.94 30.62 7.96C30.38 7.98 30.1 8.08 29.76 8.22C29.24 8.44 28.64 8.66 27.98 8.88V12.42H28.86C30.6 12.42 31.12 12.38 31.24 12.38C31.38 12.38 31.4 12.4 31.4 12.54ZM37.7 21.88V9.28C37.7 8.08 37.68 7.5 37.56 6.84C38.04 6.86 38.5 6.9 38.9 6.96C39.04 6.98 39.14 7.06 39.14 7.14C39.14 7.28 39.08 7.38 39.02 7.52C38.92 7.74 38.92 8.12 38.92 9.26V19.08C38.92 20.18 38.94 21.32 38.94 22.1C38.94 22.94 38.8 23.36 38.36 23.66C37.9 23.98 37.5 24.06 35.62 24.06C35.24 24.06 35.24 24.06 35.12 23.64C35.04 23.28 34.88 22.98 34.7 22.72C35.38 22.82 35.92 22.84 36.68 22.84C37.44 22.84 37.7 22.7 37.7 21.88ZM32.94 16.4V11C32.94 9.62 32.94 8.98 32.8 8.28C33.26 8.3 33.7 8.34 34.1 8.4C34.24 8.42 34.3 8.48 34.3 8.58C34.3 8.68 34.24 8.78 34.2 8.9C34.12 9.14 34.12 9.5 34.12 10.96V16.4C34.12 18.14 34.16 18.86 34.16 18.98C34.16 19.12 34.14 19.14 34 19.14H33.06C32.92 19.14 32.9 19.12 32.9 18.98C32.9 18.86 32.94 18.14 32.94 16.4ZM48.86 7.56H57.36C59.38 7.56 60.1 7.52 60.22 7.52C60.36 7.52 60.38 7.54 60.38 7.68C60.38 7.78 60.34 8.74 60.34 10.82V19.7C60.34 20.62 60.36 21.54 60.36 22.38C60.36 23 60.2 23.44 59.78 23.76C59.4 24.04 58.9 24.16 57.3 24.16C56.88 24.16 56.88 24.16 56.8 23.76C56.74 23.42 56.62 23.12 56.44 22.84C57.12 22.9 57.56 22.92 58.42 22.92C58.92 22.92 59.12 22.66 59.12 22.12V17.9H53.52V20.28C53.52 22.54 53.56 23.48 53.56 23.6C53.56 23.74 53.54 23.76 53.4 23.76H52.44C52.3 23.76 52.28 23.74 52.28 23.6C52.28 23.48 52.32 22.54 52.32 20.28V17.9H46.96C46.68 20.8 46.02 22.26 44.92 23.86C44.8 24.02 44.76 24.1 44.68 24.1C44.62 24.1 44.54 24.04 44.4 23.9C44.12 23.68 43.84 23.52 43.56 23.4C45.16 21.38 45.9 19.32 45.9 13.82V10.82C45.9 8.74 45.86 7.78 45.86 7.68C45.86 7.54 45.88 7.52 46.02 7.52C46.14 7.52 46.84 7.56 48.86 7.56ZM59.12 12.2V8.66H53.52V12.2H59.12ZM59.12 16.82V13.28H53.52V16.82H59.12ZM52.32 16.82V13.28H47.12V13.82C47.12 14.96 47.08 15.96 47.04 16.82H52.32ZM52.32 12.2V8.66H47.12V12.2H52.32ZM82.5 11.36V12.08C82.5 12.22 82.48 12.24 82.34 12.24C82.24 12.24 81.58 12.2 79.64 12.2H78.32C77.74 13.14 77 13.92 76.1 14.54C77.92 15.04 79.74 15.64 81.74 16.38C81.88 16.42 81.9 16.46 81.74 16.68L81.4 17.14C81.22 17.4 81.2 17.4 81.04 17.34C79 16.5 77.02 15.8 75 15.22C72.94 16.28 70.3 16.82 67.12 17.08C66.76 17.1 66.74 17.12 66.6 16.78C66.48 16.48 66.34 16.28 66.16 16.1C69.56 15.92 71.88 15.48 73.54 14.82C72.54 14.58 71.52 14.36 70.48 14.18C70.26 14.4 70.06 14.58 69.88 14.74C69.78 14.82 69.68 14.86 69.44 14.78L68.9 14.6C68.68 14.52 68.68 14.44 68.78 14.36C69.1 14.1 69.48 13.76 69.76 13.46C70.16 13.04 70.54 12.62 70.88 12.2H68.9C66.96 12.2 66.3 12.24 66.2 12.24C66.04 12.24 66.02 12.22 66.02 12.08V11.36C66.02 11.22 66.04 11.2 66.2 11.2C66.3 11.2 66.96 11.24 68.9 11.24H71.62L71.98 10.74C72.26 10.32 72.58 9.76 72.72 9.34C73.16 9.44 73.48 9.54 73.8 9.66C73.94 9.72 74 9.78 74 9.9C74 9.98 73.88 10.08 73.76 10.16C73.62 10.24 73.42 10.48 73.2 10.82C73.1 10.96 73 11.12 72.9 11.24H79.64C81.58 11.24 82.24 11.2 82.34 11.2C82.48 11.2 82.5 11.22 82.5 11.36ZM77.06 12.2H72.2C71.82 12.7 71.48 13.1 71.14 13.46C72.4 13.68 73.6 13.92 74.8 14.22C75.76 13.64 76.46 12.96 77.06 12.2ZM79.84 19.2H75.42C77.5 20.96 79.62 21.92 83.22 22.86C83.02 23.06 82.82 23.32 82.68 23.6C82.5 23.96 82.48 23.96 82.1 23.84C78.88 22.86 76.48 21.62 74.56 19.62C74.56 22.1 74.64 23.88 74.64 24.24C74.64 24.38 74.62 24.38 74.48 24.38H73.54C73.4 24.38 73.38 24.38 73.38 24.24C73.38 23.88 73.46 22.2 73.48 19.66C71.58 21.68 69.12 22.92 66.2 23.88C65.82 24 65.78 24.02 65.6 23.66C65.46 23.38 65.28 23.16 65.08 22.98C68.36 22.08 70.66 21.02 72.58 19.2H68.46C66.56 19.2 65.92 19.24 65.82 19.24C65.66 19.24 65.64 19.22 65.64 19.08V18.32C65.64 18.18 65.66 18.16 65.82 18.16C65.92 18.16 66.56 18.2 68.46 18.2H73.44V18.14C73.44 17.5 73.44 17.08 73.3 16.3C73.78 16.32 74.18 16.36 74.56 16.4C74.72 16.42 74.82 16.5 74.82 16.56C74.82 16.74 74.74 16.86 74.7 17C74.64 17.24 74.6 17.62 74.6 18.1V18.2H79.84C81.74 18.2 82.4 18.16 82.5 18.16C82.64 18.16 82.66 18.18 82.66 18.32V19.08C82.66 19.22 82.64 19.24 82.5 19.24C82.4 19.24 81.74 19.2 79.84 19.2ZM82.18 8.8V9.16C82.18 9.9 82.22 10.22 82.22 10.32C82.22 10.44 82.2 10.46 82.06 10.46H81.14C81 10.46 80.98 10.44 80.98 10.32V8.96H67.4V10.32C67.4 10.44 67.38 10.46 67.24 10.46H66.32C66.18 10.46 66.16 10.44 66.16 10.32C66.16 10.22 66.2 9.9 66.2 9.16V8.84C66.2 8.52 66.16 8.2 66.16 8.08C66.16 7.94 66.18 7.92 66.32 7.92C66.44 7.92 67.14 7.96 69.1 7.96H73.44V7.86C73.44 7.34 73.42 6.8 73.3 6.34C73.74 6.34 74.22 6.36 74.62 6.42C74.76 6.44 74.86 6.5 74.86 6.58C74.86 6.72 74.8 6.82 74.74 6.96C74.66 7.14 74.64 7.46 74.64 7.9V7.96H79.28C81.24 7.96 81.94 7.92 82.06 7.92C82.2 7.92 82.22 7.94 82.22 8.08C82.22 8.2 82.18 8.52 82.18 8.8ZM103.28 13.42V19C103.28 20.6 103.32 21.56 103.32 22.2C103.32 22.8 103.18 23.22 102.8 23.52C102.48 23.78 101.92 23.9 100.24 23.9C99.86 23.9 99.84 23.9 99.74 23.5C99.66 23.14 99.52 22.8 99.34 22.56C99.98 22.62 100.76 22.66 101.16 22.66C101.86 22.64 102.06 22.48 102.06 21.9V11.26H96.06C97.12 14.72 98.84 16.66 101.76 18.3C101.48 18.5 101.24 18.72 101.06 19C100.94 19.18 100.88 19.26 100.8 19.26C100.72 19.26 100.64 19.2 100.5 19.1C98.18 17.56 96.6 15.72 95.62 12.86C95.52 13.24 95.4 13.62 95.26 13.94C94.48 15.88 93.38 17.56 90.74 19.2C90.6 19.3 90.52 19.36 90.46 19.36C90.38 19.36 90.32 19.28 90.2 19.12C89.98 18.82 89.78 18.62 89.52 18.44C92.22 17 93.4 15.36 94.14 13.58C94.42 12.92 94.6 12.12 94.72 11.26H89.28V20.96C89.28 22.96 89.32 23.8 89.32 23.9C89.32 24.04 89.3 24.06 89.16 24.06H88.18C88.04 24.06 88.02 24.04 88.02 23.9C88.02 23.8 88.06 22.98 88.06 20.86V13.34C88.06 11.22 88.02 10.36 88.02 10.26C88.02 10.12 88.04 10.1 88.18 10.1C88.3 10.1 88.98 10.14 90.98 10.14H94.84C94.88 9.52 94.9 8.9 94.9 8.28C94.9 7.62 94.88 6.88 94.78 6.3C95.22 6.32 95.68 6.36 96.12 6.42C96.28 6.44 96.34 6.52 96.34 6.62C96.34 6.74 96.28 6.86 96.24 7C96.18 7.2 96.14 7.6 96.12 8.5C96.12 8.98 96.1 9.56 96.04 10.14H100.36C102.36 10.14 103.06 10.1 103.16 10.1C103.3 10.1 103.32 10.12 103.32 10.26C103.32 10.36 103.28 11.3 103.28 13.42Z" fill="black"/>
</svg>
