<?xml version="1.0" encoding="UTF-8"?>
<svg id="_レイヤー_2" data-name="レイヤー 2" xmlns="http://www.w3.org/2000/svg" viewBox="0 0 316.07 435.14">
  <defs>
    <style>
      .cls-1 {
        fill: #e0d3ad;
      }
    </style>
  </defs>
  <g id="_レイヤー_1-2" data-name="レイヤー 1">
    <g>
      <path class="cls-1" d="M57,363v18l-7.99-4-9,28.99c10.11-2.97,13.41-.72,19.6,6.39,2.34,2.69,2.41,2.25,4.13,3.86,1.42,1.33.27,4.83.56,5.54,1,2.45,10.98,6.28,4.7,13.2,7.16,1.16,12.39-4.6,18.31-7.18,4.36-1.89,13.15-5.89,17.42-6.57,10.48-1.68,20.35,4.08,30.96-2.04,5.05-2.91,4.82-6.22,7.88-10.12,15.8-20.12,79.73-38.32,104.47-52.52,5.18-2.97,9.69-7.01,8.94-13.56-2.29-1.42-4.72,4.68-5.52,2s-.04-9.14-.58-12.4c-3.06-18.69-14.62-16.82-20.75-27.25-4.05-6.88-6.5-29.04-13.55-32.45-1.97-.95-5.42-1.26-7.87-2.13-2-.71-2.4-3.53-5.71-1.78.5-11.07,7.5-23.29,5.75-34.27-.65-4.07-3.68-8.83-3.79-13.28-.12-4.75,2.71-10.31,3.03-14.98.17-2.46-1.01-7.24-.85-7.9.13-.5,4.15-5.47,5.63-8.3.71-1.37,3.01-3.18,3.12-3.92.23-1.44-4.14-3.97.05-7.91,3.5-3.29,6.12.03,7.84-.65,1.22-.48,4.17-7.41,6.2-8.31l-5.99-1.99c4.75-2.74,15.31-7.08,18.04-11.96,1.27-2.26.85-4.56,2.1-6.9,2.25-4.23,14.88-23.16,17.82-25.9,2.16-2.01,5.53-2.57,7.97-4.31,5.25-3.76,19.48-28.64,20.05-34.94.51-5.65-2.26-16.94,3.07-20.94s6.21-3.56,10.26-9.8c2.75-4.25,12.92-22.31,12.76-26.23-.22-5.44-7.31-9.09-8.13-14.52-4.54,2.5-4.78-2.93-8.94-.99,1.13-5.36-8.75-12.16-13.28-10.84-3.17.92-10.41,14.67-12.89,18.16-7.1,9.98-29.12,39.52-38.88,44.12-2.23,1.05-5.8.56-7.65,1.86-4.82,3.37-7.67,10.1-15.62,13.88-9.02,4.28-19.33,1.37-24.23,9.77-9.35,16.01-15.44,36.73-24.97,53.03-2.27.45-10.97,5.61-12,5.67-1.48.09-6.08-2.23-9.27-.42-.51.29-.82,2.14-1.63,2.81-2.91,2.41-6.23,4.43-8.57,7.47-2.54,3.29-2.99,7.77-7.32,9.75-1.12.51-2.53-.3-2.61-.2-.53.68-2.49,12.53-3.35,15.18-2.56,7.87-7.43,14.9-9.74,22.77l-3.98-3c.05,1.37-.06,2.69-.51,4-1.57,4.57-6.54,20.44-8.43,23.32-1.48,2.25-6.61,1.6-9.07,1.69l-2.1,11.9-3.91.1c5.21,3.93.13,12.1-2.14,17.35s-12.25,21.16-12.72,24.39,3.7,3.81,2.86,7.25c-5.69.8-7.68-1.83-11.48-4.99-3.25,3.56-1.04,6.79-7.49,8.53-8.48,2.29-8.56-5.79-16.42-2.58l-2.1-3.93c-6.98,1.29-4.89,8.81-7.92,11.08-1.93,1.45-5.91.64-8.28,3.21-5.25,5.71-1.46,20.37-13.31,20.7,8.75,5.38,7.9,17,6,25.98,2.86-.96,6.94-1.25,8.92,1.59.78,1.12,2.02,12.05,2.04,14.07.04,4.84-11.93,10.1-11.96,16.34,3.68-.73,4.97-4.42,8.62-5.92,2.62-1.07,4.27-.23,5.41-.66.94-.36,1.46-2.04,3.51-2.42,1.63-.3,12.52.96,14.54,1.44,2.68.64,3.82,2.17,5.91,3.56l2.07-2.57-2.59-6.44,14.54-4.98Z"/>
      <path class="cls-1" d="M57,363l-14.54,4.98,2.59,6.44-2.07,2.57c-2.09-1.39-3.22-2.92-5.91-3.56-2.02-.48-12.9-1.75-14.54-1.44-2.04.38-2.57,2.07-3.51,2.42-1.13.43-2.79-.41-5.41.66-3.65,1.5-4.94,5.19-8.62,5.92.02-6.24,12-11.51,11.96-16.34-.02-2.02-1.26-12.95-2.04-14.07-1.98-2.84-6.07-2.54-8.92-1.59,1.9-8.98,2.75-20.6-6-25.98,11.85-.34,8.06-14.99,13.31-20.7,2.37-2.58,6.35-1.76,8.28-3.21,3.03-2.28.94-9.8,7.92-11.08l2.1,3.93c7.86-3.21,7.94,4.87,16.42,2.58,6.45-1.74,4.24-4.97,7.49-8.53,3.79,3.16,5.79,5.79,11.48,4.99.84-3.44-3.32-4.08-2.86-7.25s10.5-19.26,12.72-24.39,7.35-13.42,2.14-17.35l3.91-.1,2.1-11.9c2.45-.09,7.58.56,9.07-1.69,1.89-2.87,6.86-18.75,8.43-23.32.45-1.31.56-2.63.51-4l3.98,3c2.31-7.86,7.18-14.9,9.74-22.77.86-2.65,2.82-14.5,3.35-15.18.08-.1,1.49.71,2.61.2,4.33-1.98,4.78-6.46,7.32-9.75,2.35-3.04,5.67-5.06,8.57-7.47.81-.67,1.12-2.52,1.63-2.81,3.18-1.81,7.79.51,9.27.42,1.02-.06,9.72-5.22,12-5.67,9.53-16.29,15.62-37.02,24.97-53.03,4.9-8.4,15.22-5.48,24.23-9.77,7.95-3.78,10.79-10.51,15.62-13.88,1.86-1.3,5.42-.8,7.65-1.86,9.76-4.6,31.78-34.14,38.88-44.12,2.48-3.49,9.72-17.24,12.89-18.16,4.54-1.32,14.42,5.48,13.28,10.84,4.16-1.94,4.4,3.49,8.94.99.82,5.42,7.91,9.07,8.13,14.52.16,3.92-10.01,21.98-12.76,26.23-4.05,6.24-5.13,5.95-10.26,9.8s-2.57,15.29-3.07,20.94c-.56,6.3-14.79,31.19-20.05,34.94-2.44,1.75-5.81,2.3-7.97,4.31-2.94,2.74-15.57,21.67-17.82,25.9-1.25,2.34-.83,4.64-2.1,6.9-2.73,4.87-13.29,9.22-18.04,11.96l5.99,1.99c-2.04.9-4.99,7.83-6.2,8.31-1.72.67-4.34-2.64-7.84.65-4.19,3.94.18,6.47-.05,7.91-.12.75-2.41,2.55-3.12,3.92-1.48,2.83-5.5,7.8-5.63,8.3-.17.66,1.02,5.44.85,7.9-.33,4.67-3.15,10.23-3.03,14.98.11,4.45,3.14,9.2,3.79,13.28,1.74,10.98-5.25,23.19-5.75,34.27,3.31-1.75,3.71,1.07,5.71,1.78,2.46.87,5.9,1.18,7.87,2.13,7.06,3.4,9.51,25.57,13.55,32.45,6.13,10.43,17.69,8.56,20.75,27.25.53,3.26-.21,9.77.58,12.4s3.23-3.42,5.52-2c.75,6.54-3.76,10.58-8.94,13.56-24.74,14.2-88.67,32.4-104.47,52.52-3.06,3.9-2.83,7.2-7.88,10.12-10.61,6.12-20.48.36-30.96,2.04-4.27.68-13.07,4.68-17.42,6.57-5.93,2.57-11.16,8.33-18.31,7.18,6.28-6.92-3.7-10.75-4.7-13.2-.29-.71.86-4.21-.56-5.54-1.72-1.6-1.79-1.17-4.13-3.86-6.19-7.11-9.5-9.36-19.6-6.39l9-28.99,7.99,4v-18Z"/>
    </g>
  </g>
</svg>