<svg width="211" height="138" viewBox="0 0 211 138" fill="none" xmlns="http://www.w3.org/2000/svg">
<path d="M63.704 86.328C63.704 90.3813 62.232 93.624 59.288 96.056C56.3867 98.4453 52.248 99.64 46.872 99.64C42.0507 99.64 37.7413 98.7227 33.944 96.888V87.864C36.12 88.8027 38.36 89.6773 40.664 90.488C43.0107 91.256 45.336 91.64 47.64 91.64C50.0293 91.64 51.7147 91.192 52.696 90.296C53.72 89.3573 54.232 88.184 54.232 86.776C54.232 85.624 53.8267 84.6427 53.016 83.832C52.248 83.0213 51.2027 82.2747 49.88 81.592C48.5573 80.8667 47.0427 80.0987 45.336 79.288C44.2693 78.776 43.1173 78.1787 41.88 77.496C40.6427 76.7707 39.448 75.896 38.296 74.872C37.1867 73.8053 36.2693 72.5253 35.544 71.032C34.8187 69.5387 34.456 67.7467 34.456 65.656C34.456 61.56 35.8427 58.3813 38.616 56.12C41.3893 53.816 45.1653 52.664 49.944 52.664C52.3333 52.664 54.5947 52.9413 56.728 53.496C58.8613 54.0507 61.1227 54.84 63.512 55.864L60.376 63.416C58.2853 62.5627 56.408 61.9013 54.744 61.432C53.08 60.9627 51.3733 60.728 49.624 60.728C47.7893 60.728 46.3813 61.1547 45.4 62.008C44.4187 62.8613 43.928 63.9707 43.928 65.336C43.928 66.9573 44.6533 68.2373 46.104 69.176C47.5547 70.1147 49.7093 71.2667 52.568 72.632C54.9147 73.7413 56.8987 74.8933 58.52 76.088C60.184 77.2827 61.464 78.6907 62.36 80.312C63.256 81.9333 63.704 83.9387 63.704 86.328Z" fill="black"/>
<path d="M112.156 79.0312V83.625H96.9375V79.0312H112.156Z" fill="black"/>
<path d="M186.2 99H176.536V79.288H158.424V99H148.76V53.304H158.424V71.224H176.536V53.304H186.2V99Z" fill="black"/>
<g clip-path="url(#clip0_12_4496)">
<path d="M210.256 135.234H0.744324V49.1353C19.1092 30.2477 29.4106 19.6531 47.7755 0.765503H210.256V135.234Z" stroke="#1A1A1A" stroke-width="3" stroke-miterlimit="10"/>
</g>
<defs>
<clipPath id="clip0_12_4496">
<rect width="211" height="136" fill="white"/>
</clipPath>
</defs>
</svg>
