<svg width="243" height="144" viewBox="0 0 243 144" fill="none" xmlns="http://www.w3.org/2000/svg">
<path d="M26.632 73.28H7.336C4.456 73.28 3.464 73.344 3.272 73.344C2.952 73.344 2.92 73.312 2.92 73.024V69.92C2.92 69.632 2.952 69.6 3.272 69.6C3.464 69.6 4.456 69.664 7.336 69.664H26.632C29.512 69.664 30.504 69.6 30.696 69.6C31.016 69.6 31.048 69.632 31.048 69.92V73.024C31.048 73.312 31.016 73.344 30.696 73.344C30.504 73.344 29.512 73.28 26.632 73.28ZM55.816 81.376V82.496C55.816 82.976 55.912 83.264 56.424 83.36C56.872 83.424 57.736 83.456 59.048 83.456C60.648 83.456 61.64 83.392 62.216 83.04C62.76 82.72 62.92 82.368 62.984 80.448C63.56 80.864 64.36 81.216 65.16 81.408C65.992 81.632 65.992 81.696 65.864 82.56C65.608 84.256 65.192 84.832 64.456 85.376C63.496 86.08 61.736 86.24 59.08 86.24C56.232 86.24 54.44 86.112 53.608 85.76C52.84 85.472 52.424 84.992 52.424 83.68V81.376H49.672C47.816 85.088 44.36 86.176 39.72 86.56C38.728 86.656 38.728 86.624 38.312 85.696C38.024 85.056 37.608 84.416 37.128 83.872C41.128 83.776 44.296 83.36 45.896 81.376C42.984 81.376 41.896 81.44 41.704 81.44C41.384 81.44 41.352 81.408 41.352 81.056C41.352 80.864 41.416 80.096 41.416 78.208V73.6C41.416 71.712 41.352 70.944 41.352 70.72C41.352 70.4 41.384 70.368 41.704 70.368C41.896 70.368 43.016 70.432 46.12 70.432H56.488C59.56 70.432 60.68 70.368 60.872 70.368C61.224 70.368 61.256 70.4 61.256 70.72C61.256 70.912 61.192 71.712 61.192 73.6V78.208C61.192 80.096 61.256 80.864 61.256 81.056C61.256 81.408 61.224 81.44 60.872 81.44C60.68 81.44 59.56 81.376 56.488 81.376H55.816ZM58.088 79.456V78.208H44.488V79.456H58.088ZM58.088 72.416H44.488V73.632H58.088V72.416ZM44.488 76.544H58.088V75.328H44.488V76.544ZM46.92 67.264H47.944C50.12 67.264 50.824 67.2 51.016 67.2C51.336 67.2 51.368 67.232 51.368 67.552V69.024C51.368 69.344 51.336 69.376 51.016 69.376C50.824 69.376 50.12 69.312 47.944 69.312H42.696C40.008 69.312 38.728 69.376 38.536 69.376C38.216 69.376 38.184 69.344 38.184 69.024C38.184 68.832 38.248 67.872 38.248 65.888V61.76C38.248 59.744 38.184 58.784 38.184 58.592C38.184 58.272 38.216 58.24 38.536 58.24C38.728 58.24 40.008 58.304 42.696 58.304H47.304C49.928 58.304 50.728 58.24 50.92 58.24C51.24 58.24 51.272 58.272 51.272 58.592V60.096C51.272 60.416 51.24 60.448 50.92 60.448C50.728 60.448 49.928 60.384 47.304 60.384H46.92V61.632C48.84 61.632 49.736 61.6 49.928 61.6C50.216 61.6 50.248 61.632 50.248 61.952C50.248 62.144 50.184 62.496 50.184 63.392V64.256C50.184 65.152 50.248 65.504 50.248 65.696C50.248 66.016 50.216 66.048 49.928 66.048C49.736 66.048 48.84 66.016 46.92 66.016V67.264ZM47.304 64.448V63.2H41.16V64.448H47.304ZM41.16 60.384V61.632H44.232V60.384H41.16ZM41.16 67.264H44.232V66.016H41.16V67.264ZM60.936 62.912H55.24C54.632 63.712 53.96 64.48 53.192 65.216C52.84 65.536 52.648 65.728 52.488 65.728C52.296 65.728 52.104 65.536 51.784 65.088C51.368 64.544 50.888 64.128 50.408 63.84C52.104 62.336 53.256 60.864 54.28 58.944C54.632 58.304 54.824 57.76 54.952 57.152C55.88 57.344 56.68 57.568 57.544 57.792C57.928 57.888 58.12 58.048 58.12 58.24C58.12 58.432 58.024 58.528 57.832 58.72C57.608 58.912 57.416 59.2 57.096 59.84L56.904 60.224H60.936C63.816 60.224 64.808 60.16 65 60.16C65.352 60.16 65.384 60.192 65.384 60.512V62.592C65.384 62.944 65.352 62.976 65 62.976C64.808 62.976 63.816 62.912 60.936 62.912ZM60.712 68.32H57.224C55.016 68.32 54.312 68.384 54.12 68.384C53.8 68.384 53.768 68.352 53.768 68.032V65.92C53.768 65.6 53.8 65.568 54.12 65.568C54.312 65.568 55.016 65.632 57.224 65.632H60.712C62.92 65.632 63.624 65.568 63.816 65.568C64.136 65.568 64.168 65.6 64.168 65.92V68.032C64.168 68.352 64.136 68.384 63.816 68.384C63.624 68.384 62.92 68.32 60.712 68.32ZM80.904 73.312H75.464C72.616 73.312 71.688 73.376 71.464 73.376C71.176 73.376 71.144 73.344 71.144 73.024V70.784C71.144 70.464 71.176 70.432 71.464 70.432C71.688 70.432 72.616 70.496 75.464 70.496H83.528V68.16H79.368C76.264 68.16 75.176 68.224 74.984 68.224C74.632 68.224 74.6 68.192 74.6 67.872V65.728C74.6 65.408 74.632 65.376 74.984 65.376C75.176 65.376 76.264 65.44 79.368 65.44H83.528V63.296H77.928C74.856 63.296 73.832 63.36 73.64 63.36C73.288 63.36 73.256 63.328 73.256 63.008V60.8C73.256 60.48 73.288 60.448 73.64 60.448C73.832 60.448 74.856 60.512 77.928 60.512H83.528V60.192C83.528 58.88 83.464 58.048 83.272 57.152C84.424 57.184 85.672 57.248 86.792 57.376C87.112 57.408 87.272 57.568 87.272 57.696C87.272 57.952 87.208 58.144 87.112 58.4C86.92 58.72 86.888 59.136 86.888 60.16V60.512H93.032C96.136 60.512 97.16 60.448 97.352 60.448C97.672 60.448 97.704 60.48 97.704 60.8V63.008C97.704 63.328 97.672 63.36 97.352 63.36C97.16 63.36 96.136 63.296 93.032 63.296H86.888V65.44H91.688C94.824 65.44 95.912 65.376 96.104 65.376C96.424 65.376 96.456 65.408 96.456 65.728V67.872C96.456 68.192 96.424 68.224 96.104 68.224C95.912 68.224 94.824 68.16 91.688 68.16H86.888V70.496H95.496C98.344 70.496 99.304 70.432 99.496 70.432C99.816 70.432 99.816 70.464 99.816 70.784V73.024C99.816 73.344 99.816 73.376 99.496 73.376C99.304 73.376 98.344 73.312 95.496 73.312H88.616C89.224 74.752 90.056 76.128 91.08 77.344C92.104 76.576 93 75.84 93.864 74.88C94.248 74.496 94.568 74.08 94.856 73.536C95.848 74.112 96.648 74.624 97.384 75.232C97.544 75.36 97.704 75.552 97.704 75.712C97.704 75.968 97.576 76.096 97.288 76.192C97.032 76.256 96.744 76.416 96.232 76.832C95.24 77.696 94.248 78.496 93.032 79.328C95.048 81.024 97.544 82.336 100.488 83.072C99.912 83.616 99.304 84.352 98.792 85.312C98.504 85.856 98.376 86.048 98.12 86.048C97.96 86.048 97.736 85.952 97.352 85.824C91.24 83.232 87.304 78.912 85.416 73.312H85.032C84.264 74.144 83.4 74.944 82.472 75.712V82.304C84.648 81.888 86.824 81.376 89.224 80.736C89.096 81.344 89.064 81.952 89.064 82.624C89.032 83.616 89.032 83.616 88.04 83.872C84.104 84.896 80.392 85.632 77.416 86.144C76.776 86.24 76.36 86.336 76.2 86.464C76.008 86.592 75.88 86.656 75.688 86.656C75.464 86.656 75.272 86.56 75.176 86.208C74.888 85.28 74.6 84.256 74.408 83.296C75.656 83.232 76.872 83.136 78.216 82.976L79.24 82.848V77.984C77.384 79.104 75.4 80.064 73.416 80.8C73.064 80.928 72.84 80.992 72.68 80.992C72.392 80.992 72.264 80.768 71.976 80.192C71.592 79.456 71.112 78.88 70.632 78.4C74.376 77.44 78.408 75.52 80.904 73.312ZM118.056 70.112H110.056C107.208 70.112 106.216 70.176 106.024 70.176C105.704 70.176 105.672 70.144 105.672 69.824V67.168C105.672 66.848 105.704 66.816 106.024 66.816C106.216 66.816 107.208 66.88 110.056 66.88H129.448C132.296 66.88 133.288 66.816 133.48 66.816C133.8 66.816 133.832 66.848 133.832 67.168V69.824C133.832 70.144 133.8 70.176 133.48 70.176C133.288 70.176 132.296 70.112 129.448 70.112H121.544V77.92C121.544 79.424 121.64 81.184 121.64 82.368C121.64 83.808 121.416 84.512 120.616 85.184C119.912 85.76 118.76 86.016 115.752 86.016C114.76 86.048 114.76 86.016 114.504 84.992C114.248 84 113.928 83.072 113.544 82.4C114.728 82.528 115.592 82.592 116.616 82.592C117.704 82.592 118.056 82.208 118.056 81.408V70.112ZM125.928 62.464H113.64C110.504 62.464 109.416 62.528 109.224 62.528C108.904 62.528 108.872 62.496 108.872 62.176V59.52C108.872 59.2 108.904 59.168 109.224 59.168C109.416 59.168 110.504 59.232 113.64 59.232H125.928C129.064 59.232 130.152 59.168 130.344 59.168C130.664 59.168 130.696 59.2 130.696 59.52V62.176C130.696 62.496 130.664 62.528 130.344 62.528C130.152 62.528 129.064 62.464 125.928 62.464ZM104.936 81.216C107.144 79.488 109.032 77.184 110.056 75.104C110.472 74.24 110.792 73.312 110.888 72.544C111.912 72.8 113.192 73.28 113.992 73.6C114.28 73.728 114.472 73.92 114.472 74.144C114.472 74.368 114.28 74.56 114.088 74.752C113.864 74.976 113.576 75.552 113.352 76C112.264 78.176 110.568 80.672 108.552 82.752C108.2 83.104 108.008 83.264 107.784 83.264C107.592 83.264 107.368 83.104 106.984 82.72C106.344 82.144 105.576 81.536 104.936 81.216ZM125.64 73.472L127.624 72.64C128.008 72.448 128.072 72.48 128.232 72.8C129.768 75.84 131.88 78.464 134.568 80.576C133.992 80.992 133.224 81.728 132.584 82.464C132.2 82.912 132.04 83.104 131.848 83.104C131.688 83.104 131.496 82.944 131.176 82.592C128.872 80.224 126.792 77.248 125.288 74.048C125.16 73.728 125.224 73.664 125.64 73.472Z" fill="black"/>
<path d="M5.824 29.92H11.632L8.776 21.928H8.728L5.824 29.92ZM7.528 19.864H10.048L16.744 37H14.224L12.352 31.84H5.104L3.184 37H0.856L7.528 19.864ZM21.0985 19.864H23.1385V37H21.0985V19.864ZM29.2988 19.864H31.3388V37H29.2988V19.864Z" fill="black"/>
<g clip-path="url(#clip0_11_4448)">
<path d="M107.876 37.6455C119.289 17.0256 140.641 2.43434 165.951 0.71326C205.554 -1.97984 239.843 27.862 242.542 67.3721C245.242 106.882 215.329 141.09 175.726 143.783C147.449 145.706 121.873 131.037 108.578 108.104" stroke="black" stroke-miterlimit="10"/>
</g>
<defs>
<clipPath id="clip0_11_4448">
<rect width="137" height="144" fill="white" transform="translate(106)"/>
</clipPath>
</defs>
</svg>
