<svg width="231" height="144" viewBox="0 0 231 144" fill="none" xmlns="http://www.w3.org/2000/svg">
<path d="M8.928 65.136L12 65.736C10.176 68.328 7.728 70.488 4.032 72.192C3.648 71.52 2.76 70.512 2.136 70.056C5.52 68.76 7.728 66.936 8.928 65.136ZM9.6 66.744H16.776V68.904H7.632L9.6 66.744ZM15.912 66.744H16.464L16.944 66.624L18.888 67.776C15.72 73.08 8.928 75.96 2.016 77.304C1.752 76.56 1.152 75.384 0.648 74.76C7.08 73.776 13.512 71.184 15.912 67.152V66.744ZM8.448 68.376C11.232 71.496 16.824 73.416 23.304 74.04C22.656 74.712 21.864 76.008 21.456 76.824C14.856 75.912 9.384 73.56 5.952 69.48L8.448 68.376ZM5.208 75.648H19.008V83.112H16.056V78H8.016V83.16H5.208V75.648ZM6.624 80.064H17.496V82.416H6.624V80.064ZM10.44 60.648H13.416V64.056H10.44V60.648ZM1.656 62.592H22.344V67.896H19.392V65.184H4.464V67.896H1.656V62.592ZM37.32 73.44H40.296V80.952H37.32V73.44ZM31.008 66.504H46.824V68.976H31.008V66.504ZM28.248 79.968H49.608V82.512H28.248V79.968ZM30.384 75.648H47.712V78.12H30.384V75.648ZM34.848 67.92L37.92 68.664C36.984 70.272 35.928 71.928 35.112 73.056L32.736 72.336C33.48 71.112 34.368 69.264 34.848 67.92ZM29.952 71.256C33.984 71.232 40.2 71.088 45.936 70.968L45.792 73.368C40.152 73.584 34.128 73.728 30.072 73.824L29.952 71.256ZM41.232 69.984L43.32 68.592C45.144 69.888 47.496 71.808 48.6 73.2L46.344 74.736C45.336 73.392 43.08 71.376 41.232 69.984ZM37.32 60.648H40.296V63.984H37.32V60.648ZM28.32 62.184H49.488V67.2H46.536V64.8H31.128V67.2H28.32V62.184ZM64.296 60.648H67.176V63.84H64.296V60.648ZM64.224 73.728H67.128V83.136H64.224V73.728ZM55.464 62.232H76.104V65.928H73.32V64.608H58.128V65.928H55.464V62.232ZM55.296 66.384H76.272V68.64H55.296V66.384ZM54.84 75.384H76.704V77.76H54.84V75.384ZM63.144 64.464L65.832 65.256C64.272 67.416 62.28 69.96 60.888 71.616L58.152 70.872C59.664 69.192 61.704 66.528 63.144 64.464ZM60.096 70.992L61.68 69.288C65.904 70.032 71.952 71.592 75.24 72.864L73.536 74.88C70.536 73.608 64.536 71.904 60.096 70.992ZM63.504 76.752L65.64 77.688C63.432 80.112 59.712 82.032 56.04 82.92C55.656 82.248 54.84 81.144 54.264 80.592C57.84 79.968 61.608 78.528 63.504 76.752ZM67.824 76.68C69.84 78.432 73.704 79.872 77.352 80.472C76.728 81.072 75.912 82.176 75.528 82.896C71.856 82.008 68.04 80.064 65.76 77.592L67.824 76.68ZM69.384 67.728H72.408C70.872 72.072 67.584 74.064 56.832 74.808C56.736 74.136 56.28 73.152 55.896 72.576C65.856 72.072 68.208 70.632 69.384 67.728ZM91.104 71.304L93.288 69.72C95.424 71.64 98.328 74.376 99.744 76.176L97.344 78.024C96.072 76.224 93.264 73.344 91.104 71.304ZM91.176 60.624H94.128V66.384C94.128 70.368 93.12 75.288 87.648 78.552C87.24 77.928 86.256 76.872 85.584 76.368C90.768 73.704 91.176 69.504 91.176 66.36V60.624ZM82.752 64.608H100.992V67.44H85.632V83.208H82.752V64.608ZM99.72 64.608H102.576V79.872C102.576 81.432 102.24 82.224 101.256 82.704C100.248 83.16 98.712 83.184 96.576 83.184C96.48 82.392 96.024 81.072 95.64 80.328C97.056 80.4 98.664 80.4 99.12 80.4C99.576 80.376 99.72 80.232 99.72 79.824V64.608Z" fill="black"/>
<path d="M1.56 26.72H8.28C9.64 26.72 10.7 27.0533 11.46 27.72C12.2333 28.3867 12.62 29.3 12.62 30.46C12.62 31.3267 12.42 32.0867 12.02 32.74C11.6333 33.3933 11.0067 33.84 10.14 34.08V34.12C10.5533 34.2 10.8867 34.3333 11.14 34.52C11.4067 34.7067 11.6133 34.9333 11.76 35.2C11.92 35.4533 12.0333 35.74 12.1 36.06C12.18 36.38 12.24 36.7133 12.28 37.06C12.3067 37.4067 12.3267 37.76 12.34 38.12C12.3533 38.48 12.3867 38.8333 12.44 39.18C12.4933 39.5267 12.5667 39.86 12.66 40.18C12.7667 40.4867 12.92 40.76 13.12 41H11C10.8667 40.8533 10.7733 40.6533 10.72 40.4C10.68 40.1467 10.6533 39.8667 10.64 39.56C10.6267 39.24 10.6133 38.9 10.6 38.54C10.5867 38.18 10.5467 37.8267 10.48 37.48C10.4267 37.1333 10.36 36.8067 10.28 36.5C10.2 36.18 10.0733 35.9067 9.9 35.68C9.72667 35.44 9.5 35.2533 9.22 35.12C8.94 34.9733 8.56667 34.9 8.1 34.9H3.46V41H1.56V26.72ZM7.42 33.3C7.86 33.3 8.28 33.2667 8.68 33.2C9.08 33.1333 9.42667 33.0067 9.72 32.82C10.0267 32.62 10.2667 32.36 10.44 32.04C10.6267 31.7067 10.72 31.28 10.72 30.76C10.72 30.04 10.52 29.4533 10.12 29C9.72 28.5467 9.07333 28.32 8.18 28.32H3.46V33.3H7.42ZM18.6114 35.84C18.6114 36.4667 18.6914 37.0267 18.8514 37.52C19.0247 38 19.2581 38.4067 19.5514 38.74C19.8447 39.06 20.1847 39.3067 20.5714 39.48C20.9714 39.6533 21.3914 39.74 21.8314 39.74C22.2714 39.74 22.6847 39.6533 23.0714 39.48C23.4714 39.3067 23.8181 39.06 24.1114 38.74C24.4047 38.4067 24.6314 38 24.7914 37.52C24.9647 37.0267 25.0514 36.4667 25.0514 35.84C25.0514 35.2133 24.9647 34.66 24.7914 34.18C24.6314 33.6867 24.4047 33.2733 24.1114 32.94C23.8181 32.6067 23.4714 32.3533 23.0714 32.18C22.6847 32.0067 22.2714 31.92 21.8314 31.92C21.3914 31.92 20.9714 32.0067 20.5714 32.18C20.1847 32.3533 19.8447 32.6067 19.5514 32.94C19.2581 33.2733 19.0247 33.6867 18.8514 34.18C18.6914 34.66 18.6114 35.2133 18.6114 35.84ZM16.8114 35.84C16.8114 35.08 16.9181 34.3733 17.1314 33.72C17.3447 33.0533 17.6647 32.48 18.0914 32C18.5181 31.5067 19.0447 31.12 19.6714 30.84C20.2981 30.56 21.0181 30.42 21.8314 30.42C22.6581 30.42 23.3781 30.56 23.9914 30.84C24.6181 31.12 25.1447 31.5067 25.5714 32C25.9981 32.48 26.3181 33.0533 26.5314 33.72C26.7447 34.3733 26.8514 35.08 26.8514 35.84C26.8514 36.6 26.7447 37.3067 26.5314 37.96C26.3181 38.6133 25.9981 39.1867 25.5714 39.68C25.1447 40.16 24.6181 40.54 23.9914 40.82C23.3781 41.0867 22.6581 41.22 21.8314 41.22C21.0181 41.22 20.2981 41.0867 19.6714 40.82C19.0447 40.54 18.5181 40.16 18.0914 39.68C17.6647 39.1867 17.3447 38.6133 17.1314 37.96C16.9181 37.3067 16.8114 36.6 16.8114 35.84ZM32.4958 35.84C32.4958 36.4667 32.5758 37.0267 32.7358 37.52C32.9091 38 33.1424 38.4067 33.4358 38.74C33.7291 39.06 34.0691 39.3067 34.4558 39.48C34.8558 39.6533 35.2758 39.74 35.7158 39.74C36.1558 39.74 36.5691 39.6533 36.9558 39.48C37.3558 39.3067 37.7024 39.06 37.9958 38.74C38.2891 38.4067 38.5158 38 38.6758 37.52C38.8491 37.0267 38.9358 36.4667 38.9358 35.84C38.9358 35.2133 38.8491 34.66 38.6758 34.18C38.5158 33.6867 38.2891 33.2733 37.9958 32.94C37.7024 32.6067 37.3558 32.3533 36.9558 32.18C36.5691 32.0067 36.1558 31.92 35.7158 31.92C35.2758 31.92 34.8558 32.0067 34.4558 32.18C34.0691 32.3533 33.7291 32.6067 33.4358 32.94C33.1424 33.2733 32.9091 33.6867 32.7358 34.18C32.5758 34.66 32.4958 35.2133 32.4958 35.84ZM30.6958 35.84C30.6958 35.08 30.8024 34.3733 31.0158 33.72C31.2291 33.0533 31.5491 32.48 31.9758 32C32.4024 31.5067 32.9291 31.12 33.5558 30.84C34.1824 30.56 34.9024 30.42 35.7158 30.42C36.5424 30.42 37.2624 30.56 37.8758 30.84C38.5024 31.12 39.0291 31.5067 39.4558 32C39.8824 32.48 40.2024 33.0533 40.4158 33.72C40.6291 34.3733 40.7358 35.08 40.7358 35.84C40.7358 36.6 40.6291 37.3067 40.4158 37.96C40.2024 38.6133 39.8824 39.1867 39.4558 39.68C39.0291 40.16 38.5024 40.54 37.8758 40.82C37.2624 41.0867 36.5424 41.22 35.7158 41.22C34.9024 41.22 34.1824 41.0867 33.5558 40.82C32.9291 40.54 32.4024 40.16 31.9758 39.68C31.5491 39.1867 31.2291 38.6133 31.0158 37.96C30.8024 37.3067 30.6958 36.6 30.6958 35.84ZM45.1402 30.66H46.7402V32.18H46.7802C47.5535 31.0067 48.6668 30.42 50.1202 30.42C50.7602 30.42 51.3402 30.5533 51.8602 30.82C52.3802 31.0867 52.7468 31.54 52.9602 32.18C53.3068 31.62 53.7602 31.1867 54.3202 30.88C54.8935 30.5733 55.5202 30.42 56.2002 30.42C56.7202 30.42 57.1868 30.48 57.6002 30.6C58.0268 30.7067 58.3868 30.88 58.6802 31.12C58.9868 31.36 59.2202 31.6733 59.3802 32.06C59.5535 32.4333 59.6402 32.8867 59.6402 33.42V41H57.9402V34.22C57.9402 33.9 57.9135 33.6 57.8602 33.32C57.8068 33.04 57.7068 32.8 57.5602 32.6C57.4135 32.3867 57.2068 32.22 56.9402 32.1C56.6868 31.98 56.3535 31.92 55.9402 31.92C55.1002 31.92 54.4402 32.16 53.9602 32.64C53.4802 33.12 53.2402 33.76 53.2402 34.56V41H51.5402V34.22C51.5402 33.8867 51.5068 33.58 51.4402 33.3C51.3868 33.02 51.2868 32.78 51.1402 32.58C50.9935 32.3667 50.7935 32.2067 50.5402 32.1C50.3002 31.98 49.9868 31.92 49.6002 31.92C49.1068 31.92 48.6802 32.02 48.3202 32.22C47.9735 32.42 47.6868 32.66 47.4602 32.94C47.2468 33.22 47.0868 33.5133 46.9802 33.82C46.8868 34.1133 46.8402 34.36 46.8402 34.56V41H45.1402V30.66Z" fill="black"/>
<g clip-path="url(#clip0_8_4277)">
<path d="M95.876 37.6453C107.289 17.0254 128.641 2.43409 153.951 0.713016C193.554 -1.98009 227.843 27.8618 230.542 67.3719C233.242 106.882 203.329 141.09 163.726 143.783C135.449 145.706 109.873 131.037 96.5783 108.103" stroke="black" stroke-miterlimit="10"/>
</g>
<defs>
<clipPath id="clip0_8_4277">
<rect width="137" height="144" fill="white" transform="translate(94)"/>
</clipPath>
</defs>
</svg>
