<?xml version="1.0" encoding="UTF-8"?>
<svg id="_レイヤー_1" data-name="レイヤー 1" xmlns="http://www.w3.org/2000/svg" viewBox="0 0 883.16 522">
  <defs>
    <style>
      .cls-1 {
        fill: #424242;
      }

      .cls-2 {
        fill: #fff;
      }
    </style>
  </defs>
  <path class="cls-2" d="M651.05,0h-19c.05,1.28-.18,2.54-.79,3.68-98.38,185.31-318.41,274.38-521.67,264.28-5.14-.26-10.36.33-15.49-.01l-9.06-66.95-66.89,17.1L0,502.45l.04,15.55,128.57,1.02-17.94-140.94,521.38,19.91v97h-8v27h137v-27h-23l-4.99-86.99,79.4,21.88.66,64.56-3.14,1.1.07,26.45h62v-27h-9.01s-2.99-44-2.99-44l5.99,1.57c3.47-7.02,10.55-6.5,16.83-9.73.65-2.87.23-6.12-1.81-8.36l-23.81-21.19-7.2-104.3-12.05.47-.53,8.55h-11.43s.01-9.02.01-9.02h-13.01v74.01c-9.33.41-15.59-13.81-19.18-21.32-24.64-51.56-40.51-129.1-53.34-185.66-10.69-47.13-23.25-97.56-26.45-145.55-.63-9.46-1.41-19-2.04-28.46l-25.01,1c.08,9.71,3.28,17.71-3.74,26.01l-32.25,3V0Z"/>
  <path class="cls-1" d="M651.05,0v32l32.25-3c7.02-8.3,3.82-16.3,3.74-26.01l25.01-1c.63,9.46,1.41,19,2.04,28.46,3.2,47.99,15.76,98.42,26.45,145.55,12.83,56.57,28.69,134.1,53.34,185.66,3.59,7.51,9.85,21.73,19.18,21.32v-74h13.01s-.01,9.01-.01,9.01h11.43s.53-8.54.53-8.54l12.05-.47,7.2,104.3,23.81,21.19c2.04,2.24,2.46,5.49,1.81,8.36-6.28,3.23-13.36,2.71-16.83,9.73l-5.99-1.57,2.99,44h9.01s0,27,0,27h-62l-.07-26.45,3.14-1.1-.66-64.56-79.4-21.88,4.99,86.99h23v27h-137v-27h8v-97l-521.38-19.91,17.94,140.94L.04,518.01l-.04-15.55L18.15,218.1l66.89-17.1,9.06,66.95c5.13.34,10.36-.24,15.49.01,203.26,10.1,423.29-78.97,521.67-264.28.6-1.14.84-2.4.79-3.68h19ZM626.05,113c1.56-.58,6-5.42,6-6.5V28c-1.54.57-6,7.88-6,8.5v76.5ZM689.04,35.01c-2.72-.6-1.7.84-2.47,1.99-4.11,6.19-10.52,16.77-13.69,23.35-.84,1.74-2.74,3.11-.34,4.64,6.59-9.89,19.42-16.49,16.49-29.97ZM679.04,36.01l-28,2c-.73,3.92,2.59,6.03,4.49,9.01l11,10.98,12.51-21.99ZM612.05,129c1.38-.34,6-6.06,6-6.5V49h-.99c.44,2.25-5.01,7.05-5.01,7.5v72.5ZM657.06,72l5.74-7.51-9.74-10.49,4,18ZM691.04,85l-1.49-29.99c-1.95,2.37-12.75,13.3-12.4,15.35l13.88,14.64ZM597.05,144l9-8.5v-69.5c-1.55,1.27-9,10.7-9,11.5v66.5ZM671.06,130c4.75-4.29,9.04-9.5,12.96-14.52,4.97-6.36,10.95-11.12,7.1-20.05-.55-1.28-17.2-20.4-18.58-20.4l-11.23,13.6,9.74,41.37ZM591.05,86c-2.36-.63-1.69.61-2.29,1.28-1.34,1.5-8.71,10.33-8.71,11.22v59l2,1.01,9-9.01v-63.5ZM664.05,124.99l-8.5-29.97c-5.21,2.72-5.75,12.35-4.29,17.27.28.96,11.48,14.01,12.79,12.7ZM802.05,385.99c-16.95-22.78-26.11-51.97-34.5-78.99-14.81-47.74-26.25-98.12-37.02-146.98-4.18-18.96-7.2-38.4-11.77-57.24-.24-1-.3-3.01-1.7-2.77l12.43,233.05,13.81,31.69,58.75,21.24ZM566.05,171l8-6.5v-59.5l-8,7.5v58.5ZM695.04,160l-2.49-44.99-18.3,22.51,20.79,22.49ZM632.05,344V117c-2.47,2.61-6.34,5.67-6.06,9.44l.02,216,6.04,1.57ZM560.05,120h-1.49s-8.51,8.5-8.51,8.5v54.5l10-7.5v-55.5ZM651.05,155c2.41-1.64,14.16-15.81,13.89-17.35l-13.89-15.65v33ZM618.05,342v-209c-2.79,2.08-6.47,4.52-6.06,8.44l.03,199,6.04,1.57ZM544.05,188v-53l-8,6.5v50.5l8-4ZM606.05,340v-195c-3.41,3.23-8.97,6.22-9.06,11.44l.02,181.99,9.04,1.57ZM669.04,145c-2.34-.64-1.69.63-2.27,1.28-2.53,2.82-14.27,16.49-15.18,18.76-1.4,3.48-.19,8.66-.52,12.44l24.37,24.48c1.07-.23,6.66-7.34,5.57-9.31l-11.97-47.65ZM524.05,200c1.07.48,6-3.14,6-3.5v-49.5c-1.12.55-6,5.09-6,5.5v47.5ZM686.06,187c.72.56,10.49-11.33,10.02-14.44-.63-4.2-15.63-17.37-19.03-21.56l9,36ZM507.05,165.5v44.5l10-5.5v-45c0-.4,2.57-1.76-.48-1.49l-9.52,7.49ZM591.05,159c-4.03,3.47-10.86,6.43-11.06,12.44l.06,163.06c.21,3.21,9.22,3.96,11,2v-177.5ZM501.05,171c-2.97.98-13,6.97-14.54,8.99-.9,1.19,1.54,2.01,1.54,2.51v38.5l13-7.5v-42.5ZM574.05,335v-162l-7.07,5.43-.93,154.07,1.64,2.36,6.36.14ZM482.05,184h-1.48c-.7.19-4.52,3.01-4.52,3.5v39.5l6-3.5v-39.5ZM560.05,185c-3.65.98-9.67,4.51-10.05,8.45l.69,138.6,9.36.95v-148ZM697.04,186.01c-1.37-1.56-8.29,8.92-8.61,10.48,3.35,7.69,3.94,19.95,7.55,27.08.73,1.44.92,2.85,3.05,2.43l-2-39.99ZM651.05,188v47l19.86-26.67c.18-1.93-17-17.77-19.86-20.33ZM470.05,192c-3.58.21-7.36,3.08-10,5.5v36.5l10-4v-38ZM544.05,196l-7.36,3.9-.72,1.57.02,127.92,8.06,1.61v-135ZM454.05,201h-1.48s-7.52,5.5-7.52,5.5v33.5l9-3v-36ZM684.04,203c-1.55-1.56-3.78,3.57-3.89,4.36l5.89,6.63-2-11ZM530.05,205c-1.3-.1-4.34,1.74-4.98,2.52-2.09,2.52-.82,26.47-.98,32.02-.07,2.37-1.03,4.55-1.08,6.92-.59,27.1.04,54.79.62,81.65l6.42.89v-124ZM439.05,243v-34l-11,5v33l11-4ZM517.05,213c-3.56,1-9.78,3.42-10.06,7.44v104.95s10.06,1.61,10.06,1.61v-114ZM687.69,224.36l-12.11-11.36-23.54,32.52,26.64,29.42,2.92-.89,16.47-18.58c-3.58-9.55-4.19-23.2-10.37-31.12ZM422.05,218l-8,3v30c2.8.06,5.94-.43,8-2.5v-30.5ZM501.05,222c-4.06,1.72-12.51,3.88-13.06,8.44l.06,91.06,1.65,2.35,11.35,1.15v-103ZM408.05,225c-4.53-.93-5,4.18-5,7.5v22.5l5-1v-29ZM397.05,229l-9,4.5v25l1.49,1.47,7.51-3.47v-27.5ZM482.05,232l-6,1v89h6v-90ZM382.05,236l-8,2v26l8-2v-26ZM470.05,237c-3.26,1.47-10.19,2.37-10.06,6.44l.06,74.06,1.65,2.35,8.35,1.15v-84ZM356.05,245v23l10.95-2.04c.55-8.33-.08-16.59.04-24.96l-10.99,4ZM454.05,244l-8.38,2.89-.62,68.61,1.64,2.36,7.36.14v-74ZM350.05,270v-23l-7,2v22l7-1ZM439.05,250l-11.06,3.61.07,61.38,9.31,1.08c.65-.2,1.69-2.32,1.69-2.57v-63.5ZM337.05,252c-2.69.31-6.05.55-8,2.5v18.5l8-1v-20ZM651.05,305l23.96-24.5-23.96-25.5v50ZM323.05,256l-6,1v19l6-1v-19ZM422.05,256l-8.06,2.61v53.81s8.06,1.58,8.06,1.58v-58ZM310.05,277v-18l-6,2.5v15.5h6ZM408.05,261c-4.25-.67-4.63.53-5,4.49-.92,9.92-1.21,33.41-.05,43.06.13,1.06-.03,2.32.98,3.01l4.06.44v-51ZM298.05,279v-17l-9.11,2.66-.79,13.86,1.96,1.08,7.93-.61ZM397.05,264l-8.84,3.66-.02,41.19,8.86,1.14v-46ZM701.04,264.01c-1.73-.45-2,.72-3,1.49-5.16,3.96-9.36,10.42-13.98,15.01l17.97,18.5-1-34.99ZM282.05,266c-9.76-.49-6.54,8.13-7.01,15.01h7.01v-15.01ZM382.05,268l-8.05,2.66c1.01,11.11-1.18,24.02-.02,34.88.33,3.1,5.74,2.37,8.07,2.46v-40ZM269.04,268.99h-2.99v13.01h2.99v-13.01ZM260.04,270.01l-2.82,1.67-.17,11.33h2.99s0-13,0-13ZM251.05,272l-14.95,2.05-.06,9.96c4.94-.28,10.2.88,14.87-1.15l.14-10.86ZM367.05,272l-10.54,2.96-.33,28.41c.82,2.39,8.48,2.73,10.87,2.63v-34ZM230.05,275.01c-11.51,1.03-23,2.87-34.51,3.98-3.62.35-9.45-1.51-11.49,2,10.08-.16,20.68,3.27,30.52,3.99,2.86.21,14.52.93,15.35-1.62l.13-8.35ZM350.05,276l-6.89,1.11c-.23,8.57-.11,17.25-.06,25.84l6.94,1.05v-28ZM337.05,279c-2.33.09-7.74-.63-8.07,2.46-.64,6.03.56,13.3.12,19.49l7.95,1.05v-23ZM323.05,281l-5.88,1.11c.21,2.87-.97,15.98.47,17l5.42.89v-19ZM310.05,283l-5.88,1.11c-.42.49-.37,11.97.32,12.95l5.56.94v-15ZM298.05,285l-8.95,1.05.09,8.81,8.87,1.15v-11.01ZM705.04,354l-2.19-43.3-23.3-25.68-27.98,29-.38,31.34,53.86,8.63ZM282.05,286.99h-6.01v7.01h6.01v-7.01ZM138.05,295.01l-40.99-6,9.95,69.54,7.02,1.46,24.03-65ZM199.05,304.01l-49-7,23.01,61.99,25.99-54.99ZM167.04,362l-23.98-62.99-22.01,60.99,45.99,2ZM246.05,311.01l-40-6,20.5,58.97,19.51-52.97ZM261.9,313.14l-7.45-1.1-1.9.94-18.49,51.01,42.99,2-15.14-52.85ZM203.04,314l-2.24,1.28-20.74,46.72,38.99,1-16.01-48.99ZM284.04,362.99l13.96-43.42c-.54-1.19-1.34-1.31-2.49-1.54-8.44-1.68-18.05-1.52-26.46-4.03l14.98,48.99ZM337.04,324.01l-26.99-4.01,15,44c1.51-.15,1.54-1.48,1.94-2.55,4.24-11.54,5.99-25.64,10.05-37.44ZM320.05,366.99l-16.99-43.99-13.01,42.99,30,1ZM837.05,324.01l-8.99.49,5.39,4.46,3.61-4.94ZM372.05,329l-21.99-3,10.5,36.99,11.49-33.99ZM332.05,368h22l-11.49-40.01-10.51,40.01ZM380.03,331l-2.08,1.4-11.91,36.59,27,1-13.01-38.99ZM400.05,332.99l-13-.99,9.01,27.99c1.54-.23,1.59-4.28,1.83-5.66.47-2.8,2.93-20.59,2.17-21.34ZM427.05,337l-16.99-2,4,27.99c2.34.51,1.61-.3,2.24-1.28,2.06-3.2,9.18-18.13,10.29-21.67.32-1.03.66-1.92.46-3.03ZM437.95,339.11l-4.78.02-14.11,31.87,25,1.01-6.11-32.9ZM454.04,341.01l-8.99-1c-.68.77,2.95,17.81,4.5,19.99l4.49-18.99ZM826.27,356.79c.33.57,6.55,4.26,7.28,6.19,1.87-2.33,6.79-5.49,7.05-8.44.46-5.31-.5-14.79-7.42-14.4-1.96,4.47-10.08,11.19-6.91,16.65ZM469.04,373c.98-1.01-5.82-23.27-7.05-26.44-.4-1.04-.41-2.41-1.93-2.55l-7.01,27.99,15.99,1ZM476.97,345.08l-8.91-1.07,5.01,17.99c1.43.24,1.4-1.77,1.68-2.79.53-1.95,2.93-13.31,2.22-14.13ZM491.04,374c.79-1.07-3.43-24.43-4.22-26.27-.6-1.39-1.16-2.03-2.76-1.73l-6,26.99c4.32.31,8.95-.88,12.99,1.01ZM409.04,371l-1.16-11.33-2.82-12.66-3.01,22.99,6.99,1ZM499.05,348l-6-1,3,16.99,3-15.99ZM514.04,373.99c.74-.69-5.34-16.93-6.25-19.24-.52-1.33-1.23-4.51-2.74-4.74l-3.02,24h12ZM524.05,352.01l-11-2.01,6.01,17.99c1.34.29,1.13-1.04,1.46-2,1.56-4.49,2.13-9.43,3.53-13.98ZM548.05,355l-12-1,9.5,19.99,2.5-18.99ZM538.04,374.99c.75-.68-6.66-16.87-8.98-17.99l-4.01,17.99h12.99ZM569.04,358.01l-8.99-1,3.01,15.99c3.56-3.53,4.25-10.26,5.99-14.99ZM580.05,377c.24-2.15-1.71-19.48-4.99-17l-4.96,15.43c.62,2.61,7.76,1.31,9.95,1.58ZM557.05,376l-2.5-15c-1.59,1.49-3.05,14.46-2.51,15h5.01ZM588.04,361.01h-3.99s2.01,9.99,2.01,9.99l1.98-9.99ZM608.04,364.01l-5.99-1.01,4,11c3.44-1.65,1.59-6.84,1.98-9.99ZM592.05,376.99l8.97-.49-5.99-12.5-2.98,12.99ZM630.05,367l-10-1,4.01,11.99c2.1-.79,7.16-9.91,5.99-10.99ZM707.04,381.99l-1.66-3.83-54.34-7.17.11,7.9,4.5.98,51.39,2.12ZM834.55,372.02l-4.51,5.46,4.51,6.5,4.51-6.5-4.51-5.46ZM827.03,396.99c2.89-5.27,4.9-8.73-.98-12.99.06,3.15-.12,6.35,0,9.51.04,1.21-.75,3.72.99,3.48ZM843.04,385.01c-2.27-.54-1.63.35-2.29,1.25-3.84,5.16.25,5.82,1.31,10.75h1.98s-1-11.99-1-11.99ZM700.04,400.01l-49-2,.95,5.55,25.55,25.43,22.5-28.98ZM651.05,461l21.86-26.68c.17-1.96-18.82-19.58-21.86-22.32v49ZM711.04,463l-2.48-41.99-17.43,22.36,19.92,19.64ZM838.89,466.81l9.02-11.53-1.02-11.62-16.83-7.66-1.02,4.01-2.98-1.01-.07,18.38c4.37,1.67,8.03,5.2,10.22,9.42h2.69ZM713.05,495l-1.76-21.74-24.75-25.24-37.5,46.98h64ZM826.05,481l7.04-8.5c0-1.92-5.24-6.21-7.04-7.5v16ZM850.05,495c.93-5.84-3.84-10.39-8.49-13.01l-9.51,13.01h18Z"/>
  <path class="cls-2" d="M802.05,385.99l-58.75-21.24-13.81-31.69-12.43-233.05c1.41-.24,1.46,1.77,1.7,2.77,4.57,18.83,7.6,38.28,11.77,57.24,10.76,48.87,22.2,99.24,37.02,146.98,8.38,27.02,17.55,56.22,34.5,78.99Z"/>
  <polygon class="cls-2" points="705.04 354 651.19 345.36 651.57 314.02 679.55 285.02 702.85 310.7 705.04 354"/>
  <path class="cls-2" d="M591.05,159v177.5c-1.78,1.97-10.79,1.21-11-2l-.06-163.06c.2-6.01,7.03-8.97,11.06-12.44Z"/>
  <polygon class="cls-2" points="713.05 495 649.05 495 686.55 448.02 711.29 473.26 713.05 495"/>
  <path class="cls-2" d="M606.05,340l-9.04-1.57-.02-181.99c.09-5.22,5.65-8.21,9.06-11.44v195Z"/>
  <polygon class="cls-2" points="138.05 295.01 114.02 360 107 358.55 97.05 289 138.05 295.01"/>
  <path class="cls-2" d="M687.69,224.36c6.18,7.92,6.79,21.57,10.37,31.12l-16.47,18.58-2.92.89-26.64-29.42,23.54-32.52,12.11,11.36Z"/>
  <polygon class="cls-2" points="199.05 304.01 173.06 359 150.05 297.01 199.05 304.01"/>
  <polygon class="cls-2" points="167.04 362 121.05 359.99 143.06 299.01 167.04 362"/>
  <path class="cls-2" d="M560.05,185v148l-9.36-.95-.69-138.6c.38-3.94,6.4-7.48,10.05-8.45Z"/>
  <polygon class="cls-2" points="261.9 313.14 277.04 366 234.05 363.99 252.55 312.98 254.45 312.04 261.9 313.14"/>
  <path class="cls-2" d="M632.05,344l-6.04-1.57-.02-216c-.28-3.77,3.59-6.83,6.06-9.44v227Z"/>
  <path class="cls-2" d="M501.05,222v103l-11.35-1.15-1.65-2.35-.06-91.06c.55-4.56,9-6.73,13.06-8.44Z"/>
  <polygon class="cls-2" points="574.05 335 567.68 334.86 566.05 332.5 566.98 178.43 574.05 173 574.05 335"/>
  <path class="cls-2" d="M618.05,342l-6.04-1.57-.03-199c-.41-3.92,3.27-6.36,6.06-8.44v209Z"/>
  <polygon class="cls-2" points="246.05 311.01 226.55 363.98 206.05 305.01 246.05 311.01"/>
  <path class="cls-2" d="M517.05,213v114l-10.06-1.61v-104.95c.28-4.02,6.5-6.44,10.06-7.44Z"/>
  <polygon class="cls-2" points="544.05 196 544.05 331 535.99 329.39 535.97 201.47 536.69 199.9 544.05 196"/>
  <polygon class="cls-2" points="203.04 314 219.05 362.99 180.05 361.99 200.8 315.28 203.04 314"/>
  <path class="cls-2" d="M671.06,130l-9.74-41.37,11.23-13.6c1.38,0,18.03,19.12,18.58,20.4,3.85,8.94-2.13,13.69-7.1,20.05-3.93,5.02-8.22,10.23-12.96,14.52Z"/>
  <path class="cls-2" d="M669.04,145l11.97,47.65c1.1,1.96-4.49,9.08-5.57,9.31l-24.37-24.48c.33-3.78-.88-8.96.52-12.44.91-2.27,12.65-15.94,15.18-18.76.59-.66-.07-1.93,2.27-1.28Z"/>
  <path class="cls-2" d="M530.05,205v124l-6.42-.89c-.58-26.87-1.22-54.55-.62-81.65.05-2.36,1.02-4.55,1.08-6.92.16-5.55-1.11-29.5.98-32.02.64-.78,3.69-2.62,4.98-2.52Z"/>
  <path class="cls-2" d="M470.05,237v84l-8.35-1.15-1.65-2.35-.06-74.06c-.13-4.07,6.8-4.97,10.06-6.44Z"/>
  <polygon class="cls-2" points="700.04 400.01 677.55 428.98 651.99 403.55 651.05 398 700.04 400.01"/>
  <path class="cls-2" d="M439.05,250v63.5c0,.25-1.04,2.37-1.69,2.57l-9.31-1.08-.07-61.38,11.06-3.61Z"/>
  <path class="cls-2" d="M284.04,362.99l-14.98-48.99c8.41,2.51,18.02,2.35,26.46,4.03,1.15.23,1.94.35,2.49,1.54l-13.96,43.42Z"/>
  <path class="cls-2" d="M591.05,86v63.5l-9,9.01-2-1.01v-59c0-.89,7.38-9.72,8.71-11.22.6-.67-.07-1.91,2.29-1.28Z"/>
  <polygon class="cls-2" points="320.05 366.99 290.05 365.99 303.06 323 320.05 366.99"/>
  <polygon class="cls-2" points="454.05 244 454.05 318 446.69 317.86 445.05 315.5 445.67 246.89 454.05 244"/>
  <polygon class="cls-2" points="651.05 305 651.05 255 675.01 280.5 651.05 305"/>
  <path class="cls-2" d="M597.05,144v-66.5c0-.8,7.45-10.23,9-11.5v69.5l-9,8.5Z"/>
  <path class="cls-2" d="M337.04,324.01c-4.06,11.8-5.81,25.9-10.05,37.44-.39,1.07-.42,2.4-1.94,2.55l-15-44,26.99,4.01Z"/>
  <path class="cls-2" d="M651.05,461v-49c3.03,2.75,22.03,20.37,21.86,22.32l-21.86,26.68Z"/>
  <path class="cls-2" d="M501.05,171v42.5l-13,7.5v-38.5c0-.5-2.44-1.32-1.54-2.51,1.54-2.02,11.57-8.01,14.54-8.99Z"/>
  <polygon class="cls-2" points="380.03 331 393.04 369.99 366.05 369 377.95 332.4 380.03 331"/>
  <polygon class="cls-2" points="560.05 120 560.05 175.5 550.05 183 550.05 128.5 558.56 120.01 560.05 120"/>
  <polygon class="cls-2" points="482.05 232 482.05 322 476.05 322 476.05 233 482.05 232"/>
  <polygon class="cls-2" points="437.95 339.11 444.05 372 419.05 370.99 433.16 339.12 437.95 339.11"/>
  <path class="cls-2" d="M651.05,188c2.86,2.55,20.03,18.39,19.86,20.33l-19.86,26.67v-47Z"/>
  <polygon class="cls-2" points="332.05 368 342.56 327.99 354.05 368 332.05 368"/>
  <polygon class="cls-2" points="566.05 171 566.05 112.5 574.05 105 574.05 164.5 566.05 171"/>
  <path class="cls-2" d="M838.89,466.81h-2.69c-2.19-4.22-5.85-7.75-10.22-9.42l.07-18.38,2.98,1.01,1.02-4.01,16.83,7.66,1.02,11.62-9.02,11.53Z"/>
  <polygon class="cls-2" points="695.04 160 674.25 137.51 692.55 115.01 695.04 160"/>
  <path class="cls-2" d="M626.05,113V36.5c0-.62,4.46-7.93,6-8.5v78.5c0,1.08-4.44,5.92-6,6.5Z"/>
  <path class="cls-2" d="M507.05,165.5l9.52-7.49c3.05-.27.48,1.08.48,1.49v45l-10,5.5v-44.5Z"/>
  <polygon class="cls-2" points="422.05 256 422.05 314 413.99 312.42 413.99 258.61 422.05 256"/>
  <path class="cls-2" d="M612.05,129V56.5c0-.45,5.45-5.25,5.01-7.49h.99s0,73.49,0,73.49c0,.44-4.62,6.16-6,6.5Z"/>
  <polygon class="cls-2" points="372.05 329 360.55 363 350.05 326 372.05 329"/>
  <polygon class="cls-2" points="544.05 188 536.05 192 536.05 141.5 544.05 135 544.05 188"/>
  <polygon class="cls-2" points="711.04 463 691.12 443.36 708.55 421.01 711.04 463"/>
  <polygon class="cls-2" points="397.05 264 397.05 310 388.19 308.86 388.21 267.66 397.05 264"/>
  <path class="cls-2" d="M470.05,192v38l-10,4v-36.5c2.64-2.42,6.42-5.29,10-5.5Z"/>
  <polygon class="cls-2" points="439.05 243 428.05 247 428.05 214 439.05 209 439.05 243"/>
  <path class="cls-2" d="M367.05,272v34c-2.39.1-10.05-.23-10.87-2.63l.33-28.41,10.54-2.96Z"/>
  <path class="cls-2" d="M679.04,36.01l-12.51,21.99-11-10.98c-1.9-2.98-5.22-5.08-4.49-9.01l28-2Z"/>
  <polygon class="cls-2" points="707.04 381.99 655.66 379.88 651.16 378.89 651.04 371 705.38 378.16 707.04 381.99"/>
  <path class="cls-2" d="M701.04,264.01l1,34.99-17.97-18.5c4.61-4.59,8.81-11.04,13.98-15.01,1-.77,1.27-1.94,3-1.49Z"/>
  <polygon class="cls-2" points="454.05 201 454.05 237 445.05 240 445.05 206.5 452.57 201.01 454.05 201"/>
  <path class="cls-2" d="M382.05,268v40c-2.33-.09-7.74.63-8.07-2.46-1.16-10.86,1.03-23.77.02-34.88l8.05-2.66Z"/>
  <path class="cls-2" d="M524.05,200v-47.5c0-.41,4.88-4.95,6-5.5v49.5c0,.36-4.93,3.98-6,3.5Z"/>
  <path class="cls-2" d="M686.06,187l-9-36c3.4,4.18,18.39,17.36,19.03,21.56.47,3.11-9.31,15-10.02,14.44Z"/>
  <path class="cls-2" d="M230.05,275.01l-.13,8.35c-.83,2.55-12.49,1.83-15.35,1.62-9.83-.72-20.44-4.15-30.52-3.99,2.04-3.51,7.87-1.65,11.49-2,11.51-1.11,23-2.95,34.51-3.98Z"/>
  <path class="cls-2" d="M356.05,245l10.99-4c-.11,8.36.51,16.63-.04,24.96l-10.95,2.04v-23Z"/>
  <path class="cls-2" d="M469.04,373l-15.99-1,7.01-27.99c1.53.14,1.53,1.51,1.93,2.55,1.23,3.17,8.03,25.43,7.05,26.44Z"/>
  <path class="cls-2" d="M408.05,261v51l-4.06-.44c-1.02-.7-.86-1.95-.98-3.01-1.16-9.65-.88-33.13.05-43.06.37-3.96.75-5.16,5-4.49Z"/>
  <path class="cls-2" d="M427.05,337c.2,1.11-.14,2-.46,3.03-1.11,3.55-8.24,18.47-10.29,21.67-.63.98.1,1.79-2.24,1.28l-4-27.99,16.99,2Z"/>
  <path class="cls-2" d="M651.05,155v-33l13.89,15.65c.27,1.54-11.47,15.71-13.89,17.35Z"/>
  <path class="cls-2" d="M422.05,218v30.5c-2.06,2.07-5.2,2.56-8,2.5v-30l8-3Z"/>
  <polygon class="cls-2" points="397.05 229 397.05 256.5 389.54 259.97 388.05 258.5 388.05 233.5 397.05 229"/>
  <path class="cls-2" d="M482.05,184v39.5l-6,3.5v-39.5c0-.49,3.82-3.31,4.52-3.49h1.48Z"/>
  <path class="cls-2" d="M826.27,356.79c-3.17-5.46,4.95-12.19,6.91-16.65,6.92-.39,7.88,9.1,7.42,14.4-.26,2.94-5.18,6.11-7.05,8.44-.72-1.93-6.95-5.62-7.28-6.19Z"/>
  <path class="cls-2" d="M691.04,85l-13.88-14.64c-.35-2.05,10.45-12.98,12.4-15.35l1.49,29.99Z"/>
  <path class="cls-2" d="M697.04,186.01l2,39.99c-2.13.41-2.33-1-3.05-2.43-3.61-7.13-4.21-19.38-7.55-27.08.31-1.55,7.24-12.04,8.61-10.48Z"/>
  <path class="cls-2" d="M491.04,374c-4.04-1.89-8.67-.7-12.99-1.01l6-26.99c1.61-.3,2.16.33,2.76,1.73.79,1.84,5.01,25.2,4.22,26.27Z"/>
  <polygon class="cls-2" points="382.05 236 382.05 262 374.05 264 374.05 238 382.05 236"/>
  <path class="cls-2" d="M400.05,332.99c.76.76-1.69,18.54-2.17,21.34-.23,1.38-.29,5.43-1.83,5.66l-9.01-27.99,13,.99Z"/>
  <path class="cls-2" d="M350.05,276v28l-6.94-1.05c-.06-8.59-.17-17.27.06-25.84l6.89-1.11Z"/>
  <path class="cls-2" d="M664.05,124.99c-1.31,1.31-12.51-11.74-12.79-12.7-1.46-4.93-.92-14.56,4.29-17.27l8.5,29.97Z"/>
  <path class="cls-2" d="M337.05,279v23l-7.95-1.05c.44-6.19-.76-13.45-.12-19.49.33-3.1,5.74-2.37,8.07-2.46Z"/>
  <path class="cls-2" d="M514.04,373.99h-12s3.02-23.99,3.02-23.99c1.51.23,2.22,3.41,2.74,4.74.91,2.31,6.98,18.55,6.25,19.24Z"/>
  <path class="cls-2" d="M251.05,272l-.14,10.86c-4.67,2.03-9.93.86-14.87,1.15l.06-9.96,14.95-2.05Z"/>
  <path class="cls-2" d="M337.05,252v20l-8,1v-18.5c1.95-1.95,5.31-2.19,8-2.5Z"/>
  <polygon class="cls-2" points="350.05 270 343.05 271 343.05 249 350.05 247 350.05 270"/>
  <polygon class="cls-2" points="298.05 279 290.11 279.61 288.15 278.52 288.94 264.66 298.05 262 298.05 279"/>
  <path class="cls-2" d="M850.05,495h-18l9.51-13.01c4.65,2.62,9.42,7.17,8.49,13.01Z"/>
  <path class="cls-2" d="M408.05,225v29l-5,1v-22.5c0-3.32.47-8.43,5-7.5Z"/>
  <path class="cls-2" d="M689.04,35.01c2.93,13.48-9.91,20.08-16.49,29.97-2.4-1.53-.5-2.9.34-4.64,3.17-6.57,9.58-17.15,13.69-23.35.76-1.15-.25-2.59,2.47-1.99Z"/>
  <path class="cls-2" d="M538.04,374.99h-12.99s4.01-17.99,4.01-17.99c2.32,1.12,9.74,17.31,8.98,17.99Z"/>
  <polygon class="cls-2" points="548.05 355 545.55 374 536.05 354.01 548.05 355"/>
  <polygon class="cls-2" points="323.05 256 323.05 275 317.05 276 317.05 257 323.05 256"/>
  <path class="cls-2" d="M580.05,377c-2.19-.26-9.33,1.03-9.95-1.58l4.96-15.43c3.28-2.48,5.24,14.85,4.99,17Z"/>
  <path class="cls-2" d="M323.05,281v19l-5.42-.89c-1.43-1.01-.25-14.13-.47-17l5.88-1.11Z"/>
  <polygon class="cls-2" points="310.05 277 304.05 277 304.05 261.5 310.05 259 310.05 277"/>
  <path class="cls-2" d="M524.05,352.01c-1.4,4.54-1.97,9.49-3.53,13.98-.33.96-.12,2.29-1.46,2l-6.01-17.99,11,2.01Z"/>
  <path class="cls-2" d="M454.04,341.01l-4.49,18.99c-1.55-2.18-5.17-19.22-4.5-19.99l8.99,1Z"/>
  <path class="cls-2" d="M282.05,266v15h-7.01c.47-6.87-2.76-15.49,7.01-15Z"/>
  <path class="cls-2" d="M476.97,345.08c.7.82-1.69,12.18-2.22,14.13-.28,1.02-.25,3.03-1.68,2.79l-5.01-17.99,8.91,1.07Z"/>
  <polygon class="cls-2" points="409.04 371 402.04 370 405.06 347.01 407.88 359.67 409.04 371"/>
  <polygon class="cls-2" points="298.05 285 298.05 296 289.19 294.86 289.1 286.05 298.05 285"/>
  <path class="cls-2" d="M310.05,283v15l-5.56-.94c-.69-.98-.74-12.46-.32-12.95l5.88-1.11Z"/>
  <polygon class="cls-2" points="657.06 72 653.06 54 662.8 64.49 657.06 72"/>
  <path class="cls-2" d="M569.04,358.01c-1.74,4.73-2.42,11.47-5.99,14.99l-3.01-15.99,8.99,1Z"/>
  <path class="cls-2" d="M630.05,367c1.17,1.08-3.89,10.2-5.99,10.99l-4.01-11.99,10,1Z"/>
  <path class="cls-2" d="M826.05,481v-16c1.8,1.29,7.03,5.58,7.04,7.5l-7.04,8.5Z"/>
  <polygon class="cls-2" points="834.55 372.02 839.06 377.48 834.55 383.98 830.04 377.48 834.55 372.02"/>
  <polygon class="cls-2" points="592.05 376.99 595.04 364.01 601.02 376.51 592.05 376.99"/>
  <polygon class="cls-2" points="499.05 348 496.06 363.99 493.05 347 499.05 348"/>
  <path class="cls-2" d="M557.05,376h-5.01c-.54-.54.92-13.51,2.51-15l2.5,15Z"/>
  <rect class="cls-2" x="276.04" y="286.99" width="6.01" height="7.01"/>
  <path class="cls-2" d="M608.04,364.01c-.39,3.15,1.46,8.34-1.98,9.99l-4-11,5.99,1.01Z"/>
  <rect class="cls-2" x="266.05" y="268.99" width="2.99" height="13.01"/>
  <polygon class="cls-2" points="260.04 270.01 260.04 283.01 257.05 283.01 257.22 271.67 260.04 270.01"/>
  <path class="cls-2" d="M827.03,396.99c-1.74.24-.94-2.28-.99-3.48-.11-3.16.07-6.36,0-9.51,5.88,4.26,3.86,7.72.98,12.99Z"/>
  <path class="cls-2" d="M843.04,385.01l1,11.99h-1.98c-1.06-4.92-5.15-5.58-1.31-10.74.66-.89.02-1.79,2.29-1.25Z"/>
  <path class="cls-2" d="M684.04,203l2,11-5.89-6.63c.11-.79,2.34-5.92,3.89-4.36Z"/>
  <polygon class="cls-2" points="837.05 324.01 833.44 328.95 828.05 324.5 837.05 324.01"/>
  <polygon class="cls-2" points="588.04 361.01 586.06 370.99 584.05 361.01 588.04 361.01"/>
</svg>