<svg width="54" height="204" viewBox="0 0 54 204" fill="none" xmlns="http://www.w3.org/2000/svg">
<path d="M11.784 185.88C11.656 184.648 11.208 183.76 10.44 183.216C9.688 182.656 8.72 182.376 7.536 182.376C7.056 182.376 6.584 182.424 6.12 182.52C5.656 182.616 5.24 182.776 4.872 183C4.52 183.224 4.232 183.528 4.008 183.912C3.8 184.28 3.696 184.744 3.696 185.304C3.696 185.832 3.848 186.264 4.152 186.6C4.472 186.92 4.888 187.184 5.4 187.392C5.928 187.6 6.52 187.776 7.176 187.92C7.832 188.048 8.496 188.192 9.168 188.352C9.856 188.512 10.528 188.704 11.184 188.928C11.84 189.136 12.424 189.424 12.936 189.792C13.464 190.16 13.88 190.624 14.184 191.184C14.504 191.744 14.664 192.448 14.664 193.296C14.664 194.208 14.456 194.992 14.04 195.648C13.64 196.288 13.12 196.816 12.48 197.232C11.84 197.632 11.12 197.92 10.32 198.096C9.536 198.288 8.752 198.384 7.968 198.384C7.008 198.384 6.096 198.264 5.232 198.024C4.384 197.784 3.632 197.424 2.976 196.944C2.336 196.448 1.824 195.824 1.44 195.072C1.072 194.304 0.888 193.4 0.888 192.36H3.048C3.048 193.08 3.184 193.704 3.456 194.232C3.744 194.744 4.112 195.168 4.56 195.504C5.024 195.84 5.56 196.088 6.168 196.248C6.776 196.408 7.4 196.488 8.04 196.488C8.552 196.488 9.064 196.44 9.576 196.344C10.104 196.248 10.576 196.088 10.992 195.864C11.408 195.624 11.744 195.304 12 194.904C12.256 194.504 12.384 193.992 12.384 193.368C12.384 192.776 12.224 192.296 11.904 191.928C11.6 191.56 11.184 191.264 10.656 191.04C10.144 190.8 9.56 190.608 8.904 190.464C8.248 190.32 7.576 190.176 6.888 190.032C6.216 189.872 5.552 189.696 4.896 189.504C4.24 189.296 3.648 189.032 3.12 188.712C2.608 188.376 2.192 187.952 1.872 187.44C1.568 186.912 1.416 186.256 1.416 185.472C1.416 184.608 1.592 183.864 1.944 183.24C2.296 182.6 2.76 182.08 3.336 181.68C3.928 181.264 4.592 180.96 5.328 180.768C6.08 180.56 6.848 180.456 7.632 180.456C8.512 180.456 9.328 180.56 10.08 180.768C10.832 180.976 11.488 181.304 12.048 181.752C12.624 182.2 13.072 182.768 13.392 183.456C13.728 184.128 13.912 184.936 13.944 185.88H11.784ZM21.6105 185.592H24.0825V187.392H21.6105V195.096C21.6105 195.336 21.6265 195.528 21.6585 195.672C21.7065 195.816 21.7865 195.928 21.8985 196.008C22.0105 196.088 22.1625 196.144 22.3545 196.176C22.5625 196.192 22.8265 196.2 23.1465 196.2H24.0825V198H22.5225C21.9945 198 21.5385 197.968 21.1545 197.904C20.7865 197.824 20.4825 197.688 20.2425 197.496C20.0185 197.304 19.8505 197.032 19.7385 196.68C19.6265 196.328 19.5705 195.864 19.5705 195.288V187.392H17.4585V185.592H19.5705V181.872H21.6105V185.592ZM39.0208 197.952C38.6688 198.16 38.1808 198.264 37.5568 198.264C37.0288 198.264 36.6048 198.12 36.2848 197.832C35.9808 197.528 35.8288 197.04 35.8288 196.368C35.2688 197.04 34.6128 197.528 33.8608 197.832C33.1248 198.12 32.3248 198.264 31.4608 198.264C30.9008 198.264 30.3648 198.2 29.8528 198.072C29.3568 197.944 28.9248 197.744 28.5568 197.472C28.1888 197.2 27.8928 196.848 27.6688 196.416C27.4608 195.968 27.3568 195.432 27.3568 194.808C27.3568 194.104 27.4768 193.528 27.7168 193.08C27.9568 192.632 28.2688 192.272 28.6528 192C29.0528 191.712 29.5008 191.496 29.9968 191.352C30.5088 191.208 31.0288 191.088 31.5568 190.992C32.1168 190.88 32.6448 190.8 33.1408 190.752C33.6528 190.688 34.1008 190.608 34.4848 190.512C34.8688 190.4 35.1728 190.248 35.3968 190.056C35.6208 189.848 35.7328 189.552 35.7328 189.168C35.7328 188.72 35.6448 188.36 35.4688 188.088C35.3088 187.816 35.0928 187.608 34.8208 187.464C34.5648 187.32 34.2688 187.224 33.9328 187.176C33.6128 187.128 33.2928 187.104 32.9728 187.104C32.1088 187.104 31.3888 187.272 30.8128 187.608C30.2368 187.928 29.9248 188.544 29.8768 189.456H27.8368C27.8688 188.688 28.0288 188.04 28.3168 187.512C28.6048 186.984 28.9888 186.56 29.4688 186.24C29.9488 185.904 30.4928 185.664 31.1008 185.52C31.7248 185.376 32.3888 185.304 33.0928 185.304C33.6528 185.304 34.2048 185.344 34.7488 185.424C35.3088 185.504 35.8128 185.672 36.2608 185.928C36.7088 186.168 37.0688 186.512 37.3408 186.96C37.6128 187.408 37.7488 187.992 37.7488 188.712V195.096C37.7488 195.576 37.7728 195.928 37.8208 196.152C37.8848 196.376 38.0768 196.488 38.3968 196.488C38.5728 196.488 38.7808 196.448 39.0208 196.368V197.952ZM35.7088 191.592C35.4528 191.784 35.1168 191.928 34.7008 192.024C34.2848 192.104 33.8448 192.176 33.3808 192.24C32.9328 192.288 32.4768 192.352 32.0128 192.432C31.5488 192.496 31.1328 192.608 30.7648 192.768C30.3968 192.928 30.0928 193.16 29.8528 193.464C29.6288 193.752 29.5168 194.152 29.5168 194.664C29.5168 195 29.5808 195.288 29.7088 195.528C29.8528 195.752 30.0288 195.936 30.2368 196.08C30.4608 196.224 30.7168 196.328 31.0048 196.392C31.2928 196.456 31.5968 196.488 31.9168 196.488C32.5888 196.488 33.1648 196.4 33.6448 196.224C34.1248 196.032 34.5168 195.8 34.8208 195.528C35.1248 195.24 35.3488 194.936 35.4928 194.616C35.6368 194.28 35.7088 193.968 35.7088 193.68V191.592ZM47.4714 199.656C47.2314 200.264 46.9914 200.776 46.7514 201.192C46.5274 201.608 46.2714 201.944 45.9834 202.2C45.7114 202.472 45.3994 202.664 45.0474 202.776C44.7114 202.904 44.3194 202.968 43.8714 202.968C43.6314 202.968 43.3914 202.952 43.1514 202.92C42.9114 202.888 42.6794 202.832 42.4554 202.752V200.88C42.6314 200.96 42.8314 201.024 43.0554 201.072C43.2954 201.136 43.4954 201.168 43.6554 201.168C44.0714 201.168 44.4154 201.064 44.6874 200.856C44.9754 200.664 45.1914 200.384 45.3354 200.016L46.1754 197.928L41.2554 185.592H43.5594L47.1834 195.744H47.2314L50.7114 185.592H52.8714L47.4714 199.656Z" fill="black"/>
<path d="M24.984 43.448H21.996C21.636 43.448 21.6 43.412 21.6 43.052C21.6 42.836 21.672 41.036 21.672 31.964V25.52C21.672 19.076 21.6 17.276 21.6 17.024C21.6 16.664 21.636 16.628 21.996 16.628C22.248 16.628 23.436 16.7 26.82 16.7H27.828C28.368 15.26 28.836 13.82 29.124 12.956C29.304 12.308 29.412 11.696 29.484 10.868C30.708 10.976 32.364 11.156 33.3 11.372C33.768 11.48 33.876 11.624 33.876 11.84C33.876 12.092 33.768 12.236 33.552 12.452C33.336 12.668 33.156 12.92 33.048 13.208C32.652 14.216 32.112 15.62 31.644 16.7H36.18C39.564 16.7 40.752 16.628 41.004 16.628C41.364 16.628 41.4 16.664 41.4 17.024C41.4 17.24 41.328 19.076 41.328 24.62V31.892C41.328 40.892 41.4 42.656 41.4 42.908C41.4 43.232 41.364 43.268 41.004 43.268H37.908C37.548 43.268 37.512 43.232 37.512 42.908V41.108H25.416V43.052C25.416 43.412 25.38 43.448 24.984 43.448ZM25.416 37.616H37.512V30.308H25.416V37.616ZM25.416 20.192V26.888H37.512V20.192H25.416ZM10.908 41.324C11.628 40.388 12.06 39.704 12.636 38.588C13.644 36.536 14.904 33.476 16.02 30.056C16.524 30.596 17.316 31.316 18.108 31.856C18.684 32.252 18.936 32.432 18.936 32.792C18.936 33.008 18.864 33.26 18.72 33.62C17.748 36.32 16.632 39.236 15.48 41.612C15.192 42.152 15.012 42.656 14.94 43.016C14.904 43.268 14.724 43.448 14.472 43.448C14.292 43.448 14.076 43.376 13.824 43.232C12.924 42.764 11.952 42.152 10.908 41.324ZM12.492 13.568L14.04 11.588C14.364 11.192 14.472 11.228 14.796 11.408C16.632 12.524 18.396 13.892 19.944 15.332C20.088 15.476 20.16 15.548 20.16 15.62C20.16 15.728 20.088 15.836 19.944 16.052L18.324 18.284C18.036 18.68 17.928 18.716 17.64 18.428C16.164 16.844 14.148 15.224 12.492 14.216C12.168 14 12.168 13.964 12.492 13.568ZM10.944 22.712L12.528 20.732C12.852 20.336 12.96 20.3 13.284 20.48C14.904 21.416 16.812 22.82 18.396 24.296C18.576 24.44 18.648 24.548 18.648 24.656C18.648 24.728 18.576 24.872 18.432 25.052L16.848 27.248C16.56 27.644 16.452 27.716 16.164 27.428C14.688 25.916 12.96 24.476 11.016 23.324C10.836 23.216 10.764 23.108 10.764 23.036C10.764 22.928 10.836 22.856 10.944 22.712ZM25.524 87.08C25.452 85.496 25.38 84.02 25.344 82.796C22.86 82.868 20.412 82.868 17.928 82.652C17.532 82.652 17.388 82.508 17.352 82.04C17.208 81.248 17.136 79.808 17.136 78.98C19.8 79.304 22.536 79.376 25.236 79.268C25.2 77.9 25.2 76.496 25.164 75.128C21.708 75.236 19.116 75.236 16.56 74.948C16.164 74.948 15.984 74.804 15.948 74.444C15.84 73.544 15.768 72.68 15.696 71.204C18.828 71.564 21.96 71.564 25.128 71.564C25.128 70.232 25.092 69.296 25.056 68.072C24.984 67.244 24.912 66.596 24.624 65.66C26.532 65.768 28.08 65.984 29.16 66.308C29.592 66.452 29.808 66.956 29.556 67.388C29.304 67.892 29.052 68.504 29.016 69.116C28.98 69.836 28.98 70.34 28.944 71.42C32.292 71.168 34.704 70.772 36.828 70.34C37.26 70.232 37.404 70.34 37.44 70.772C37.584 71.78 37.62 72.752 37.62 73.4C37.62 73.868 37.512 73.94 37.224 73.976C34.668 74.408 32.364 74.696 28.908 74.912C28.908 76.352 28.944 77.684 28.944 78.98C31.68 78.8 33.408 78.44 36 78.044C36.432 77.936 36.54 78.008 36.576 78.332C36.612 79.016 36.684 80.204 36.684 81.284C36.684 81.644 36.54 81.752 36.144 81.788C33.768 82.184 32.112 82.436 29.088 82.652C29.16 84.308 29.232 86.072 29.34 87.728C32.796 88.7 35.748 89.996 38.88 92.084C39.24 92.408 39.24 92.516 39.132 92.948C38.88 93.632 38.124 94.964 37.548 95.612C37.404 95.828 37.26 95.9 37.08 95.9C36.972 95.9 36.828 95.864 36.684 95.72C34.488 93.992 32.256 92.732 29.52 91.616C29.484 95.504 27.144 97.088 22.212 97.088C17.532 97.088 14.868 95.036 14.868 92.048C14.868 89.132 17.712 86.936 22.068 86.936C22.968 86.936 23.832 86.936 25.524 87.08ZM25.596 90.5C24.552 90.248 23.256 90.068 22.248 90.068C19.62 90.068 18.36 90.824 18.36 91.976C18.36 92.912 19.44 93.596 21.924 93.596C23.364 93.596 24.696 93.164 25.2 92.516C25.488 92.12 25.596 91.508 25.596 90.5ZM24.732 133.808L24.768 133.916C26.784 132.764 28.476 132.296 30.492 132.296C35.748 132.296 39.42 135.752 39.42 140.936C39.42 146.948 34.56 150.8 26.856 150.8C22.32 150.8 19.584 148.856 19.584 145.508C19.584 143.096 21.852 141.116 24.66 141.116C28.044 141.116 30.528 142.916 31.428 146.372C33.948 145.22 35.1 143.636 35.1 140.9C35.1 137.624 32.796 135.464 29.448 135.464C26.46 135.464 23.148 136.796 20.232 139.28C19.188 140.216 18.18 141.26 17.1 142.34C16.848 142.592 16.668 142.736 16.488 142.736C16.344 142.736 16.164 142.628 15.948 142.412C15.192 141.764 14.4 140.828 13.824 140.072C13.608 139.784 13.716 139.532 14.004 139.244C16.812 136.976 19.296 134.672 22.536 131.288C24.768 128.984 26.46 127.184 28.116 125.132C25.956 125.528 23.4 126.032 21.168 126.5C20.7 126.608 20.232 126.716 19.656 126.932C19.476 127.004 19.116 127.112 18.936 127.112C18.576 127.112 18.324 126.932 18.144 126.5C17.712 125.672 17.388 124.664 16.884 122.612C17.964 122.756 19.152 122.756 20.232 122.684C22.428 122.468 25.596 122 28.404 121.46C29.304 121.28 30.024 121.1 30.384 120.92C30.564 120.812 30.888 120.632 31.068 120.632C31.428 120.632 31.644 120.74 31.896 120.92C32.976 121.748 33.696 122.468 34.308 123.224C34.596 123.548 34.704 123.8 34.704 124.088C34.704 124.448 34.488 124.772 34.092 124.952C33.48 125.24 33.192 125.492 32.508 126.104C29.88 128.66 27.468 131.18 24.732 133.808ZM27.864 147.272C27.396 145.292 26.316 144.176 24.804 144.176C23.76 144.176 23.076 144.788 23.076 145.544C23.076 146.66 24.048 147.416 26.208 147.416C26.856 147.416 27.324 147.38 27.864 147.272Z" fill="black"/>
</svg>
