<svg width="135" height="311" viewBox="0 0 135 311" fill="none" xmlns="http://www.w3.org/2000/svg">
<path d="M1.872 287.864H13.704V289.784H4.152V295.232H13.056V297.152H4.152V303.08H13.776V305H1.872V287.864ZM21.2239 298.472L16.9039 292.592H19.5199L22.4959 296.936L25.5919 292.592H28.0399L23.7679 298.304L28.5679 305H25.9519L22.4959 299.864L19.0399 305H16.5679L21.2239 298.472ZM32.0618 292.592H34.1018V294.272H34.1498C34.4858 293.584 35.0138 293.088 35.7338 292.784C36.4538 292.464 37.2458 292.304 38.1098 292.304C39.0698 292.304 39.9018 292.48 40.6058 292.832C41.3258 293.184 41.9178 293.664 42.3818 294.272C42.8618 294.864 43.2218 295.552 43.4618 296.336C43.7018 297.12 43.8218 297.952 43.8218 298.832C43.8218 299.712 43.7018 300.544 43.4618 301.328C43.2378 302.112 42.8858 302.8 42.4058 303.392C41.9418 303.968 41.3498 304.424 40.6298 304.76C39.9258 305.096 39.1018 305.264 38.1578 305.264C37.8538 305.264 37.5098 305.232 37.1258 305.168C36.7578 305.104 36.3898 305 36.0218 304.856C35.6538 304.712 35.3018 304.52 34.9658 304.28C34.6458 304.024 34.3738 303.712 34.1498 303.344H34.1018V309.728H32.0618V292.592ZM41.6618 298.688C41.6618 298.112 41.5818 297.552 41.4218 297.008C41.2778 296.448 41.0458 295.952 40.7258 295.52C40.4218 295.088 40.0218 294.744 39.5258 294.488C39.0458 294.232 38.4778 294.104 37.8218 294.104C37.1338 294.104 36.5498 294.24 36.0698 294.512C35.5898 294.784 35.1978 295.144 34.8938 295.592C34.5898 296.024 34.3658 296.52 34.2218 297.08C34.0938 297.64 34.0298 298.208 34.0298 298.784C34.0298 299.392 34.1018 299.984 34.2458 300.56C34.3898 301.12 34.6138 301.616 34.9178 302.048C35.2378 302.48 35.6458 302.832 36.1418 303.104C36.6378 303.36 37.2378 303.488 37.9418 303.488C38.6458 303.488 39.2298 303.352 39.6938 303.08C40.1738 302.808 40.5578 302.448 40.8458 302C41.1338 301.552 41.3418 301.04 41.4698 300.464C41.5978 299.888 41.6618 299.296 41.6618 298.688ZM56.5123 297.608C56.4803 297.128 56.3683 296.672 56.1763 296.24C56.0003 295.808 55.7523 295.44 55.4323 295.136C55.1283 294.816 54.7603 294.568 54.3283 294.392C53.9123 294.2 53.4483 294.104 52.9363 294.104C52.4083 294.104 51.9283 294.2 51.4963 294.392C51.0803 294.568 50.7203 294.816 50.4163 295.136C50.1123 295.456 49.8723 295.832 49.6963 296.264C49.5203 296.68 49.4163 297.128 49.3843 297.608H56.5123ZM58.4803 301.064C58.2083 302.456 57.6083 303.504 56.6803 304.208C55.7523 304.912 54.5843 305.264 53.1763 305.264C52.1843 305.264 51.3203 305.104 50.5843 304.784C49.8643 304.464 49.2563 304.016 48.7603 303.44C48.2643 302.864 47.8883 302.176 47.6323 301.376C47.3923 300.576 47.2563 299.704 47.2243 298.76C47.2243 297.816 47.3683 296.952 47.6563 296.168C47.9443 295.384 48.3443 294.704 48.8563 294.128C49.3843 293.552 50.0003 293.104 50.7043 292.784C51.4243 292.464 52.2083 292.304 53.0563 292.304C54.1603 292.304 55.0723 292.536 55.7923 293C56.5283 293.448 57.1123 294.024 57.5443 294.728C57.9923 295.432 58.2963 296.2 58.4563 297.032C58.6323 297.864 58.7043 298.656 58.6723 299.408H49.3843C49.3683 299.952 49.4323 300.472 49.5763 300.968C49.7203 301.448 49.9523 301.88 50.2723 302.264C50.5923 302.632 51.0003 302.928 51.4963 303.152C51.9923 303.376 52.5763 303.488 53.2483 303.488C54.1123 303.488 54.8163 303.288 55.3603 302.888C55.9203 302.488 56.2883 301.88 56.4643 301.064H58.4803ZM62.3949 292.592H64.3149V295.208H64.3629C64.8589 294.2 65.4669 293.456 66.1869 292.976C66.9069 292.496 67.8189 292.272 68.9229 292.304V294.464C68.1069 294.464 67.4109 294.576 66.8349 294.8C66.2589 295.024 65.7949 295.352 65.4429 295.784C65.0909 296.216 64.8349 296.744 64.6749 297.368C64.5149 297.976 64.4349 298.68 64.4349 299.48V305H62.3949V292.592ZM74.2991 290.36H72.2591V287.864H74.2991V290.36ZM72.2591 292.592H74.2991V305H72.2591V292.592ZM87.7554 297.608C87.7234 297.128 87.6114 296.672 87.4194 296.24C87.2434 295.808 86.9954 295.44 86.6754 295.136C86.3714 294.816 86.0034 294.568 85.5714 294.392C85.1554 294.2 84.6914 294.104 84.1794 294.104C83.6514 294.104 83.1714 294.2 82.7394 294.392C82.3234 294.568 81.9634 294.816 81.6594 295.136C81.3554 295.456 81.1154 295.832 80.9394 296.264C80.7634 296.68 80.6594 297.128 80.6274 297.608H87.7554ZM89.7234 301.064C89.4514 302.456 88.8514 303.504 87.9234 304.208C86.9954 304.912 85.8274 305.264 84.4194 305.264C83.4274 305.264 82.5634 305.104 81.8274 304.784C81.1074 304.464 80.4994 304.016 80.0034 303.44C79.5074 302.864 79.1314 302.176 78.8754 301.376C78.6354 300.576 78.4994 299.704 78.4674 298.76C78.4674 297.816 78.6114 296.952 78.8994 296.168C79.1874 295.384 79.5874 294.704 80.0994 294.128C80.6274 293.552 81.2434 293.104 81.9474 292.784C82.6674 292.464 83.4514 292.304 84.2994 292.304C85.4034 292.304 86.3154 292.536 87.0354 293C87.7714 293.448 88.3554 294.024 88.7874 294.728C89.2354 295.432 89.5394 296.2 89.6994 297.032C89.8754 297.864 89.9474 298.656 89.9154 299.408H80.6274C80.6114 299.952 80.6754 300.472 80.8194 300.968C80.9634 301.448 81.1954 301.88 81.5154 302.264C81.8354 302.632 82.2434 302.928 82.7394 303.152C83.2354 303.376 83.8194 303.488 84.4914 303.488C85.3554 303.488 86.0594 303.288 86.6034 302.888C87.1634 302.488 87.5314 301.88 87.7074 301.064H89.7234ZM93.7101 292.592H95.6301V294.56H95.6781C96.5261 293.056 97.8701 292.304 99.7101 292.304C100.526 292.304 101.206 292.416 101.75 292.64C102.294 292.864 102.734 293.176 103.07 293.576C103.406 293.976 103.638 294.456 103.766 295.016C103.91 295.56 103.982 296.168 103.982 296.84V305H101.942V296.6C101.942 295.832 101.718 295.224 101.27 294.776C100.822 294.328 100.206 294.104 99.4221 294.104C98.7981 294.104 98.2541 294.2 97.7901 294.392C97.3421 294.584 96.9661 294.856 96.6621 295.208C96.3581 295.56 96.1261 295.976 95.9661 296.456C95.8221 296.92 95.7501 297.432 95.7501 297.992V305H93.7101V292.592ZM117.15 296.576C116.99 295.792 116.654 295.184 116.142 294.752C115.63 294.32 114.942 294.104 114.078 294.104C113.342 294.104 112.726 294.24 112.23 294.512C111.734 294.784 111.334 295.144 111.03 295.592C110.742 296.04 110.534 296.56 110.406 297.152C110.278 297.728 110.214 298.328 110.214 298.952C110.214 299.528 110.278 300.088 110.406 300.632C110.55 301.176 110.766 301.664 111.054 302.096C111.342 302.512 111.718 302.848 112.182 303.104C112.646 303.36 113.198 303.488 113.838 303.488C114.846 303.488 115.63 303.224 116.19 302.696C116.766 302.168 117.118 301.424 117.246 300.464H119.334C119.11 302 118.534 303.184 117.606 304.016C116.694 304.848 115.446 305.264 113.862 305.264C112.918 305.264 112.078 305.112 111.342 304.808C110.622 304.504 110.014 304.072 109.518 303.512C109.038 302.952 108.67 302.288 108.414 301.52C108.174 300.736 108.054 299.88 108.054 298.952C108.054 298.024 108.174 297.16 108.414 296.36C108.654 295.544 109.014 294.84 109.494 294.248C109.99 293.64 110.606 293.168 111.342 292.832C112.078 292.48 112.934 292.304 113.91 292.304C114.614 292.304 115.27 292.392 115.878 292.568C116.502 292.728 117.046 292.984 117.51 293.336C117.99 293.688 118.382 294.136 118.686 294.68C118.99 295.208 119.182 295.84 119.262 296.576H117.15ZM131.913 297.608C131.881 297.128 131.769 296.672 131.577 296.24C131.401 295.808 131.153 295.44 130.833 295.136C130.529 294.816 130.161 294.568 129.729 294.392C129.313 294.2 128.849 294.104 128.337 294.104C127.809 294.104 127.329 294.2 126.897 294.392C126.481 294.568 126.121 294.816 125.817 295.136C125.513 295.456 125.273 295.832 125.097 296.264C124.921 296.68 124.817 297.128 124.785 297.608H131.913ZM133.881 301.064C133.609 302.456 133.009 303.504 132.081 304.208C131.153 304.912 129.985 305.264 128.577 305.264C127.585 305.264 126.721 305.104 125.985 304.784C125.265 304.464 124.657 304.016 124.161 303.44C123.665 302.864 123.289 302.176 123.033 301.376C122.793 300.576 122.657 299.704 122.625 298.76C122.625 297.816 122.769 296.952 123.057 296.168C123.345 295.384 123.745 294.704 124.257 294.128C124.785 293.552 125.401 293.104 126.105 292.784C126.825 292.464 127.609 292.304 128.457 292.304C129.561 292.304 130.473 292.536 131.193 293C131.929 293.448 132.513 294.024 132.945 294.728C133.393 295.432 133.697 296.2 133.857 297.032C134.033 297.864 134.105 298.656 134.073 299.408H124.785C124.769 299.952 124.833 300.472 124.977 300.968C125.121 301.448 125.353 301.88 125.673 302.264C125.993 302.632 126.401 302.928 126.897 303.152C127.393 303.376 127.977 303.488 128.649 303.488C129.513 303.488 130.217 303.288 130.761 302.888C131.321 302.488 131.689 301.88 131.865 301.064H133.881Z" fill="black"/>
<path d="M72.328 28.94L72.22 30.2C72.76 32.828 74.308 35.024 76.108 36.644C77.98 38.3 80.536 39.488 83.596 40.136C83.056 40.784 82.552 41.684 82.156 42.764C81.904 43.448 81.796 43.7 81.508 43.7C81.328 43.7 81.076 43.628 80.68 43.484C78.124 42.62 75.928 41.324 74.308 39.884C72.724 38.408 71.464 36.68 70.636 34.772C70.132 36.284 69.304 37.688 68.188 38.984C66.424 40.964 63.904 42.404 60.7 43.448C60.268 43.556 60.016 43.664 59.8 43.664C59.476 43.664 59.332 43.412 59.044 42.764C58.612 41.828 58.036 41.036 57.424 40.46C61.204 39.632 64.228 38.408 66.28 35.888C67.828 33.908 68.692 31.316 68.692 28.436C68.692 27.536 68.656 26.744 68.548 25.88C69.808 25.952 70.996 26.06 72.184 26.204C72.508 26.276 72.724 26.456 72.724 26.672C72.724 26.924 72.616 27.14 72.472 27.428C72.328 27.752 72.328 28.328 72.328 28.94ZM72.328 14.072L72.256 15.188C72.724 17.78 74.128 19.94 75.964 21.596C77.872 23.252 80.284 24.404 83.128 25.088C82.588 25.7 82.12 26.6 81.724 27.536C81.436 28.184 81.328 28.436 81.076 28.436C80.896 28.436 80.644 28.328 80.248 28.184C77.908 27.284 75.928 26.096 74.308 24.692C72.688 23.288 71.5 21.56 70.708 19.688C70.312 21.092 69.664 22.496 68.62 23.828C66.964 25.916 64.804 27.32 61.996 28.472C61.6 28.616 61.348 28.724 61.168 28.724C60.88 28.724 60.772 28.508 60.484 27.968C59.944 26.96 59.368 26.204 58.756 25.664C61.888 24.908 64.444 23.684 66.352 21.272C68.008 19.112 68.656 16.484 68.692 13.568C68.692 12.668 68.656 11.876 68.512 11.048C69.808 11.12 70.996 11.228 72.184 11.372C72.508 11.408 72.724 11.552 72.724 11.804C72.724 12.056 72.616 12.272 72.472 12.56C72.328 12.884 72.364 13.46 72.328 14.072ZM50.512 41.504C51.196 40.568 51.664 39.812 52.24 38.588C53.212 36.5 54.364 33.692 55.444 30.092C55.948 30.632 56.74 31.316 57.496 31.856C58.432 32.504 58.396 32.54 58.108 33.584C57.136 36.464 56.056 39.272 54.976 41.684C54.688 42.296 54.544 42.728 54.472 43.088C54.436 43.376 54.292 43.556 54.004 43.556C53.824 43.556 53.644 43.52 53.356 43.376C52.492 42.908 51.52 42.296 50.512 41.504ZM52.096 13.748L53.68 11.732C53.968 11.336 54.076 11.372 54.4 11.516C56.2 12.596 57.928 13.928 59.512 15.404C59.8 15.656 59.8 15.692 59.476 16.124L57.856 18.284C57.496 18.644 57.424 18.716 57.136 18.464C55.624 16.88 53.788 15.404 52.096 14.396C51.736 14.18 51.772 14.144 52.096 13.748ZM50.764 22.82L52.276 20.804C52.564 20.444 52.708 20.48 53.032 20.66C54.652 21.596 56.452 22.82 58.072 24.296C58.216 24.404 58.252 24.512 58.252 24.62C58.252 24.728 58.216 24.836 58.072 25.016L56.488 27.176C56.164 27.608 56.092 27.68 55.768 27.392C54.292 25.88 52.528 24.584 50.764 23.468C50.44 23.288 50.476 23.216 50.764 22.82ZM62.104 20.984L60.088 19.76C59.62 19.472 59.62 19.4 59.908 19.112C61.312 17.744 62.464 15.908 63.184 14.18C63.328 13.82 63.364 13.82 63.904 14.072L65.848 14.972C66.316 15.152 66.352 15.224 66.208 15.584C65.38 17.564 64.3 19.4 62.86 20.912C62.608 21.2 62.464 21.2 62.104 20.984ZM61.888 36.068L59.908 34.808C59.44 34.484 59.44 34.412 59.728 34.16C61.132 32.792 62.248 31.064 62.968 29.336C63.112 29.012 63.256 29.048 63.688 29.228L65.668 30.164C66.136 30.38 66.136 30.416 65.992 30.812C65.2 32.756 64.084 34.52 62.68 35.996C62.428 36.284 62.284 36.32 61.888 36.068ZM74.74 18.896C75.928 17.672 76.72 16.484 77.368 15.404C77.728 14.792 77.944 14.288 78.16 13.568C79.312 13.964 80.428 14.432 81.364 14.9C81.688 15.044 81.76 15.152 81.76 15.368C81.76 15.584 81.616 15.728 81.328 15.908C81.04 16.088 80.824 16.34 80.5 16.844C79.78 17.888 79.204 18.68 78.34 19.688C77.98 20.12 77.8 20.336 77.584 20.336C77.368 20.336 77.116 20.156 76.648 19.832C76.108 19.472 75.424 19.112 74.74 18.896ZM74.56 33.908C75.64 32.9 76.36 31.928 76.972 30.848C77.368 30.2 77.584 29.696 77.8 29.012C78.916 29.372 80.068 29.84 81.004 30.272C81.328 30.416 81.4 30.56 81.4 30.776C81.4 30.992 81.256 31.136 80.968 31.316C80.68 31.496 80.464 31.748 80.14 32.252C79.636 33.008 79.024 33.872 78.34 34.664C77.944 35.132 77.764 35.348 77.512 35.348C77.332 35.348 77.08 35.168 76.648 34.844C76.108 34.484 75.316 34.124 74.56 33.908ZM72.688 68.432H78.196C78.7 68.432 78.988 68.36 79.132 68.288C79.312 68.216 79.384 68.18 79.564 68.18C79.888 68.18 80.104 68.288 80.896 69.044C81.652 69.8 81.868 70.16 81.868 70.448C81.868 70.772 81.76 70.916 81.508 71.096C81.184 71.312 81.112 71.492 80.68 72.212C79.384 74.408 78.016 76.388 76.396 78.152C78.664 79.808 81.364 81.14 84.424 81.968C83.956 82.616 83.56 83.336 83.344 84.164C83.128 84.92 83.056 85.172 82.732 85.172C82.552 85.172 82.3 85.1 81.904 84.956L81.004 84.632C81.004 84.884 80.932 85.856 80.932 88.196V91.4C80.932 96.332 81.004 97.232 81.004 97.412C81.004 97.772 80.968 97.808 80.572 97.808H77.872C77.476 97.808 77.44 97.772 77.44 97.412V96.008H70.276V97.448C70.276 97.808 70.24 97.844 69.844 97.844H67.144C66.784 97.844 66.748 97.808 66.748 97.448C66.748 97.232 66.82 96.332 66.82 91.4V88.628C66.82 86.504 66.784 85.424 66.748 84.956L66.424 85.1C66.028 85.28 65.812 85.352 65.632 85.352C65.344 85.352 65.236 85.1 64.984 84.416C64.732 83.876 64.408 83.372 64.048 82.904V84.812C64.048 85.172 64.012 85.208 63.652 85.208C63.436 85.208 62.752 85.136 61.168 85.136H60.7V90.608C62.068 90.176 63.472 89.672 64.876 89.132C64.804 89.852 64.84 90.5 64.876 91.148C64.948 92.336 64.948 92.336 63.868 92.732C60.772 93.848 57.244 95 53.968 95.9C53.392 96.08 52.924 96.296 52.708 96.44C52.528 96.584 52.348 96.728 52.096 96.728C51.844 96.728 51.7 96.584 51.556 96.296C51.124 95.252 50.764 94.136 50.476 93.164C51.16 93.128 51.808 93.02 52.456 92.876V83.912C52.456 82.328 52.42 81.536 52.276 80.528C53.392 80.564 54.472 80.672 55.444 80.78C55.804 80.816 55.948 80.924 55.948 81.14C55.948 81.392 55.84 81.572 55.768 81.788C55.66 82.076 55.588 82.616 55.588 83.948V92.084C56.2 91.904 56.776 91.724 57.388 91.58V77.612H56.236C53.824 77.612 52.996 77.684 52.744 77.684C52.384 77.684 52.348 77.648 52.348 77.252C52.348 77.036 52.42 76.172 52.42 74.156V69.836C52.42 67.82 52.348 66.956 52.348 66.704C52.348 66.344 52.384 66.308 52.744 66.308C52.996 66.308 53.824 66.38 56.236 66.38H60.196C62.608 66.38 63.436 66.308 63.652 66.308C64.048 66.308 64.084 66.344 64.084 66.704C64.084 66.92 64.012 67.82 64.012 69.836V74.552C66.964 72.068 68.548 69.44 69.628 66.956C70.024 66.056 70.24 65.264 70.384 64.58C71.752 64.76 72.796 64.976 73.804 65.228C74.164 65.336 74.272 65.48 74.272 65.696C74.272 65.876 74.128 66.092 73.912 66.272C73.624 66.488 73.444 66.668 73.192 67.28C73.012 67.676 72.868 68.072 72.688 68.432ZM60.7 82.004H61.168C62.752 82.004 63.436 81.932 63.652 81.932C63.976 81.932 64.048 81.968 64.048 82.292C66.964 81.212 69.448 79.808 71.5 78.152C70.564 77.108 69.7 75.884 68.908 74.552C68.332 75.236 67.756 75.92 67.108 76.532C66.712 76.892 66.496 77.036 66.316 77.036C66.136 77.036 65.956 76.82 65.632 76.352C65.164 75.704 64.552 75.128 64.012 74.696C64.012 76.316 64.084 77.072 64.084 77.252C64.084 77.648 64.048 77.684 63.652 77.684C63.436 77.684 62.68 77.648 60.7 77.612V82.004ZM70.276 87.584V92.912H77.44V87.584H70.276ZM60.7 74.624V69.44H55.732V74.624H60.7ZM71.14 84.308H76.576C78.592 84.308 79.636 84.272 80.14 84.272C77.872 83.3 75.82 82.076 73.948 80.528C72.292 81.896 70.384 83.156 68.152 84.272C68.764 84.308 69.7 84.308 71.14 84.308ZM71.104 71.42L70.852 71.816C71.644 73.328 72.652 74.732 73.876 75.992C75.244 74.588 76.324 73.04 77.188 71.42H71.104ZM58.756 138.92V146.12C61.78 145.472 65.056 144.644 68.368 143.636C68.26 144.248 68.152 145.076 68.116 145.976C68.044 147.164 68.044 147.128 66.964 147.488C62.644 148.856 58.252 149.936 54.328 150.764C53.716 150.872 53.392 150.98 53.14 151.124C52.924 151.268 52.672 151.412 52.42 151.412C52.132 151.412 51.952 151.16 51.88 150.836C51.592 149.756 51.376 148.532 51.16 147.308C52.312 147.272 53.428 147.128 54.904 146.876V127.436C54.904 123.44 54.832 121.352 54.832 121.1C54.832 120.74 54.868 120.704 55.228 120.704C55.444 120.704 57.208 120.776 60.628 120.776H73.588C77.26 120.776 79.06 120.704 79.276 120.704C79.6 120.704 79.636 120.74 79.636 121.1C79.636 121.316 79.564 122.252 79.564 124.232V127.544C79.564 129.56 79.636 130.496 79.636 130.712C79.636 131.072 79.6 131.108 79.276 131.108C79.06 131.108 77.26 131.036 73.588 131.036H70.348C70.492 132.548 70.636 133.916 70.888 135.176L76.324 135.032C79.672 134.924 80.968 134.816 81.328 134.816C81.724 134.816 81.724 134.852 81.724 135.212L81.796 137.984C81.796 138.344 81.76 138.38 81.4 138.38C81.04 138.38 79.708 138.38 76.396 138.452L71.68 138.596C72.076 140 72.544 141.188 73.048 142.196C74.524 145.364 76.54 147.056 77.836 147.056C78.736 147.056 79.312 145.796 79.528 142.34C80.176 142.952 81.004 143.456 81.76 143.852C82.84 144.356 82.84 144.356 82.66 145.472C81.976 149.576 80.5 151.304 78.088 151.304C75.532 151.304 72.328 149.216 69.952 144.608C69.124 142.916 68.368 140.936 67.792 138.704L58.756 138.92ZM75.82 127.76V124.052H58.756V127.76H75.82ZM66.496 131.036H58.756V135.5L67.036 135.284C66.82 133.952 66.64 132.548 66.496 131.036ZM67.468 183.92H65.452C61.924 183.92 60.736 183.992 60.52 183.992C60.16 183.992 60.124 183.956 60.124 183.596V180.824C60.124 180.428 60.16 180.428 60.52 180.428C60.736 180.428 61.924 180.464 65.452 180.464H69.088V178.124C69.088 175.82 69.016 174.56 68.836 173.012C70.132 173.048 71.392 173.12 72.616 173.3C72.976 173.3 73.192 173.48 73.192 173.66C73.192 173.948 73.048 174.164 72.94 174.416C72.76 174.848 72.724 175.604 72.724 178.052V180.464H77.836C81.328 180.464 82.552 180.428 82.804 180.428C83.128 180.428 83.164 180.428 83.164 180.824V183.596C83.164 183.956 83.128 183.992 82.804 183.992C82.552 183.992 81.328 183.92 77.836 183.92H74.092C76.576 188.78 79.24 192.128 84.1 196.232C83.344 196.988 82.768 197.78 82.336 198.644C82.084 199.148 81.94 199.4 81.76 199.4C81.58 199.4 81.364 199.184 81.004 198.824C76.864 194.756 74.56 191.228 72.616 186.728C72.616 189.968 72.652 193.172 72.688 195.98H73.516C76.324 195.98 77.224 195.908 77.44 195.908C77.8 195.908 77.836 195.944 77.836 196.304V198.932C77.836 199.328 77.8 199.364 77.44 199.364C77.224 199.364 76.324 199.292 73.516 199.292H72.724C72.76 202.712 72.832 205.088 72.832 205.448C72.832 205.808 72.796 205.844 72.436 205.844H69.34C68.944 205.844 68.908 205.808 68.908 205.448C68.908 205.088 68.98 202.676 69.052 199.292H68.404C65.596 199.292 64.696 199.364 64.48 199.364C64.12 199.364 64.084 199.328 64.084 198.932V196.304C64.084 195.944 64.12 195.908 64.48 195.908C64.696 195.908 65.596 195.98 68.404 195.98H69.088C69.16 193.172 69.196 189.968 69.196 186.764C67.144 191.624 64.552 195.476 60.988 198.788C60.628 199.112 60.412 199.328 60.232 199.328C60.052 199.328 59.908 199.112 59.656 198.644C59.152 197.78 58.576 197.096 58.036 196.52V199.976C58.036 203.504 58.108 205.268 58.108 205.448C58.108 205.808 58.072 205.844 57.712 205.844H54.652C54.328 205.844 54.292 205.808 54.292 205.448C54.292 205.232 54.364 203.504 54.364 199.976V191.804C54.364 190.616 54.364 189.176 54.4 187.736C53.716 188.636 53.032 189.536 52.312 190.364C52.06 190.652 51.844 190.832 51.664 190.832C51.484 190.832 51.376 190.616 51.268 190.184C51.016 189.032 50.512 187.808 50.044 187.088C53.14 183.704 55.516 179.672 56.884 175.388C57.136 174.524 57.352 173.732 57.424 172.832C58.72 173.156 59.872 173.516 60.916 173.948C61.312 174.128 61.492 174.236 61.492 174.488C61.492 174.74 61.384 174.884 61.096 175.136C60.88 175.352 60.7 175.64 60.376 176.576C59.692 178.34 58.936 180.104 58.036 181.832V196.412C62.032 193.064 65.092 189.248 67.468 183.92ZM75.532 238.172H75.388V240.548H77.008C80.032 240.548 81.076 240.476 81.328 240.476C81.688 240.476 81.724 240.512 81.724 240.872C81.724 241.124 81.652 241.808 81.652 243.608V246.776C81.652 248.576 81.724 249.296 81.724 249.512C81.724 249.872 81.688 249.908 81.328 249.908C81.076 249.908 80.032 249.836 77.008 249.836H75.928C77.656 252.68 80.608 254.84 84.208 256.136C83.632 256.712 82.948 257.684 82.48 258.62C82.156 259.232 82.048 259.448 81.796 259.448C81.616 259.448 81.4 259.304 80.968 259.088C77.836 257.216 75.424 254.768 73.876 252.068C72.508 255.128 69.7 257.576 66.532 259.304C66.1 259.556 65.848 259.7 65.668 259.7C65.416 259.7 65.236 259.448 64.876 258.944C64.444 258.296 63.94 257.756 63.472 257.36C62.896 258.872 61.636 259.484 60.16 259.484C59.656 259.484 59.08 259.484 58.54 259.412C57.964 259.34 57.964 259.34 57.784 258.26C57.604 257.36 57.352 256.604 57.064 255.92C58.108 256.064 58.9 256.172 59.512 256.172C60.376 256.172 60.808 255.956 61.132 255.308C61.564 254.408 61.78 252.032 61.924 246.596H55.876C53.464 246.596 52.564 246.668 52.204 246.668C51.844 246.668 51.808 246.632 51.808 246.272C51.808 246.02 51.88 244.724 51.88 241.844V232.844C51.88 230 51.808 228.632 51.808 228.416C51.808 228.056 51.844 228.02 52.204 228.02C52.564 228.02 53.464 228.092 55.876 228.092H61.204C63.4 228.092 64.408 228.02 64.624 228.02C65.02 228.02 65.056 228.056 65.056 228.416V230.72C65.056 231.044 65.02 231.08 64.624 231.08C64.408 231.08 63.4 231.008 61.204 231.008H60.7V233.528C62.536 233.528 63.22 233.456 63.4 233.456C63.76 233.456 63.796 233.492 63.796 233.852V235.436C66.856 233.96 69.52 231.512 71.248 228.776C71.716 228.02 72.04 227.408 72.292 226.58C73.444 226.76 74.452 226.976 75.496 227.192C75.784 227.3 75.964 227.408 75.964 227.66C75.964 227.876 75.892 228.02 75.64 228.164L75.388 228.344C77.512 231.26 80.464 233.528 84.46 235.04C84.028 235.544 83.596 236.588 83.308 237.632C83.128 238.244 83.02 238.532 82.768 238.532C82.588 238.532 82.3 238.388 81.904 238.172C80.932 237.668 79.996 237.092 79.132 236.444V237.884C79.132 238.208 79.096 238.244 78.736 238.244C78.484 238.244 77.836 238.172 75.532 238.172ZM60.7 243.824H61.312C63.472 243.824 64.12 243.752 64.336 243.752C64.696 243.752 64.768 243.824 64.768 244.22C64.696 245.084 64.66 246.02 64.66 246.74C64.48 251.996 64.156 254.912 63.652 256.82C66.928 255.416 69.556 253.328 70.96 250.484L71.248 249.836H70.6C67.576 249.836 66.532 249.908 66.28 249.908C65.92 249.908 65.884 249.872 65.884 249.512C65.884 249.26 65.956 248.576 65.956 246.776V243.608C65.956 241.808 65.884 241.124 65.884 240.872C65.884 240.512 65.92 240.476 66.28 240.476C66.532 240.476 67.576 240.548 70.6 240.548H72.076V238.172C69.88 238.172 69.232 238.244 69.052 238.244C68.692 238.244 68.656 238.208 68.656 237.884V236.588C67.792 237.272 66.928 237.884 66.028 238.388C65.632 238.604 65.38 238.748 65.2 238.748C64.984 238.748 64.84 238.496 64.588 237.884C64.336 237.344 63.976 236.732 63.652 236.228H63.4C63.22 236.228 62.536 236.192 60.7 236.156V238.604C62.536 238.604 63.22 238.532 63.4 238.532C63.76 238.532 63.796 238.568 63.796 238.964V240.944C63.796 241.304 63.76 241.34 63.4 241.34C63.22 241.34 62.536 241.304 60.7 241.268V243.824ZM69.988 235.472H77.836C76.216 234.14 74.812 232.628 73.732 231.08C72.688 232.664 71.392 234.14 69.988 235.472ZM75.1 247.208H78.448V243.212H75.316C75.28 244.76 75.244 246.056 75.1 247.208ZM72.04 243.212H69.16V247.208H71.824C71.968 246.128 72.004 244.796 72.04 243.212ZM54.94 243.824H57.712V241.268H54.94V243.824ZM54.94 233.528H57.712V231.008H54.94V233.528ZM54.94 238.604H57.712V236.156H54.94V238.604ZM52.204 248.036L53.284 248.36C53.752 248.504 53.788 248.54 53.788 248.936C53.644 252.068 53.392 254.696 52.492 257.18C52.42 257.396 52.384 257.468 52.276 257.468C52.204 257.468 52.06 257.432 51.88 257.288L50.8 256.568C50.368 256.28 50.332 256.172 50.44 255.776C51.196 253.724 51.484 251.24 51.664 248.324C51.7 247.892 51.7 247.892 52.204 248.036ZM54.652 248.432L55.444 248.252C55.912 248.144 55.948 248.18 55.984 248.504C56.308 250.664 56.524 252.824 56.632 255.02C56.632 255.344 56.596 255.488 56.2 255.632L55.228 255.92C54.796 256.064 54.724 256.1 54.724 255.74C54.724 253.328 54.616 251.132 54.328 248.936C54.256 248.576 54.256 248.504 54.652 248.432ZM57.028 248.252L57.748 248.072C58.108 248 58.18 247.964 58.252 248.288C58.612 249.908 58.936 251.852 59.116 253.616C59.152 253.94 59.116 254.048 58.756 254.192L58.036 254.48C57.64 254.624 57.568 254.66 57.532 254.264C57.352 252.284 57.064 250.412 56.704 248.72C56.632 248.396 56.632 248.36 57.028 248.252ZM59.152 247.892L59.8 247.604C60.124 247.46 60.196 247.496 60.268 247.748C60.7 248.936 61.096 250.268 61.312 251.6C61.348 251.888 61.312 251.96 61.024 252.104L60.34 252.428C60.016 252.608 59.908 252.572 59.872 252.284C59.656 250.916 59.332 249.476 58.936 248.288C58.864 248.036 58.864 248.036 59.152 247.892Z" fill="black"/>
</svg>
