<svg width="52" height="299" viewBox="0 0 52 299" fill="none" xmlns="http://www.w3.org/2000/svg">
<path d="M8.616 293H6.024L0 275.864H2.448L7.344 290.72H7.392L12.336 275.864H14.712L8.616 293ZM19.626 278.36H17.586V275.864H19.626V278.36ZM17.586 280.592H19.626V293H17.586V280.592ZM25.7143 289.088C25.7303 289.536 25.8343 289.92 26.0263 290.24C26.2183 290.544 26.4663 290.792 26.7703 290.984C27.0903 291.16 27.4423 291.288 27.8263 291.368C28.2263 291.448 28.6343 291.488 29.0503 291.488C29.3703 291.488 29.7063 291.464 30.0583 291.416C30.4103 291.368 30.7303 291.28 31.0183 291.152C31.3223 291.024 31.5703 290.84 31.7623 290.6C31.9543 290.344 32.0503 290.024 32.0503 289.64C32.0503 289.112 31.8503 288.712 31.4503 288.44C31.0503 288.168 30.5463 287.952 29.9383 287.792C29.3463 287.616 28.6983 287.464 27.9943 287.336C27.2903 287.192 26.6343 287 26.0263 286.76C25.4343 286.504 24.9383 286.152 24.5383 285.704C24.1383 285.256 23.9383 284.632 23.9383 283.832C23.9383 283.208 24.0743 282.672 24.3463 282.224C24.6343 281.776 24.9943 281.416 25.4263 281.144C25.8743 280.856 26.3703 280.648 26.9143 280.52C27.4743 280.376 28.0263 280.304 28.5703 280.304C29.2743 280.304 29.9223 280.368 30.5143 280.496C31.1063 280.608 31.6263 280.816 32.0743 281.12C32.5383 281.408 32.9063 281.808 33.1783 282.32C33.4503 282.816 33.6103 283.44 33.6583 284.192H31.6183C31.5863 283.792 31.4823 283.464 31.3063 283.208C31.1303 282.936 30.9063 282.72 30.6343 282.56C30.3623 282.4 30.0583 282.288 29.7223 282.224C29.4023 282.144 29.0743 282.104 28.7383 282.104C28.4343 282.104 28.1223 282.128 27.8023 282.176C27.4983 282.224 27.2183 282.312 26.9623 282.44C26.7063 282.552 26.4983 282.712 26.3383 282.92C26.1783 283.112 26.0983 283.368 26.0983 283.688C26.0983 284.04 26.2183 284.336 26.4583 284.576C26.7143 284.8 27.0343 284.992 27.4183 285.152C27.8023 285.296 28.2343 285.424 28.7143 285.536C29.1943 285.632 29.6743 285.736 30.1543 285.848C30.6663 285.96 31.1623 286.096 31.6423 286.256C32.1383 286.416 32.5703 286.632 32.9383 286.904C33.3223 287.16 33.6263 287.488 33.8503 287.888C34.0903 288.288 34.2103 288.784 34.2103 289.376C34.2103 290.128 34.0503 290.752 33.7303 291.248C33.4263 291.744 33.0183 292.144 32.5063 292.448C32.0103 292.752 31.4423 292.96 30.8023 293.072C30.1783 293.2 29.5543 293.264 28.9303 293.264C28.2423 293.264 27.5863 293.192 26.9623 293.048C26.3383 292.904 25.7863 292.672 25.3063 292.352C24.8263 292.016 24.4423 291.584 24.1543 291.056C23.8663 290.512 23.7063 289.856 23.6743 289.088H25.7143ZM40.3063 278.36H38.2663V275.864H40.3063V278.36ZM38.2663 280.592H40.3063V293H38.2663V280.592ZM47.9786 280.592H50.4506V282.392H47.9786V290.096C47.9786 290.336 47.9946 290.528 48.0266 290.672C48.0746 290.816 48.1546 290.928 48.2666 291.008C48.3786 291.088 48.5306 291.144 48.7226 291.176C48.9306 291.192 49.1946 291.2 49.5146 291.2H50.4506V293H48.8906C48.3626 293 47.9066 292.968 47.5226 292.904C47.1546 292.824 46.8506 292.688 46.6106 292.496C46.3866 292.304 46.2186 292.032 46.1066 291.68C45.9946 291.328 45.9386 290.864 45.9386 290.288V282.392H43.8266V280.592H45.9386V276.872H47.9786V280.592Z" fill="black"/>
<path d="M31.328 28.94L31.22 30.2C31.76 32.828 33.308 35.024 35.108 36.644C36.98 38.3 39.536 39.488 42.596 40.136C42.056 40.784 41.552 41.684 41.156 42.764C40.904 43.448 40.796 43.7 40.508 43.7C40.328 43.7 40.076 43.628 39.68 43.484C37.124 42.62 34.928 41.324 33.308 39.884C31.724 38.408 30.464 36.68 29.636 34.772C29.132 36.284 28.304 37.688 27.188 38.984C25.424 40.964 22.904 42.404 19.7 43.448C19.268 43.556 19.016 43.664 18.8 43.664C18.476 43.664 18.332 43.412 18.044 42.764C17.612 41.828 17.036 41.036 16.424 40.46C20.204 39.632 23.228 38.408 25.28 35.888C26.828 33.908 27.692 31.316 27.692 28.436C27.692 27.536 27.656 26.744 27.548 25.88C28.808 25.952 29.996 26.06 31.184 26.204C31.508 26.276 31.724 26.456 31.724 26.672C31.724 26.924 31.616 27.14 31.472 27.428C31.328 27.752 31.328 28.328 31.328 28.94ZM31.328 14.072L31.256 15.188C31.724 17.78 33.128 19.94 34.964 21.596C36.872 23.252 39.284 24.404 42.128 25.088C41.588 25.7 41.12 26.6 40.724 27.536C40.436 28.184 40.328 28.436 40.076 28.436C39.896 28.436 39.644 28.328 39.248 28.184C36.908 27.284 34.928 26.096 33.308 24.692C31.688 23.288 30.5 21.56 29.708 19.688C29.312 21.092 28.664 22.496 27.62 23.828C25.964 25.916 23.804 27.32 20.996 28.472C20.6 28.616 20.348 28.724 20.168 28.724C19.88 28.724 19.772 28.508 19.484 27.968C18.944 26.96 18.368 26.204 17.756 25.664C20.888 24.908 23.444 23.684 25.352 21.272C27.008 19.112 27.656 16.484 27.692 13.568C27.692 12.668 27.656 11.876 27.512 11.048C28.808 11.12 29.996 11.228 31.184 11.372C31.508 11.408 31.724 11.552 31.724 11.804C31.724 12.056 31.616 12.272 31.472 12.56C31.328 12.884 31.364 13.46 31.328 14.072ZM9.512 41.504C10.196 40.568 10.664 39.812 11.24 38.588C12.212 36.5 13.364 33.692 14.444 30.092C14.948 30.632 15.74 31.316 16.496 31.856C17.432 32.504 17.396 32.54 17.108 33.584C16.136 36.464 15.056 39.272 13.976 41.684C13.688 42.296 13.544 42.728 13.472 43.088C13.436 43.376 13.292 43.556 13.004 43.556C12.824 43.556 12.644 43.52 12.356 43.376C11.492 42.908 10.52 42.296 9.512 41.504ZM11.096 13.748L12.68 11.732C12.968 11.336 13.076 11.372 13.4 11.516C15.2 12.596 16.928 13.928 18.512 15.404C18.8 15.656 18.8 15.692 18.476 16.124L16.856 18.284C16.496 18.644 16.424 18.716 16.136 18.464C14.624 16.88 12.788 15.404 11.096 14.396C10.736 14.18 10.772 14.144 11.096 13.748ZM9.764 22.82L11.276 20.804C11.564 20.444 11.708 20.48 12.032 20.66C13.652 21.596 15.452 22.82 17.072 24.296C17.216 24.404 17.252 24.512 17.252 24.62C17.252 24.728 17.216 24.836 17.072 25.016L15.488 27.176C15.164 27.608 15.092 27.68 14.768 27.392C13.292 25.88 11.528 24.584 9.764 23.468C9.44 23.288 9.476 23.216 9.764 22.82ZM21.104 20.984L19.088 19.76C18.62 19.472 18.62 19.4 18.908 19.112C20.312 17.744 21.464 15.908 22.184 14.18C22.328 13.82 22.364 13.82 22.904 14.072L24.848 14.972C25.316 15.152 25.352 15.224 25.208 15.584C24.38 17.564 23.3 19.4 21.86 20.912C21.608 21.2 21.464 21.2 21.104 20.984ZM20.888 36.068L18.908 34.808C18.44 34.484 18.44 34.412 18.728 34.16C20.132 32.792 21.248 31.064 21.968 29.336C22.112 29.012 22.256 29.048 22.688 29.228L24.668 30.164C25.136 30.38 25.136 30.416 24.992 30.812C24.2 32.756 23.084 34.52 21.68 35.996C21.428 36.284 21.284 36.32 20.888 36.068ZM33.74 18.896C34.928 17.672 35.72 16.484 36.368 15.404C36.728 14.792 36.944 14.288 37.16 13.568C38.312 13.964 39.428 14.432 40.364 14.9C40.688 15.044 40.76 15.152 40.76 15.368C40.76 15.584 40.616 15.728 40.328 15.908C40.04 16.088 39.824 16.34 39.5 16.844C38.78 17.888 38.204 18.68 37.34 19.688C36.98 20.12 36.8 20.336 36.584 20.336C36.368 20.336 36.116 20.156 35.648 19.832C35.108 19.472 34.424 19.112 33.74 18.896ZM33.56 33.908C34.64 32.9 35.36 31.928 35.972 30.848C36.368 30.2 36.584 29.696 36.8 29.012C37.916 29.372 39.068 29.84 40.004 30.272C40.328 30.416 40.4 30.56 40.4 30.776C40.4 30.992 40.256 31.136 39.968 31.316C39.68 31.496 39.464 31.748 39.14 32.252C38.636 33.008 38.024 33.872 37.34 34.664C36.944 35.132 36.764 35.348 36.512 35.348C36.332 35.348 36.08 35.168 35.648 34.844C35.108 34.484 34.316 34.124 33.56 33.908ZM31.688 68.432H37.196C37.7 68.432 37.988 68.36 38.132 68.288C38.312 68.216 38.384 68.18 38.564 68.18C38.888 68.18 39.104 68.288 39.896 69.044C40.652 69.8 40.868 70.16 40.868 70.448C40.868 70.772 40.76 70.916 40.508 71.096C40.184 71.312 40.112 71.492 39.68 72.212C38.384 74.408 37.016 76.388 35.396 78.152C37.664 79.808 40.364 81.14 43.424 81.968C42.956 82.616 42.56 83.336 42.344 84.164C42.128 84.92 42.056 85.172 41.732 85.172C41.552 85.172 41.3 85.1 40.904 84.956L40.004 84.632C40.004 84.884 39.932 85.856 39.932 88.196V91.4C39.932 96.332 40.004 97.232 40.004 97.412C40.004 97.772 39.968 97.808 39.572 97.808H36.872C36.476 97.808 36.44 97.772 36.44 97.412V96.008H29.276V97.448C29.276 97.808 29.24 97.844 28.844 97.844H26.144C25.784 97.844 25.748 97.808 25.748 97.448C25.748 97.232 25.82 96.332 25.82 91.4V88.628C25.82 86.504 25.784 85.424 25.748 84.956L25.424 85.1C25.028 85.28 24.812 85.352 24.632 85.352C24.344 85.352 24.236 85.1 23.984 84.416C23.732 83.876 23.408 83.372 23.048 82.904V84.812C23.048 85.172 23.012 85.208 22.652 85.208C22.436 85.208 21.752 85.136 20.168 85.136H19.7V90.608C21.068 90.176 22.472 89.672 23.876 89.132C23.804 89.852 23.84 90.5 23.876 91.148C23.948 92.336 23.948 92.336 22.868 92.732C19.772 93.848 16.244 95 12.968 95.9C12.392 96.08 11.924 96.296 11.708 96.44C11.528 96.584 11.348 96.728 11.096 96.728C10.844 96.728 10.7 96.584 10.556 96.296C10.124 95.252 9.764 94.136 9.476 93.164C10.16 93.128 10.808 93.02 11.456 92.876V83.912C11.456 82.328 11.42 81.536 11.276 80.528C12.392 80.564 13.472 80.672 14.444 80.78C14.804 80.816 14.948 80.924 14.948 81.14C14.948 81.392 14.84 81.572 14.768 81.788C14.66 82.076 14.588 82.616 14.588 83.948V92.084C15.2 91.904 15.776 91.724 16.388 91.58V77.612H15.236C12.824 77.612 11.996 77.684 11.744 77.684C11.384 77.684 11.348 77.648 11.348 77.252C11.348 77.036 11.42 76.172 11.42 74.156V69.836C11.42 67.82 11.348 66.956 11.348 66.704C11.348 66.344 11.384 66.308 11.744 66.308C11.996 66.308 12.824 66.38 15.236 66.38H19.196C21.608 66.38 22.436 66.308 22.652 66.308C23.048 66.308 23.084 66.344 23.084 66.704C23.084 66.92 23.012 67.82 23.012 69.836V74.552C25.964 72.068 27.548 69.44 28.628 66.956C29.024 66.056 29.24 65.264 29.384 64.58C30.752 64.76 31.796 64.976 32.804 65.228C33.164 65.336 33.272 65.48 33.272 65.696C33.272 65.876 33.128 66.092 32.912 66.272C32.624 66.488 32.444 66.668 32.192 67.28C32.012 67.676 31.868 68.072 31.688 68.432ZM19.7 82.004H20.168C21.752 82.004 22.436 81.932 22.652 81.932C22.976 81.932 23.048 81.968 23.048 82.292C25.964 81.212 28.448 79.808 30.5 78.152C29.564 77.108 28.7 75.884 27.908 74.552C27.332 75.236 26.756 75.92 26.108 76.532C25.712 76.892 25.496 77.036 25.316 77.036C25.136 77.036 24.956 76.82 24.632 76.352C24.164 75.704 23.552 75.128 23.012 74.696C23.012 76.316 23.084 77.072 23.084 77.252C23.084 77.648 23.048 77.684 22.652 77.684C22.436 77.684 21.68 77.648 19.7 77.612V82.004ZM29.276 87.584V92.912H36.44V87.584H29.276ZM19.7 74.624V69.44H14.732V74.624H19.7ZM30.14 84.308H35.576C37.592 84.308 38.636 84.272 39.14 84.272C36.872 83.3 34.82 82.076 32.948 80.528C31.292 81.896 29.384 83.156 27.152 84.272C27.764 84.308 28.7 84.308 30.14 84.308ZM30.104 71.42L29.852 71.816C30.644 73.328 31.652 74.732 32.876 75.992C34.244 74.588 35.324 73.04 36.188 71.42H30.104ZM29.888 138.02V143.816C29.888 144.212 29.672 144.392 29.204 144.464C28.736 144.536 27.656 144.644 26.648 144.644C26.324 144.644 26.18 144.428 26.18 144.068C26.18 142.772 26.18 140.972 26.216 139.676C23.012 141.332 21.86 142.736 21.86 144.464C21.86 145.976 23.084 146.948 26.864 146.948C30.176 146.948 33.056 146.624 35.828 146.228C36.152 146.192 36.296 146.3 36.332 146.624C36.512 147.452 36.656 148.712 36.656 149.576C36.692 150.008 36.548 150.26 36.26 150.26C33.164 150.656 30.824 150.728 27.332 150.728C21.428 150.728 18.296 148.964 18.296 144.788C18.296 141.332 20.456 138.812 25.892 136.004C25.784 134.168 25.352 133.448 23.732 133.52C22.04 133.592 20.42 134.672 18.764 136.112C17.216 137.624 16.316 138.668 15.164 140.036C14.984 140.252 14.876 140.36 14.732 140.36C14.624 140.36 14.48 140.252 14.336 140.108C13.832 139.604 12.752 138.488 12.284 137.732C12.176 137.588 12.14 137.48 12.14 137.408C12.14 137.264 12.212 137.156 12.392 137.012C15.164 134.528 17.828 131.684 19.916 128.084C18.224 128.156 16.28 128.192 14.156 128.192C13.832 128.192 13.724 128.012 13.652 127.616C13.544 127.04 13.4 125.708 13.292 124.628C16.028 124.772 18.836 124.736 21.572 124.592C21.968 123.62 22.292 122.756 22.652 121.496C22.796 120.884 22.904 120.272 22.904 119.3C24.488 119.552 26.072 119.948 27.008 120.308C27.296 120.416 27.44 120.668 27.44 120.92C27.44 121.1 27.368 121.316 27.188 121.46C26.972 121.64 26.756 121.964 26.576 122.324C26.36 122.828 26.18 123.296 25.748 124.268C27.944 124.016 30.14 123.656 32.3 123.152C32.696 123.08 32.804 123.188 32.876 123.512C33.056 124.232 33.2 125.06 33.236 126.104C33.272 126.464 33.128 126.608 32.624 126.68C29.924 127.076 26.828 127.472 24.2 127.76C23.372 129.092 22.58 130.424 21.5 131.756L21.536 131.828C22.688 131.072 24.164 130.712 25.136 130.712C27.512 130.712 29.168 131.792 29.528 134.6C30.932 133.952 32.984 133.016 34.82 132.08C35.504 131.72 36.656 131.072 37.556 130.136C38.744 131.396 39.68 132.656 40.076 133.304C40.292 133.628 40.364 133.88 40.364 134.096C40.364 134.384 40.184 134.528 39.824 134.6C39.068 134.708 38.348 134.888 37.628 135.14C35.288 135.968 32.948 136.76 29.888 138.02ZM30.5 204.548H27.548C27.188 204.548 27.152 204.512 27.152 204.152C27.152 203.9 27.224 201.956 27.224 193.316V184.928C27.224 178.916 27.152 176.9 27.152 176.648C27.152 176.324 27.188 176.288 27.548 176.288C27.8 176.288 28.736 176.36 31.472 176.36H36.512C39.284 176.36 40.22 176.288 40.436 176.288C40.832 176.288 40.868 176.324 40.868 176.648C40.868 176.864 40.796 178.88 40.796 183.848V193.136C40.796 201.596 40.868 203.54 40.868 203.756C40.868 204.116 40.832 204.152 40.436 204.152H37.484C37.124 204.152 37.088 204.116 37.088 203.756V201.596H30.896V204.152C30.896 204.512 30.86 204.548 30.5 204.548ZM30.896 179.816V198.104H37.088V179.816H30.896ZM21.248 190.364H20.024C20.024 190.544 19.988 190.688 19.952 190.832C21.716 194.36 23.768 196.628 26.612 198.644C26.036 199.256 25.352 200.264 24.92 201.272C24.704 201.776 24.56 201.992 24.38 201.992C24.2 201.992 23.984 201.812 23.624 201.452C21.644 199.472 20.168 197.6 18.908 195.116C17.792 198.356 15.776 201.452 12.68 204.296C12.356 204.584 12.14 204.728 11.96 204.728C11.708 204.728 11.492 204.476 11.204 204.044C10.664 203.18 10.016 202.496 9.26 201.992C13.292 198.968 15.2 195.764 16.136 191.732C16.244 191.3 16.316 190.832 16.388 190.364H14.48C11.42 190.364 10.376 190.436 10.16 190.436C9.764 190.436 9.728 190.4 9.728 190.004V187.376C9.728 187.052 9.764 187.016 10.16 187.016C10.376 187.016 11.42 187.088 14.48 187.088H16.784C16.928 185.396 16.964 183.524 17 181.58H14.876C14.336 182.552 13.76 183.524 13.148 184.424C12.86 184.892 12.68 185.108 12.464 185.108C12.248 185.108 12.032 184.928 11.636 184.568C10.916 183.884 10.196 183.56 9.584 183.272C11.564 180.968 12.932 178.304 13.832 175.28C14.084 174.488 14.156 173.84 14.228 172.976C15.416 173.156 16.496 173.408 17.576 173.732C17.972 173.84 18.188 173.984 18.188 174.236C18.188 174.452 18.08 174.596 17.864 174.848C17.648 175.1 17.36 175.352 17.108 176.18C16.892 176.864 16.64 177.584 16.352 178.304H20.6C23.732 178.304 24.776 178.232 24.992 178.232C25.388 178.232 25.424 178.268 25.424 178.628V181.256C25.424 181.616 25.388 181.652 24.992 181.652C24.776 181.652 23.732 181.58 20.6 181.58C20.564 183.452 20.528 185.288 20.384 187.088H21.248C24.344 187.088 25.388 187.016 25.604 187.016C25.964 187.016 26 187.052 26 187.376V190.004C26 190.4 25.964 190.436 25.604 190.436C25.388 190.436 24.344 190.364 21.248 190.364ZM23.732 241.808L23.768 241.916C25.784 240.764 27.476 240.296 29.492 240.296C34.748 240.296 38.42 243.752 38.42 248.936C38.42 254.948 33.56 258.8 25.856 258.8C21.32 258.8 18.584 256.856 18.584 253.508C18.584 251.096 20.852 249.116 23.66 249.116C27.044 249.116 29.528 250.916 30.428 254.372C32.948 253.22 34.1 251.636 34.1 248.9C34.1 245.624 31.796 243.464 28.448 243.464C25.46 243.464 22.148 244.796 19.232 247.28C18.188 248.216 17.18 249.26 16.1 250.34C15.848 250.592 15.668 250.736 15.488 250.736C15.344 250.736 15.164 250.628 14.948 250.412C14.192 249.764 13.4 248.828 12.824 248.072C12.608 247.784 12.716 247.532 13.004 247.244C15.812 244.976 18.296 242.672 21.536 239.288C23.768 236.984 25.46 235.184 27.116 233.132C24.956 233.528 22.4 234.032 20.168 234.5C19.7 234.608 19.232 234.716 18.656 234.932C18.476 235.004 18.116 235.112 17.936 235.112C17.576 235.112 17.324 234.932 17.144 234.5C16.712 233.672 16.388 232.664 15.884 230.612C16.964 230.756 18.152 230.756 19.232 230.684C21.428 230.468 24.596 230 27.404 229.46C28.304 229.28 29.024 229.1 29.384 228.92C29.564 228.812 29.888 228.632 30.068 228.632C30.428 228.632 30.644 228.74 30.896 228.92C31.976 229.748 32.696 230.468 33.308 231.224C33.596 231.548 33.704 231.8 33.704 232.088C33.704 232.448 33.488 232.772 33.092 232.952C32.48 233.24 32.192 233.492 31.508 234.104C28.88 236.66 26.468 239.18 23.732 241.808ZM26.864 255.272C26.396 253.292 25.316 252.176 23.804 252.176C22.76 252.176 22.076 252.788 22.076 253.544C22.076 254.66 23.048 255.416 25.208 255.416C25.856 255.416 26.324 255.38 26.864 255.272Z" fill="black"/>
</svg>
