<svg width="152" height="75" viewBox="0 0 152 75" fill="none" xmlns="http://www.w3.org/2000/svg">
<path d="M14.875 20.1667H19.125V23.8334H14.875V20.1667ZM14.875 27.5H19.125V31.1667H14.875V27.5ZM23.375 20.1667H27.625V23.8334H23.375V20.1667ZM23.375 27.5H27.625V31.1667H23.375V27.5ZM31.875 20.1667H36.125V23.8334H31.875V20.1667ZM31.875 27.5H36.125V31.1667H31.875V27.5Z" fill="white"/>
<path d="M10.625 40.3334H40.375C42.7189 40.3334 44.625 38.6889 44.625 36.6667V11C44.625 8.97785 42.7189 7.33335 40.375 7.33335H36.125V3.66669H31.875V7.33335H19.125V3.66669H14.875V7.33335H10.625C8.28112 7.33335 6.375 8.97785 6.375 11V36.6667C6.375 38.6889 8.28112 40.3334 10.625 40.3334ZM40.375 14.6667L40.3771 36.6667H10.625V14.6667H40.375Z" fill="white"/>
<path d="M69.74 13.04H72.2V15.86H69.74V13.04ZM62.42 14.58H79.6V18.14H77.14V16.74H64.78V18.44H62.42V14.58ZM68.16 18.54H79.74V20.64H68.16V18.54ZM69.96 25.58H77.74V27.52H69.96V25.58ZM69.96 29.12H77.74V31.16H69.96V29.12ZM68.86 22.12H79V31.82H76.64V24.16H71.14V31.84H68.86V22.12ZM72.6 19.58L75.28 20.18C74.8 21.5 74.32 22.86 73.94 23.78L71.82 23.2C72.12 22.2 72.46 20.7 72.6 19.58ZM66.12 17.26L68.34 18C67.02 20.84 64.88 23.7 62.7 25.46C62.44 24.94 61.74 23.74 61.32 23.2C63.22 21.82 65.06 19.58 66.12 17.26ZM64.36 21.42L66.46 19.3L66.62 19.38V31.8H64.36V21.42ZM86.48 15L87.82 13.26C89.06 13.78 90.66 14.64 91.46 15.34L90.02 17.26C89.28 16.54 87.74 15.58 86.48 15ZM85.28 20.54L86.58 18.78C87.8 19.26 89.44 20.1 90.24 20.78L88.86 22.74C88.12 22.02 86.54 21.1 85.28 20.54ZM86.02 29.94C86.96 28.42 88.28 25.94 89.3 23.64L91.14 25.08C90.26 27.18 89.16 29.48 88.12 31.4L86.02 29.94ZM91.92 16.54H103V31.64H100.54V18.84H94.26V31.8H91.92V16.54ZM95.86 13.06L98.68 13.34C98.24 15.06 97.7 16.8 97.24 17.96L95.02 17.6C95.36 16.34 95.74 14.44 95.86 13.06ZM93.1 22.48H101.46V24.7H93.1V22.48ZM93.1 28.54H101.46V30.86H93.1V28.54ZM117.08 22.48H119.58V29.2C119.58 30.44 119.28 31.08 118.34 31.4C117.4 31.74 116.1 31.78 114.38 31.78C114.24 31.1 113.84 30.1 113.5 29.46C114.68 29.52 116.18 29.52 116.58 29.5C116.96 29.48 117.08 29.42 117.08 29.12V22.48ZM111.06 14.14H123.34V16.34H111.06V14.14ZM122.44 14.14H123.08L123.62 14L125.34 15.36C123.64 17.04 121.28 18.94 119.14 20.12C118.82 19.64 118.1 18.9 117.7 18.52C119.44 17.54 121.54 15.8 122.44 14.66V14.14ZM109.12 20.66H125.46V22.94H109.12V20.66ZM113.86 18.9L115.06 17.1C117.24 17.84 120.68 19.1 122.42 19.88L121.14 21.94C119.52 21.14 116.16 19.76 113.86 18.9ZM124.66 20.66H125.12L125.54 20.5L127.5 21.34C126.62 23.22 125.42 25.24 124.28 26.58L122.24 25.4C123.08 24.28 124.1 22.52 124.66 21.06V20.66ZM141.66 22.08L143.58 21.1C144.62 22.48 145.76 24.34 146.2 25.62L144.1 26.7C143.74 25.46 142.68 23.52 141.66 22.08ZM142.32 16.42H149.5V18.68H142.32V16.42ZM148.48 16.42H150.8C150.8 16.42 150.8 17.22 150.78 17.52C150.48 26.34 150.22 29.52 149.38 30.58C148.82 31.34 148.28 31.56 147.44 31.7C146.7 31.8 145.48 31.8 144.3 31.74C144.26 31.06 143.94 30.02 143.5 29.34C144.76 29.44 145.92 29.44 146.44 29.44C146.84 29.44 147.08 29.38 147.3 29.1C147.96 28.42 148.24 25.04 148.48 16.9V16.42ZM142.44 13L144.92 13.54C144.08 16.52 142.7 19.46 141.18 21.28C140.7 20.88 139.64 20.16 139.04 19.82C140.56 18.24 141.78 15.62 142.44 13ZM135.4 13.04L137.52 13.78C136.7 15.34 135.76 17.12 134.98 18.22L133.36 17.56C134.08 16.36 134.94 14.44 135.4 13.04ZM137.8 15.4L139.82 16.24C138.34 18.54 136.38 21.32 134.84 23.02L133.38 22.28C134.92 20.48 136.74 17.54 137.8 15.4ZM132.32 17.78L133.44 16.12C134.52 17.04 135.76 18.32 136.28 19.2L135.06 21.08C134.56 20.12 133.34 18.74 132.32 17.78ZM137.3 20.22L139 19.48C139.8 20.82 140.6 22.56 140.86 23.72L139.04 24.56C138.8 23.42 138.06 21.6 137.3 20.22ZM132.3 21.84C134.16 21.78 136.92 21.66 139.6 21.52V23.42C137.08 23.62 134.48 23.8 132.5 23.92L132.3 21.84ZM137.66 25.24L139.42 24.66C139.94 25.86 140.48 27.42 140.72 28.44L138.84 29.12C138.66 28.08 138.14 26.46 137.66 25.24ZM133.16 24.78L135.14 25.12C134.94 27.04 134.5 29.04 133.92 30.32C133.5 30.06 132.6 29.64 132.1 29.44C132.68 28.26 133 26.48 133.16 24.78ZM135.48 22.9H137.62V31.82H135.48V22.9Z" fill="white"/>
<path d="M37.46 61.86H41.26C42.34 61.86 43.1133 61.6733 43.58 61.3C44.06 60.9133 44.3 60.34 44.3 59.58C44.3 59.0733 44.22 58.6733 44.06 58.38C43.9 58.0867 43.68 57.86 43.4 57.7C43.12 57.54 42.7933 57.44 42.42 57.4C42.06 57.3467 41.6733 57.32 41.26 57.32H37.46V61.86ZM35.56 55.72H40.74C41.0467 55.72 41.3733 55.7267 41.72 55.74C42.08 55.74 42.4333 55.76 42.78 55.8C43.1267 55.8267 43.4467 55.8733 43.74 55.94C44.0467 56.0067 44.3067 56.1067 44.52 56.24C44.9867 56.52 45.38 56.9067 45.7 57.4C46.0333 57.8933 46.2 58.5 46.2 59.22C46.2 59.98 46.0133 60.64 45.64 61.2C45.28 61.7467 44.76 62.1533 44.08 62.42V62.46C44.96 62.6467 45.6333 63.0467 46.1 63.66C46.5667 64.2733 46.8 65.02 46.8 65.9C46.8 66.42 46.7067 66.9267 46.52 67.42C46.3333 67.9133 46.0533 68.3533 45.68 68.74C45.32 69.1133 44.8667 69.42 44.32 69.66C43.7867 69.8867 43.1667 70 42.46 70H35.56V55.72ZM37.46 68.4H42.22C43.06 68.4 43.7133 68.1733 44.18 67.72C44.66 67.2667 44.9 66.64 44.9 65.84C44.9 65.3733 44.8133 64.9867 44.64 64.68C44.4667 64.3733 44.2333 64.1333 43.94 63.96C43.66 63.7733 43.3333 63.6467 42.96 63.58C42.5867 63.5 42.2 63.46 41.8 63.46H37.46V68.4ZM51.6114 64.84C51.6114 65.4667 51.6914 66.0267 51.8514 66.52C52.0247 67 52.2581 67.4067 52.5514 67.74C52.8447 68.06 53.1847 68.3067 53.5714 68.48C53.9714 68.6533 54.3914 68.74 54.8314 68.74C55.2714 68.74 55.6847 68.6533 56.0714 68.48C56.4714 68.3067 56.8181 68.06 57.1114 67.74C57.4047 67.4067 57.6314 67 57.7914 66.52C57.9647 66.0267 58.0514 65.4667 58.0514 64.84C58.0514 64.2133 57.9647 63.66 57.7914 63.18C57.6314 62.6867 57.4047 62.2733 57.1114 61.94C56.8181 61.6067 56.4714 61.3533 56.0714 61.18C55.6847 61.0067 55.2714 60.92 54.8314 60.92C54.3914 60.92 53.9714 61.0067 53.5714 61.18C53.1847 61.3533 52.8447 61.6067 52.5514 61.94C52.2581 62.2733 52.0247 62.6867 51.8514 63.18C51.6914 63.66 51.6114 64.2133 51.6114 64.84ZM49.8114 64.84C49.8114 64.08 49.9181 63.3733 50.1314 62.72C50.3447 62.0533 50.6647 61.48 51.0914 61C51.5181 60.5067 52.0447 60.12 52.6714 59.84C53.2981 59.56 54.0181 59.42 54.8314 59.42C55.6581 59.42 56.3781 59.56 56.9914 59.84C57.6181 60.12 58.1447 60.5067 58.5714 61C58.9981 61.48 59.3181 62.0533 59.5314 62.72C59.7447 63.3733 59.8514 64.08 59.8514 64.84C59.8514 65.6 59.7447 66.3067 59.5314 66.96C59.3181 67.6133 58.9981 68.1867 58.5714 68.68C58.1447 69.16 57.6181 69.54 56.9914 69.82C56.3781 70.0867 55.6581 70.22 54.8314 70.22C54.0181 70.22 53.2981 70.0867 52.6714 69.82C52.0447 69.54 51.5181 69.16 51.0914 68.68C50.6647 68.1867 50.3447 67.6133 50.1314 66.96C49.9181 66.3067 49.8114 65.6 49.8114 64.84ZM64.4958 64.84C64.4958 65.4667 64.5758 66.0267 64.7358 66.52C64.9091 67 65.1424 67.4067 65.4358 67.74C65.7291 68.06 66.0691 68.3067 66.4558 68.48C66.8558 68.6533 67.2758 68.74 67.7158 68.74C68.1558 68.74 68.5691 68.6533 68.9558 68.48C69.3558 68.3067 69.7024 68.06 69.9958 67.74C70.2891 67.4067 70.5158 67 70.6758 66.52C70.8491 66.0267 70.9358 65.4667 70.9358 64.84C70.9358 64.2133 70.8491 63.66 70.6758 63.18C70.5158 62.6867 70.2891 62.2733 69.9958 61.94C69.7024 61.6067 69.3558 61.3533 68.9558 61.18C68.5691 61.0067 68.1558 60.92 67.7158 60.92C67.2758 60.92 66.8558 61.0067 66.4558 61.18C66.0691 61.3533 65.7291 61.6067 65.4358 61.94C65.1424 62.2733 64.9091 62.6867 64.7358 63.18C64.5758 63.66 64.4958 64.2133 64.4958 64.84ZM62.6958 64.84C62.6958 64.08 62.8024 63.3733 63.0158 62.72C63.2291 62.0533 63.5491 61.48 63.9758 61C64.4024 60.5067 64.9291 60.12 65.5558 59.84C66.1824 59.56 66.9024 59.42 67.7158 59.42C68.5424 59.42 69.2624 59.56 69.8758 59.84C70.5024 60.12 71.0291 60.5067 71.4558 61C71.8824 61.48 72.2024 62.0533 72.4158 62.72C72.6291 63.3733 72.7358 64.08 72.7358 64.84C72.7358 65.6 72.6291 66.3067 72.4158 66.96C72.2024 67.6133 71.8824 68.1867 71.4558 68.68C71.0291 69.16 70.5024 69.54 69.8758 69.82C69.2624 70.0867 68.5424 70.22 67.7158 70.22C66.9024 70.22 66.1824 70.0867 65.5558 69.82C64.9291 69.54 64.4024 69.16 63.9758 68.68C63.5491 68.1867 63.2291 67.6133 63.0158 66.96C62.8024 66.3067 62.6958 65.6 62.6958 64.84ZM76.2402 55.72H77.9402V64.18L82.6602 59.66H84.9402L80.8402 63.42L85.2402 70H83.0802L79.5402 64.6L77.9402 66.08V70H76.2402V55.72ZM95.1377 55.72H97.1577L104.678 67.3H104.718V55.72H106.518V70H104.438L96.9777 58.54H96.9377V70H95.1377V55.72ZM111.951 64.84C111.951 65.4667 112.031 66.0267 112.191 66.52C112.365 67 112.598 67.4067 112.891 67.74C113.185 68.06 113.525 68.3067 113.911 68.48C114.311 68.6533 114.731 68.74 115.171 68.74C115.611 68.74 116.025 68.6533 116.411 68.48C116.811 68.3067 117.158 68.06 117.451 67.74C117.745 67.4067 117.971 67 118.131 66.52C118.305 66.0267 118.391 65.4667 118.391 64.84C118.391 64.2133 118.305 63.66 118.131 63.18C117.971 62.6867 117.745 62.2733 117.451 61.94C117.158 61.6067 116.811 61.3533 116.411 61.18C116.025 61.0067 115.611 60.92 115.171 60.92C114.731 60.92 114.311 61.0067 113.911 61.18C113.525 61.3533 113.185 61.6067 112.891 61.94C112.598 62.2733 112.365 62.6867 112.191 63.18C112.031 63.66 111.951 64.2133 111.951 64.84ZM110.151 64.84C110.151 64.08 110.258 63.3733 110.471 62.72C110.685 62.0533 111.005 61.48 111.431 61C111.858 60.5067 112.385 60.12 113.011 59.84C113.638 59.56 114.358 59.42 115.171 59.42C115.998 59.42 116.718 59.56 117.331 59.84C117.958 60.12 118.485 60.5067 118.911 61C119.338 61.48 119.658 62.0533 119.871 62.72C120.085 63.3733 120.191 64.08 120.191 64.84C120.191 65.6 120.085 66.3067 119.871 66.96C119.658 67.6133 119.338 68.1867 118.911 68.68C118.485 69.16 117.958 69.54 117.331 69.82C116.718 70.0867 115.998 70.22 115.171 70.22C114.358 70.22 113.638 70.0867 113.011 69.82C112.385 69.54 111.858 69.16 111.431 68.68C111.005 68.1867 110.685 67.6133 110.471 66.96C110.258 66.3067 110.151 65.6 110.151 64.84ZM133.836 70H132.036L129.936 61.78H129.896L127.816 70H125.976L122.656 59.66H124.536L126.876 68.12H126.916L128.996 59.66H130.856L133.016 68.12H133.056L135.376 59.66H137.136L133.836 70Z" fill="white"/>
</svg>
