<svg width="263" height="378" viewBox="0 0 263 378" fill="none" xmlns="http://www.w3.org/2000/svg">
<path d="M24.624 108.136V136.072H19.8V123.472H8.172V136.072H3.348V108.136H8.172V119.512H19.8V108.136H24.624ZM13.788 161.668C20.952 161.668 25.74 166.852 25.74 176.104C25.74 185.32 20.916 190.612 13.752 190.612C6.588 190.612 1.8 185.392 1.8 176.176C1.8 166.924 6.66 161.668 13.788 161.668ZM13.788 165.412C9.684 165.412 6.948 168.976 6.948 176.14C6.948 183.268 9.684 186.868 13.788 186.868C17.892 186.868 20.592 183.268 20.592 176.14C20.592 168.976 17.892 165.412 13.788 165.412ZM24.48 216.136V234.424C24.48 241.12 20.376 244.576 13.932 244.576C7.452 244.576 3.276 241.228 3.276 234.424V216.136H8.136V234.352C8.136 238.924 10.332 240.868 14.04 240.868C17.712 240.868 19.944 238.924 19.944 234.352V216.136H24.48ZM21.528 276.616L16.812 277.912C16.092 274.888 14.436 273.34 11.844 273.34C8.892 273.34 7.2 274.744 7.2 276.976C7.2 279.424 8.28 280.54 12.312 281.656L13.788 282.088C20.16 283.816 21.96 286.228 21.96 290.332C21.96 295.228 18.576 298.612 11.88 298.612C6.444 298.612 2.664 296.236 1.332 291.376L5.976 289.9C6.696 293.14 8.82 294.94 11.772 294.94C15.444 294.94 17.1 293.356 17.1 290.944C17.1 288.532 16.236 287.416 11.664 286.12L10.224 285.688C4.284 283.924 2.376 281.584 2.376 277.3C2.376 273.088 5.688 269.668 11.7 269.668C16.596 269.668 20.052 271.972 21.528 276.616ZM21.78 324.136V327.988H8.208V335.368H18.468V339.22H8.208V348.22H22.068V352.072H3.348V324.136H21.78Z" fill="black"/>
<line x1="14.5" y1="59" x2="14.5" y2="90" stroke="black" stroke-width="3"/>
<path d="M21.528 19.616L16.812 20.912C16.092 17.888 14.436 16.34 11.844 16.34C8.892 16.34 7.2 17.744 7.2 19.976C7.2 22.424 8.28 23.54 12.312 24.656L13.788 25.088C20.16 26.816 21.96 29.228 21.96 33.332C21.96 38.228 18.576 41.612 11.88 41.612C6.444 41.612 2.664 39.236 1.332 34.376L5.976 32.9C6.696 36.14 8.82 37.94 11.772 37.94C15.444 37.94 17.1 36.356 17.1 33.944C17.1 31.532 16.236 30.416 11.664 29.12L10.224 28.688C4.284 26.924 2.376 24.584 2.376 20.3C2.376 16.088 5.688 12.668 11.7 12.668C16.596 12.668 20.052 14.972 21.528 19.616Z" fill="black"/>
<path d="M87.328 28.94L87.22 30.2C87.76 32.828 89.308 35.024 91.108 36.644C92.98 38.3 95.536 39.488 98.596 40.136C98.056 40.784 97.552 41.684 97.156 42.764C96.904 43.448 96.796 43.7 96.508 43.7C96.328 43.7 96.076 43.628 95.68 43.484C93.124 42.62 90.928 41.324 89.308 39.884C87.724 38.408 86.464 36.68 85.636 34.772C85.132 36.284 84.304 37.688 83.188 38.984C81.424 40.964 78.904 42.404 75.7 43.448C75.268 43.556 75.016 43.664 74.8 43.664C74.476 43.664 74.332 43.412 74.044 42.764C73.612 41.828 73.036 41.036 72.424 40.46C76.204 39.632 79.228 38.408 81.28 35.888C82.828 33.908 83.692 31.316 83.692 28.436C83.692 27.536 83.656 26.744 83.548 25.88C84.808 25.952 85.996 26.06 87.184 26.204C87.508 26.276 87.724 26.456 87.724 26.672C87.724 26.924 87.616 27.14 87.472 27.428C87.328 27.752 87.328 28.328 87.328 28.94ZM87.328 14.072L87.256 15.188C87.724 17.78 89.128 19.94 90.964 21.596C92.872 23.252 95.284 24.404 98.128 25.088C97.588 25.7 97.12 26.6 96.724 27.536C96.436 28.184 96.328 28.436 96.076 28.436C95.896 28.436 95.644 28.328 95.248 28.184C92.908 27.284 90.928 26.096 89.308 24.692C87.688 23.288 86.5 21.56 85.708 19.688C85.312 21.092 84.664 22.496 83.62 23.828C81.964 25.916 79.804 27.32 76.996 28.472C76.6 28.616 76.348 28.724 76.168 28.724C75.88 28.724 75.772 28.508 75.484 27.968C74.944 26.96 74.368 26.204 73.756 25.664C76.888 24.908 79.444 23.684 81.352 21.272C83.008 19.112 83.656 16.484 83.692 13.568C83.692 12.668 83.656 11.876 83.512 11.048C84.808 11.12 85.996 11.228 87.184 11.372C87.508 11.408 87.724 11.552 87.724 11.804C87.724 12.056 87.616 12.272 87.472 12.56C87.328 12.884 87.364 13.46 87.328 14.072ZM65.512 41.504C66.196 40.568 66.664 39.812 67.24 38.588C68.212 36.5 69.364 33.692 70.444 30.092C70.948 30.632 71.74 31.316 72.496 31.856C73.432 32.504 73.396 32.54 73.108 33.584C72.136 36.464 71.056 39.272 69.976 41.684C69.688 42.296 69.544 42.728 69.472 43.088C69.436 43.376 69.292 43.556 69.004 43.556C68.824 43.556 68.644 43.52 68.356 43.376C67.492 42.908 66.52 42.296 65.512 41.504ZM67.096 13.748L68.68 11.732C68.968 11.336 69.076 11.372 69.4 11.516C71.2 12.596 72.928 13.928 74.512 15.404C74.8 15.656 74.8 15.692 74.476 16.124L72.856 18.284C72.496 18.644 72.424 18.716 72.136 18.464C70.624 16.88 68.788 15.404 67.096 14.396C66.736 14.18 66.772 14.144 67.096 13.748ZM65.764 22.82L67.276 20.804C67.564 20.444 67.708 20.48 68.032 20.66C69.652 21.596 71.452 22.82 73.072 24.296C73.216 24.404 73.252 24.512 73.252 24.62C73.252 24.728 73.216 24.836 73.072 25.016L71.488 27.176C71.164 27.608 71.092 27.68 70.768 27.392C69.292 25.88 67.528 24.584 65.764 23.468C65.44 23.288 65.476 23.216 65.764 22.82ZM77.104 20.984L75.088 19.76C74.62 19.472 74.62 19.4 74.908 19.112C76.312 17.744 77.464 15.908 78.184 14.18C78.328 13.82 78.364 13.82 78.904 14.072L80.848 14.972C81.316 15.152 81.352 15.224 81.208 15.584C80.38 17.564 79.3 19.4 77.86 20.912C77.608 21.2 77.464 21.2 77.104 20.984ZM76.888 36.068L74.908 34.808C74.44 34.484 74.44 34.412 74.728 34.16C76.132 32.792 77.248 31.064 77.968 29.336C78.112 29.012 78.256 29.048 78.688 29.228L80.668 30.164C81.136 30.38 81.136 30.416 80.992 30.812C80.2 32.756 79.084 34.52 77.68 35.996C77.428 36.284 77.284 36.32 76.888 36.068ZM89.74 18.896C90.928 17.672 91.72 16.484 92.368 15.404C92.728 14.792 92.944 14.288 93.16 13.568C94.312 13.964 95.428 14.432 96.364 14.9C96.688 15.044 96.76 15.152 96.76 15.368C96.76 15.584 96.616 15.728 96.328 15.908C96.04 16.088 95.824 16.34 95.5 16.844C94.78 17.888 94.204 18.68 93.34 19.688C92.98 20.12 92.8 20.336 92.584 20.336C92.368 20.336 92.116 20.156 91.648 19.832C91.108 19.472 90.424 19.112 89.74 18.896ZM89.56 33.908C90.64 32.9 91.36 31.928 91.972 30.848C92.368 30.2 92.584 29.696 92.8 29.012C93.916 29.372 95.068 29.84 96.004 30.272C96.328 30.416 96.4 30.56 96.4 30.776C96.4 30.992 96.256 31.136 95.968 31.316C95.68 31.496 95.464 31.748 95.14 32.252C94.636 33.008 94.024 33.872 93.34 34.664C92.944 35.132 92.764 35.348 92.512 35.348C92.332 35.348 92.08 35.168 91.648 34.844C91.108 34.484 90.316 34.124 89.56 33.908ZM87.688 68.432H93.196C93.7 68.432 93.988 68.36 94.132 68.288C94.312 68.216 94.384 68.18 94.564 68.18C94.888 68.18 95.104 68.288 95.896 69.044C96.652 69.8 96.868 70.16 96.868 70.448C96.868 70.772 96.76 70.916 96.508 71.096C96.184 71.312 96.112 71.492 95.68 72.212C94.384 74.408 93.016 76.388 91.396 78.152C93.664 79.808 96.364 81.14 99.424 81.968C98.956 82.616 98.56 83.336 98.344 84.164C98.128 84.92 98.056 85.172 97.732 85.172C97.552 85.172 97.3 85.1 96.904 84.956L96.004 84.632C96.004 84.884 95.932 85.856 95.932 88.196V91.4C95.932 96.332 96.004 97.232 96.004 97.412C96.004 97.772 95.968 97.808 95.572 97.808H92.872C92.476 97.808 92.44 97.772 92.44 97.412V96.008H85.276V97.448C85.276 97.808 85.24 97.844 84.844 97.844H82.144C81.784 97.844 81.748 97.808 81.748 97.448C81.748 97.232 81.82 96.332 81.82 91.4V88.628C81.82 86.504 81.784 85.424 81.748 84.956L81.424 85.1C81.028 85.28 80.812 85.352 80.632 85.352C80.344 85.352 80.236 85.1 79.984 84.416C79.732 83.876 79.408 83.372 79.048 82.904V84.812C79.048 85.172 79.012 85.208 78.652 85.208C78.436 85.208 77.752 85.136 76.168 85.136H75.7V90.608C77.068 90.176 78.472 89.672 79.876 89.132C79.804 89.852 79.84 90.5 79.876 91.148C79.948 92.336 79.948 92.336 78.868 92.732C75.772 93.848 72.244 95 68.968 95.9C68.392 96.08 67.924 96.296 67.708 96.44C67.528 96.584 67.348 96.728 67.096 96.728C66.844 96.728 66.7 96.584 66.556 96.296C66.124 95.252 65.764 94.136 65.476 93.164C66.16 93.128 66.808 93.02 67.456 92.876V83.912C67.456 82.328 67.42 81.536 67.276 80.528C68.392 80.564 69.472 80.672 70.444 80.78C70.804 80.816 70.948 80.924 70.948 81.14C70.948 81.392 70.84 81.572 70.768 81.788C70.66 82.076 70.588 82.616 70.588 83.948V92.084C71.2 91.904 71.776 91.724 72.388 91.58V77.612H71.236C68.824 77.612 67.996 77.684 67.744 77.684C67.384 77.684 67.348 77.648 67.348 77.252C67.348 77.036 67.42 76.172 67.42 74.156V69.836C67.42 67.82 67.348 66.956 67.348 66.704C67.348 66.344 67.384 66.308 67.744 66.308C67.996 66.308 68.824 66.38 71.236 66.38H75.196C77.608 66.38 78.436 66.308 78.652 66.308C79.048 66.308 79.084 66.344 79.084 66.704C79.084 66.92 79.012 67.82 79.012 69.836V74.552C81.964 72.068 83.548 69.44 84.628 66.956C85.024 66.056 85.24 65.264 85.384 64.58C86.752 64.76 87.796 64.976 88.804 65.228C89.164 65.336 89.272 65.48 89.272 65.696C89.272 65.876 89.128 66.092 88.912 66.272C88.624 66.488 88.444 66.668 88.192 67.28C88.012 67.676 87.868 68.072 87.688 68.432ZM75.7 82.004H76.168C77.752 82.004 78.436 81.932 78.652 81.932C78.976 81.932 79.048 81.968 79.048 82.292C81.964 81.212 84.448 79.808 86.5 78.152C85.564 77.108 84.7 75.884 83.908 74.552C83.332 75.236 82.756 75.92 82.108 76.532C81.712 76.892 81.496 77.036 81.316 77.036C81.136 77.036 80.956 76.82 80.632 76.352C80.164 75.704 79.552 75.128 79.012 74.696C79.012 76.316 79.084 77.072 79.084 77.252C79.084 77.648 79.048 77.684 78.652 77.684C78.436 77.684 77.68 77.648 75.7 77.612V82.004ZM85.276 87.584V92.912H92.44V87.584H85.276ZM75.7 74.624V69.44H70.732V74.624H75.7ZM86.14 84.308H91.576C93.592 84.308 94.636 84.272 95.14 84.272C92.872 83.3 90.82 82.076 88.948 80.528C87.292 81.896 85.384 83.156 83.152 84.272C83.764 84.308 84.7 84.308 86.14 84.308ZM86.104 71.42L85.852 71.816C86.644 73.328 87.652 74.732 88.876 75.992C90.244 74.588 91.324 73.04 92.188 71.42H86.104ZM93.052 141.872H79.228V146.372H83.944V144.752C83.944 143.996 83.908 143.492 83.764 142.736C85.06 142.808 86.212 142.88 87.364 143.024C87.688 143.06 87.868 143.204 87.868 143.42C87.868 143.672 87.724 143.852 87.652 144.032C87.544 144.284 87.472 144.608 87.472 145.328V147.488C87.472 148.1 87.508 148.568 87.508 148.784C87.508 149.18 87.472 149.216 87.112 149.216C86.14 149.18 84.52 149.144 82.036 149.144H70.84V150.476C70.84 150.836 70.804 150.872 70.444 150.872H67.672C67.276 150.872 67.24 150.836 67.24 150.476C67.24 150.224 67.312 149.792 67.312 148.604V145.652C67.312 144.428 67.312 143.888 67.132 142.808C68.428 142.844 69.58 142.916 70.732 143.06C71.092 143.132 71.236 143.276 71.236 143.456C71.236 143.636 71.164 143.816 71.056 143.996C70.948 144.212 70.876 144.608 70.876 144.896V146.372H75.592V141.872C72.676 141.872 71.056 141.944 70.876 141.944C70.516 141.944 70.48 141.908 70.48 141.548C70.48 141.332 70.552 140 70.552 137.084V126.716C70.552 123.836 70.48 122.54 70.48 122.36C70.48 122 70.516 121.964 70.876 121.964C71.092 121.964 72.352 122.036 75.772 122.036H77.428C77.716 121.46 77.932 120.92 78.112 120.416C78.328 119.84 78.508 119.192 78.616 118.436C79.84 118.544 81.028 118.688 82.432 118.94C82.72 118.976 82.9 119.156 82.9 119.372C82.9 119.588 82.756 119.732 82.576 119.912C82.324 120.128 82.144 120.344 82 120.632C81.784 121.1 81.604 121.568 81.424 122.036H86.752C90.208 122.036 91.432 121.964 91.612 121.964C92.008 121.964 92.044 122 92.044 122.36C92.044 122.576 91.972 123.332 91.972 125.384V129.74C91.972 131.792 92.044 132.44 92.044 132.656C92.044 133.16 92.008 133.16 91.612 133.16C91.432 133.16 90.208 133.124 86.752 133.124H74.188V134.816H92.62C96.148 134.816 97.372 134.744 97.588 134.744C97.984 134.744 98.02 134.78 98.02 135.14V137.12C98.02 137.516 97.984 137.552 97.588 137.552C97.372 137.552 96.148 137.48 92.62 137.48H74.188V139.208H91.612C95.176 139.208 96.4 139.136 96.616 139.136C96.976 139.136 97.084 139.208 97.048 139.568C96.94 140.36 96.904 141.296 96.832 142.052C96.472 146.264 95.824 149.072 94.924 150.152C94.06 151.16 92.98 151.556 91.432 151.556C90.784 151.556 90.208 151.556 89.416 151.52C88.624 151.484 88.588 151.412 88.48 150.656C88.3 149.468 87.94 148.532 87.652 147.956C88.876 148.136 89.776 148.208 90.568 148.208C91.288 148.208 91.828 148.028 92.116 147.488C92.584 146.624 92.872 144.284 93.052 141.872ZM88.3 130.532V128.732H74.188V130.532H88.3ZM88.3 124.664H74.188V126.428H88.3V124.664Z" fill="black"/>
<path d="M145.684 22.136V22.784C145.684 27.716 145.468 31.28 144.856 34.34C144.172 37.472 142.876 40.136 141.184 42.62C140.896 43.016 140.716 43.232 140.536 43.232C140.356 43.232 140.176 43.016 139.816 42.62C139.168 41.828 138.376 41.072 137.764 40.64C139.564 38.624 140.896 35.996 141.544 32.936C141.724 32.144 141.832 31.316 141.94 30.452C141.292 30.848 140.608 31.208 139.96 31.568C139.42 31.856 138.988 32.144 138.808 32.324C138.628 32.468 138.484 32.576 138.268 32.576C138.088 32.576 137.908 32.432 137.836 32.18C137.512 31.28 137.224 30.164 136.936 28.94C138.052 28.724 139.024 28.364 139.816 28.04C140.68 27.68 141.472 27.32 142.192 26.924C142.264 25.52 142.264 23.936 142.264 22.136C142.264 16.592 142.192 14.144 142.192 13.928C142.192 13.568 142.228 13.532 142.624 13.532C142.84 13.532 144.1 13.604 147.556 13.604H154.036V13.28C154.036 12.38 153.964 11.48 153.784 10.616C155.116 10.616 156.34 10.688 157.636 10.796C157.996 10.832 158.212 10.976 158.212 11.156C158.212 11.408 158.104 11.588 157.996 11.84C157.852 12.164 157.816 12.596 157.816 13.172V13.604H164.728C168.184 13.604 169.372 13.532 169.588 13.532C169.948 13.532 169.984 13.568 169.984 13.928V16.268C169.984 16.664 169.948 16.7 169.588 16.7C169.372 16.7 168.184 16.628 164.728 16.628H159.796C162.784 19.004 166.06 20.48 170.848 21.632C170.416 22.064 169.948 22.82 169.66 23.504C169.336 24.188 169.228 24.44 168.904 24.44C168.724 24.44 168.472 24.368 168.076 24.224C165.952 23.504 164.044 22.676 162.316 21.74V23.072C162.316 23.432 162.28 23.468 161.92 23.468C161.704 23.468 161.128 23.396 159.112 23.396H156.448C154.468 23.396 153.856 23.468 153.64 23.468C153.28 23.468 153.244 23.432 153.244 23.072V21.884C151.588 22.856 149.86 23.648 148.024 24.296C147.628 24.44 147.376 24.512 147.196 24.512C146.872 24.512 146.764 24.26 146.476 23.576C146.26 23.072 145.972 22.532 145.684 22.136ZM145.684 16.628V21.74C149.536 20.624 153.064 18.824 155.62 16.628H145.684ZM154.576 21.056H159.112C160.084 21.056 160.696 21.056 161.128 21.02C159.904 20.264 158.752 19.4 157.78 18.428C156.808 19.4 155.728 20.264 154.576 21.056ZM157.456 28.4V30.128C157.456 31.352 157.492 32.828 157.492 33.332C157.492 33.98 157.276 34.628 156.664 35.06C156.124 35.42 155.584 35.492 154.072 35.528C153.208 35.528 153.172 35.564 152.992 34.664C152.92 34.304 152.704 33.584 152.524 33.296C153.1 33.368 153.496 33.404 154 33.404C154.54 33.404 154.72 33.224 154.72 32.576V32.216H150.616C150.616 34.124 150.688 35.06 150.688 35.276C150.688 35.636 150.652 35.672 150.292 35.672H148.204C147.844 35.672 147.808 35.636 147.808 35.276C147.808 35.024 147.88 34.304 147.88 32.324V28.112C147.88 26.096 147.808 25.268 147.808 25.088C147.808 24.728 147.844 24.692 148.204 24.692C148.42 24.692 149.068 24.764 151.192 24.764H154.144C156.232 24.764 156.88 24.692 157.132 24.692C157.492 24.692 157.528 24.728 157.528 25.088C157.528 25.268 157.456 26.312 157.456 28.4ZM154.72 26.708H150.616V27.86H154.72V26.708ZM150.616 30.596H154.72V29.444H150.616V30.596ZM154.864 38.264V39.56C154.864 40.208 155.008 40.46 155.368 40.568C155.836 40.712 156.844 40.784 157.96 40.784C159.04 40.784 160.048 40.748 160.696 40.388C161.236 40.064 161.38 39.38 161.416 38.012C162.064 38.336 162.784 38.624 163.612 38.84C164.62 39.056 164.62 39.056 164.44 39.956C164.152 41.54 163.54 42.296 162.784 42.728C161.668 43.304 159.868 43.448 157.78 43.448C155.26 43.448 153.784 43.304 152.884 42.908C152.2 42.584 151.696 42.08 151.696 40.928V38.732C151.696 37.724 151.66 37.04 151.552 36.248C152.632 36.284 153.64 36.356 154.648 36.428C155.08 36.464 155.188 36.608 155.188 36.788C155.188 36.932 155.116 37.004 155.044 37.148C154.936 37.364 154.864 37.652 154.864 38.264ZM168.112 28.796V33.26C168.112 34.16 167.788 34.772 167.14 35.168C166.528 35.528 165.772 35.816 163.864 35.852C162.748 35.924 162.748 35.924 162.496 34.772C162.352 34.16 162.136 33.44 161.884 33.044C162.712 33.152 163.324 33.188 164.08 33.188C164.836 33.188 165.088 32.9 165.088 32.252V28.292C165.088 26.96 165.052 25.628 164.872 24.656C166.168 24.692 166.996 24.764 167.968 24.908C168.292 24.944 168.508 25.124 168.508 25.268C168.508 25.556 168.4 25.7 168.292 25.952C168.112 26.348 168.112 27.176 168.112 28.796ZM159.616 29.552V28.184C159.616 27.14 159.616 26.276 159.436 25.124C160.552 25.16 161.38 25.232 162.352 25.268C162.712 25.304 162.82 25.448 162.82 25.628C162.82 25.808 162.784 25.952 162.676 26.204C162.568 26.456 162.496 26.924 162.496 28.076V29.552C162.496 31.1 162.568 31.82 162.568 32.036C162.568 32.36 162.532 32.396 162.172 32.396H159.94C159.58 32.396 159.544 32.36 159.544 32.036C159.544 31.784 159.616 31.1 159.616 29.552ZM137.656 17.852L139.276 17.024C139.744 16.772 139.852 16.808 139.996 17.132C140.86 18.968 141.436 20.372 142.048 22.388C142.156 22.748 142.12 22.856 141.688 23.108L140.104 24.044C139.888 24.152 139.744 24.224 139.636 24.224C139.528 24.224 139.456 24.152 139.384 23.936C138.844 21.956 138.232 20.444 137.368 18.464C137.188 18.104 137.188 18.104 137.656 17.852ZM164.872 37.256L166.384 36.32C166.6 36.212 166.708 36.14 166.816 36.14C166.924 36.14 166.996 36.212 167.14 36.356C168.4 37.688 169.408 38.984 170.344 40.532C170.524 40.856 170.524 40.892 170.128 41.18L168.436 42.368C168.004 42.62 167.896 42.62 167.716 42.26C166.744 40.604 165.844 39.236 164.656 37.904C164.44 37.652 164.476 37.508 164.872 37.256ZM146.584 42.764L145 41.54C144.568 41.252 144.568 41.144 144.82 40.892C145.936 39.74 146.944 38.336 147.628 36.824C147.808 36.464 147.916 36.464 148.384 36.716L149.968 37.58C150.4 37.796 150.472 37.868 150.292 38.228C149.5 39.956 148.564 41.396 147.376 42.728C147.232 42.872 147.16 42.98 147.016 42.98C146.908 42.98 146.8 42.908 146.584 42.764ZM156.988 35.672L158.536 34.88C158.932 34.664 158.968 34.7 159.256 34.988C159.976 35.744 160.552 36.356 161.2 37.22C161.452 37.58 161.416 37.616 160.912 37.904L159.292 38.84C158.86 39.092 158.824 39.056 158.608 38.696C157.996 37.688 157.456 36.968 156.772 36.212C156.52 35.924 156.556 35.888 156.988 35.672ZM145.612 66.596C147.268 66.776 148.996 66.956 150.112 67.244C150.724 67.388 150.976 67.568 150.976 67.928C150.976 68.324 150.76 68.756 150.616 69.116C150.436 69.62 150.292 70.736 150.112 73.508C149.752 79.052 149.572 82.724 149.572 87.44C149.572 91.076 150.004 91.904 152.884 91.904C156.088 91.904 161.092 89.96 165.484 85.28C165.628 86.648 165.952 87.836 166.312 88.7C166.492 89.096 166.6 89.348 166.6 89.564C166.6 89.888 166.456 90.176 165.88 90.68C161.992 94.244 156.916 96.08 152.236 96.08C147.628 96.08 145.468 94.244 145.468 88.736C145.468 82.688 145.792 77.504 145.972 73.184C146.044 71.06 146.152 68.756 145.612 66.596ZM156.448 126.932H156.304C155.476 133.052 153.964 138.668 151.804 142.448C150.256 145.148 148.384 146.588 145.684 146.588C142.516 146.588 139.312 143.204 139.312 137.336C139.312 133.88 140.788 130.568 143.38 127.976C146.404 124.952 150.22 123.368 155.08 123.368C163.72 123.368 168.796 128.696 168.796 135.86C168.796 142.556 165.016 146.768 157.708 148.964C156.952 149.18 156.628 149.036 156.16 148.316C155.764 147.704 155.008 146.876 153.64 146.048C159.724 144.608 164.512 142.088 164.512 135.284C164.512 131 161.272 126.932 156.448 126.932ZM152.128 127.148C149.608 127.652 147.592 128.66 145.972 130.424C144.244 132.368 143.164 134.78 143.164 137.084C143.164 140.396 144.496 142.232 145.612 142.232C146.548 142.232 147.34 141.764 148.312 140.036C149.896 137.12 151.516 131.936 152.128 127.148ZM165.484 194.576H163.756C162.1 198.968 158.752 202.748 153.928 205.448C153.496 205.664 153.208 205.808 152.992 205.808C152.776 205.808 152.632 205.628 152.344 205.268C151.732 204.44 151.048 203.864 150.544 203.576C155.368 201.308 158.608 198.212 160.372 194.576H157.996C156.016 197.816 152.776 200.66 148.924 202.532C148.492 202.748 148.24 202.856 148.06 202.856C147.772 202.856 147.628 202.64 147.34 202.244C146.836 201.524 146.188 200.912 145.756 200.624C149.176 199.256 152.344 197.276 154.288 194.576H151.588C150.328 195.944 148.852 197.06 147.448 197.852C147.016 198.104 146.728 198.212 146.548 198.212C146.296 198.212 146.152 198.032 145.864 197.6C145.432 196.988 145.036 196.556 144.64 196.196C143.848 198.716 142.912 201.416 142.012 203.576C141.76 204.152 141.58 204.656 141.58 204.98C141.58 205.268 141.4 205.52 141.148 205.52C140.968 205.52 140.788 205.448 140.464 205.304C139.636 204.872 138.592 204.296 137.584 203.504C138.232 202.568 138.628 201.884 139.132 200.696C140.032 198.608 141.184 195.476 142.12 191.948C142.624 192.488 143.452 193.172 144.244 193.712C145.144 194.324 145.144 194.36 144.892 195.404C144.856 195.512 144.82 195.584 144.82 195.656C147.052 194.576 148.744 193.244 150.076 191.444C150.4 191.012 150.76 190.472 150.94 189.968C147.844 189.968 146.656 190.04 146.476 190.04C146.08 190.04 146.044 190.004 146.044 189.644V187.304C146.044 186.944 146.08 186.908 146.476 186.908C146.692 186.908 147.916 186.98 151.444 186.98H164.908C168.436 186.98 169.66 186.908 169.876 186.908C170.236 186.908 170.272 186.944 170.272 187.304V189.644C170.272 190.004 170.236 190.04 169.876 190.04C169.66 190.04 168.436 189.968 164.908 189.968H152.668L153.928 190.328C154.288 190.436 154.504 190.58 154.504 190.796C154.504 191.048 154.396 191.156 154.216 191.264C154.036 191.372 153.892 191.516 153.604 191.948H164.152C167.32 191.948 168.436 191.876 168.652 191.876C169.012 191.876 169.12 191.984 169.084 192.308C168.976 193.424 168.904 194.648 168.832 195.692C168.652 198.86 168.328 201.02 167.716 202.64C166.996 204.548 165.664 205.412 163.468 205.412C162.82 205.412 162.28 205.412 161.632 205.34C160.804 205.268 160.732 205.268 160.516 204.152C160.336 203.252 160.012 202.424 159.616 201.812C160.948 202.028 162.064 202.064 162.892 202.064C163.684 202.064 164.224 201.92 164.548 200.912C164.872 199.976 165.196 198.284 165.484 194.576ZM154.396 174.092H161.704C164.836 174.092 165.952 174.02 166.168 174.02C166.528 174.02 166.564 174.056 166.564 174.452C166.564 174.668 166.492 175.532 166.492 177.548V181.832C166.492 183.884 166.564 184.712 166.564 184.928C166.564 185.324 166.528 185.36 166.168 185.36C165.952 185.36 164.836 185.288 161.704 185.288H154.396C151.264 185.288 150.184 185.36 149.932 185.36C149.572 185.36 149.536 185.324 149.536 184.928C149.536 184.712 149.608 183.884 149.608 181.832V177.548C149.608 175.532 149.536 174.668 149.536 174.452C149.536 174.056 149.572 174.02 149.932 174.02C150.184 174.02 151.264 174.092 154.396 174.092ZM162.964 182.696V180.968H153.028V182.696H162.964ZM153.028 176.792V178.448H162.964V176.792H153.028ZM139.312 175.604L140.896 173.624C141.184 173.264 141.328 173.3 141.616 173.48C143.452 174.56 145.036 175.82 146.584 177.26C146.728 177.404 146.8 177.476 146.8 177.548C146.8 177.656 146.728 177.764 146.584 177.98L144.964 180.212C144.64 180.644 144.604 180.68 144.316 180.392C142.804 178.772 141.004 177.26 139.312 176.252C138.988 176.036 138.988 176 139.312 175.604ZM137.692 184.712L139.24 182.732C139.564 182.336 139.672 182.3 139.996 182.48C141.616 183.416 143.416 184.676 145 186.152C145.18 186.296 145.252 186.404 145.252 186.512C145.252 186.584 145.18 186.728 145.036 186.908L143.452 189.104C143.164 189.5 143.056 189.572 142.768 189.284C141.328 187.808 139.672 186.476 137.764 185.324C137.584 185.216 137.512 185.108 137.512 185.036C137.512 184.928 137.584 184.856 137.692 184.712ZM156.412 239.396H154.324C151.012 239.396 149.896 239.468 149.68 239.468C149.32 239.468 149.284 239.432 149.284 239.072V236.516C149.284 236.156 149.32 236.12 149.68 236.12C149.896 236.12 151.012 236.192 154.324 236.192H162.316C164.044 236.192 165.124 236.192 165.844 236.156V233.096H142.516V237.452C142.516 237.812 142.48 237.848 142.12 237.848H139.168C138.808 237.848 138.772 237.812 138.772 237.452C138.772 237.2 138.844 236.696 138.844 233.564V232.268C138.844 231.008 138.772 230.468 138.772 230.216C138.772 229.856 138.808 229.82 139.168 229.82C139.384 229.82 140.572 229.892 143.884 229.892H151.876V229.388C151.876 228.452 151.84 227.624 151.624 226.724C152.92 226.76 154.252 226.832 155.476 226.94C155.836 226.976 156.052 227.12 156.052 227.264C156.052 227.516 155.944 227.732 155.836 227.984C155.692 228.272 155.656 228.632 155.656 229.46V229.892H164.44C167.716 229.892 168.904 229.82 169.156 229.82C169.48 229.82 169.516 229.856 169.516 230.216C169.516 230.432 169.444 231.008 169.444 232.016V233.564C169.444 236.552 169.516 237.092 169.516 237.308C169.516 237.668 169.48 237.704 169.156 237.704H167.32V239.072C167.32 239.432 167.284 239.468 166.924 239.468C166.708 239.468 165.628 239.396 162.316 239.396H160.228C159.832 240.62 159.436 241.664 158.932 242.744H162.424C165.628 242.744 166.708 242.672 166.96 242.672C167.32 242.672 167.356 242.708 167.356 243.104C167.356 243.32 167.284 244.472 167.284 247.784V252.644C167.284 257.936 167.356 259.196 167.356 259.376C167.356 259.736 167.32 259.772 166.96 259.772H164.08C163.684 259.772 163.648 259.736 163.648 259.376V258.332H153.712V259.484C153.712 259.844 153.676 259.88 153.316 259.88H150.472C150.112 259.88 150.076 259.844 150.076 259.484C150.076 259.268 150.148 258.008 150.148 252.716V248.396C150.148 244.472 150.076 243.32 150.076 243.104C150.076 242.708 150.112 242.672 150.472 242.672C150.688 242.672 151.804 242.744 155.008 242.744H155.188C155.656 241.628 156.088 240.548 156.412 239.396ZM153.712 255.2H163.648V251.996H153.712V255.2ZM153.712 245.84V248.936H163.648V245.84H153.712ZM142.408 254.84V251.024C142.408 249.584 142.408 247.748 142.444 246.02C141.724 246.884 140.968 247.712 140.212 248.54C139.852 248.864 139.672 249.044 139.492 249.044C139.276 249.044 139.132 248.792 138.88 248.288C138.448 247.352 137.908 246.596 137.296 245.948C140.536 243.212 142.84 239.792 144.352 237.02C144.712 236.264 145.072 235.256 145.288 234.428C146.548 234.896 147.628 235.4 148.528 235.904C148.96 236.12 149.14 236.336 149.14 236.588C149.14 236.876 148.96 237.056 148.672 237.236C148.348 237.452 148.024 237.812 147.52 238.748C147.088 239.54 146.584 240.368 146.044 241.196V254.84C146.044 257.828 146.116 259.268 146.116 259.448C146.116 259.808 146.08 259.844 145.684 259.844H142.768C142.372 259.844 142.336 259.808 142.336 259.448C142.336 259.268 142.408 257.828 142.408 254.84Z" fill="black"/>
<path d="M230.468 43.592H227.336C226.976 43.592 226.94 43.556 226.94 43.196C226.94 42.98 227.012 41.072 227.012 31.46V24.8C227.012 18.104 226.94 16.124 226.94 15.872C226.94 15.512 226.976 15.476 227.336 15.476C227.588 15.476 228.848 15.548 232.34 15.548H234.68C235.256 14.396 235.58 13.46 236.012 12.164C236.192 11.696 236.3 11.156 236.408 10.472C237.632 10.58 239.216 10.832 240.26 11.012C240.584 11.084 240.764 11.3 240.764 11.48C240.764 11.696 240.62 11.84 240.476 11.984C240.224 12.272 240.044 12.524 239.936 12.848C239.576 13.712 239.252 14.468 238.676 15.548H245.696C249.188 15.548 250.448 15.476 250.7 15.476C251.06 15.476 251.096 15.512 251.096 15.872C251.096 16.088 251.024 18.104 251.024 23.828V31.424C251.024 41.036 251.096 42.944 251.096 43.124C251.096 43.484 251.06 43.52 250.7 43.52H247.496C247.136 43.52 247.1 43.484 247.1 43.124V41.504H230.864V43.196C230.864 43.556 230.828 43.592 230.468 43.592ZM230.864 38.048H247.1V33.728H230.864V38.048ZM230.864 30.344H247.1V26.312H230.864V30.344ZM230.864 19.004V22.928H247.1V19.004H230.864ZM249.656 75.992H247.424C248.972 80.132 251.78 83.012 255.452 84.956C254.84 85.748 254.336 86.576 253.904 87.584C253.652 88.16 253.508 88.412 253.292 88.412C253.076 88.412 252.86 88.268 252.464 87.98C249.08 85.604 246.632 82.292 245.408 78.836C244.076 82.904 241.592 85.856 238.172 87.98C237.776 88.232 237.56 88.34 237.38 88.34C237.164 88.34 237.02 88.124 236.66 87.656C236.012 86.792 235.4 86.216 234.644 85.748C239 83.444 241.556 80.42 242.708 75.992H242.06C238.892 75.992 237.848 76.064 237.632 76.064C235.58 80.888 232.232 85.244 226.364 88.448C225.932 88.664 225.68 88.772 225.464 88.772C225.212 88.772 225.068 88.556 224.708 87.98C224.204 87.188 223.628 86.576 222.908 86.072C225.32 85.1 227.408 83.768 229.172 82.184C228.344 81.212 227.408 80.384 226.436 79.664C226.112 79.448 226.112 79.412 226.472 79.052L227.876 77.648C228.2 77.324 228.272 77.36 228.596 77.576C229.568 78.188 230.612 79.124 231.368 79.916C231.836 79.376 232.268 78.764 232.664 78.152C231.8 77.216 230.864 76.46 230 75.884C229.712 75.704 229.712 75.632 230 75.272L231.332 73.724C231.62 73.4 231.692 73.4 232.016 73.58C232.736 74.048 233.456 74.552 234.284 75.272C234.752 74.192 235.184 73.076 235.508 71.888H230.936C229.64 74.156 228.056 76.172 226.04 77.936C225.644 78.296 225.392 78.512 225.14 78.512C224.924 78.512 224.708 78.296 224.384 77.828C223.88 77.108 223.34 76.568 222.728 76.136C225.788 73.868 228.056 70.952 229.532 67.064C229.892 66.236 230.072 65.444 230.18 64.724C231.296 64.904 232.304 65.12 233.312 65.408C233.708 65.516 233.852 65.66 233.852 65.876C233.852 66.092 233.78 66.164 233.6 66.38C233.384 66.596 233.204 66.92 232.952 67.568L232.448 68.792H236.264C236.516 68.792 236.768 68.792 236.912 68.72C237.092 68.648 237.236 68.576 237.416 68.576C237.668 68.576 237.884 68.684 238.604 69.368C239.396 70.088 239.648 70.412 239.648 70.7C239.648 70.952 239.576 71.06 239.396 71.276C239.216 71.528 239.036 72.104 238.856 72.644H243.248C243.32 71.852 243.356 71.024 243.392 70.16C243.392 68 243.392 66.704 243.212 65.192C244.508 65.192 245.48 65.228 246.776 65.372C247.136 65.444 247.352 65.624 247.352 65.768C247.352 65.984 247.316 66.128 247.136 66.416C246.992 66.668 246.92 67.46 246.92 69.872C246.92 70.808 246.848 71.744 246.776 72.644H249.656C252.824 72.644 253.904 72.572 254.12 72.572C254.48 72.572 254.516 72.608 254.516 72.968V75.704C254.516 76.028 254.48 76.064 254.12 76.064C253.904 76.064 252.824 75.992 249.656 75.992ZM247.712 89.6L249.728 88.592C250.124 88.412 250.232 88.412 250.448 88.664C252.068 90.572 253.652 92.876 254.84 95.18C255.02 95.54 254.984 95.612 254.552 95.864L252.284 97.268C251.816 97.52 251.708 97.484 251.564 97.16C250.448 94.676 249.008 92.372 247.46 90.212C247.244 89.924 247.244 89.816 247.712 89.6ZM225.68 97.412L223.556 95.828C223.088 95.468 223.088 95.396 223.34 95.144C225.176 93.416 226.652 91.328 227.66 89.132C227.804 88.772 227.84 88.736 228.38 88.988L230.36 89.96C230.756 90.14 230.792 90.248 230.648 90.608C229.496 93.308 228.128 95.54 226.436 97.412C226.292 97.556 226.22 97.628 226.112 97.628C226.004 97.628 225.896 97.556 225.68 97.412ZM233.744 89.744L236.012 89.564C236.48 89.528 236.552 89.528 236.66 89.924C237.164 91.976 237.38 94.316 237.56 96.692C237.56 97.052 237.452 97.196 236.984 97.232L234.428 97.376C233.888 97.412 233.816 97.376 233.816 97.016C233.816 94.712 233.636 92.336 233.24 90.212C233.168 89.852 233.276 89.78 233.744 89.744ZM240.764 89.852L242.924 89.348C243.392 89.24 243.464 89.276 243.608 89.6C244.472 91.58 245.156 94.028 245.624 96.152C245.732 96.548 245.66 96.656 245.192 96.764L242.6 97.34C242.06 97.484 242.024 97.448 241.952 97.052C241.592 94.748 241.088 92.408 240.368 90.392C240.224 90.068 240.26 89.96 240.764 89.852ZM248.54 67.172L250.232 66.272C250.592 66.092 250.7 66.056 250.916 66.344C251.78 67.352 252.752 68.648 253.616 70.016C253.796 70.34 253.796 70.448 253.4 70.7L251.636 71.78C251.42 71.924 251.312 71.996 251.24 71.996C251.132 71.996 251.06 71.888 250.952 71.672C250.196 70.232 249.26 68.9 248.36 67.82C248.108 67.496 248.108 67.388 248.54 67.172ZM227.624 121.568C229.244 121.964 230.396 122.324 231.476 122.9C232.088 123.224 232.304 123.44 232.304 123.764C232.304 124.016 232.232 124.124 231.764 124.844C231.404 125.492 231.224 125.996 230.9 127.4C229.892 131.864 229.388 136.292 229.388 139.028C229.388 140.792 229.46 141.98 229.604 143.24C230.36 141.584 231.008 140.396 232.052 137.876C232.34 138.776 232.808 139.352 233.312 140.144C233.42 140.324 233.564 140.54 233.564 140.684C233.564 140.936 233.492 141.08 233.384 141.26C232.556 143.132 231.872 144.68 231.332 146.696C231.26 146.912 231.224 147.308 231.224 147.812C231.224 148.244 231.296 148.532 231.296 148.82C231.296 149.072 231.152 149.216 230.828 149.288C229.928 149.54 228.92 149.756 227.876 149.864C227.624 149.9 227.48 149.72 227.408 149.468C226.4 146.948 225.752 142.376 225.752 138.74C225.752 135.5 226.148 131.576 226.976 126.932C227.444 124.268 227.624 123.08 227.624 121.568ZM235.904 140.144L239.18 139.856C239.468 139.82 239.54 140 239.54 140.396C239.756 142.88 241.484 143.78 245.408 143.78C248.108 143.78 249.872 143.6 252.284 143.312C252.644 143.276 252.716 143.312 252.788 143.78C252.896 144.536 253.004 145.94 253.004 146.876C253.004 147.308 253.004 147.344 252.392 147.416C249.944 147.704 248.216 147.812 246.524 147.812C241.196 147.812 238.712 146.948 237.164 144.824C236.264 143.672 235.904 141.836 235.904 140.144ZM237.056 129.92C237.092 127.904 237.092 127.004 237.164 126.392C237.2 125.96 237.308 125.852 237.668 125.78C239.792 125.384 243.824 125.132 245.48 125.132C247.64 125.132 249.296 125.204 250.808 125.348C251.564 125.384 251.636 125.456 251.636 125.816C251.636 126.896 251.636 127.868 251.564 128.876C251.528 129.2 251.42 129.344 251.096 129.308C248.936 129.164 247.064 129.092 245.228 129.092C242.816 129.092 240.476 129.308 237.056 129.92ZM237.236 183.128H241.052C241.052 181.292 240.98 180.104 240.8 178.988C242.168 179.024 243.356 179.096 244.4 179.24C244.76 179.312 244.94 179.456 244.94 179.636C244.94 179.852 244.868 179.996 244.76 180.248C244.58 180.608 244.508 181.4 244.508 183.128C246.776 183.128 247.676 183.056 247.856 183.056C248.18 183.056 248.216 183.092 248.216 183.452V185.864C248.216 186.224 248.18 186.26 247.856 186.26C247.676 186.26 246.776 186.224 244.508 186.188V189.716C247.316 189.716 248.324 189.644 248.54 189.644C248.9 189.644 248.936 189.68 248.936 190.076V192.488C248.936 192.848 248.9 192.884 248.54 192.884C248.324 192.884 247.316 192.848 244.508 192.812V194.036C244.508 197.096 244.58 198.536 244.58 198.752C244.58 199.076 244.544 199.112 244.184 199.112H241.376C241.016 199.112 240.98 199.076 240.98 198.752C240.98 198.536 241.052 197.096 241.052 194.036V192.812H236.84C236.264 195.584 235.112 197.24 233.384 198.968C232.988 199.328 232.772 199.544 232.556 199.544C232.34 199.544 232.124 199.364 231.728 198.968C231.044 198.248 230.36 197.816 229.64 197.42C231.44 196.052 232.592 194.792 233.204 192.812C230.648 192.848 229.676 192.884 229.496 192.884C229.136 192.884 229.1 192.848 229.1 192.488V190.076C229.1 189.68 229.136 189.644 229.496 189.644C229.676 189.644 230.792 189.716 233.708 189.716C233.744 189.176 233.78 188.6 233.78 187.988V186.188C231.404 186.224 230.468 186.26 230.288 186.26C229.964 186.26 229.928 186.224 229.928 185.864V183.452C229.928 183.092 229.964 183.056 230.288 183.056C230.468 183.056 231.404 183.128 233.78 183.128V182.948C233.78 181.076 233.744 180.14 233.6 178.88C234.788 178.916 235.94 178.988 237.02 179.132C237.38 179.204 237.596 179.348 237.596 179.6C237.596 179.744 237.56 179.888 237.452 180.14C237.308 180.464 237.236 181.292 237.236 182.768V183.128ZM237.2 189.716H241.052V186.188H237.236V187.88C237.236 188.528 237.236 189.14 237.2 189.716ZM227.48 205.916H224.384C224.024 205.916 223.988 205.88 223.988 205.52C223.988 205.268 224.06 202.856 224.06 191.696V184.532C224.06 177.404 223.988 174.884 223.988 174.668C223.988 174.308 224.024 174.272 224.384 174.272C224.636 174.272 225.824 174.344 229.172 174.344H248.828C252.212 174.344 253.364 174.272 253.616 174.272C253.976 174.272 254.012 174.308 254.012 174.668C254.012 174.884 253.94 177.404 253.94 183.308V191.66C253.94 202.82 254.012 205.268 254.012 205.484C254.012 205.844 253.976 205.88 253.616 205.88H250.52C250.16 205.88 250.124 205.844 250.124 205.484V203.864H227.876V205.52C227.876 205.88 227.84 205.916 227.48 205.916ZM227.876 177.728V200.444H250.124V177.728H227.876ZM237.524 249.08C237.452 247.496 237.38 246.02 237.344 244.796C234.86 244.868 232.412 244.868 229.928 244.652C229.532 244.652 229.388 244.508 229.352 244.04C229.208 243.248 229.136 241.808 229.136 240.98C231.8 241.304 234.536 241.376 237.236 241.268C237.2 239.9 237.2 238.496 237.164 237.128C233.708 237.236 231.116 237.236 228.56 236.948C228.164 236.948 227.984 236.804 227.948 236.444C227.84 235.544 227.768 234.68 227.696 233.204C230.828 233.564 233.96 233.564 237.128 233.564C237.128 232.232 237.092 231.296 237.056 230.072C236.984 229.244 236.912 228.596 236.624 227.66C238.532 227.768 240.08 227.984 241.16 228.308C241.592 228.452 241.808 228.956 241.556 229.388C241.304 229.892 241.052 230.504 241.016 231.116C240.98 231.836 240.98 232.34 240.944 233.42C244.292 233.168 246.704 232.772 248.828 232.34C249.26 232.232 249.404 232.34 249.44 232.772C249.584 233.78 249.62 234.752 249.62 235.4C249.62 235.868 249.512 235.94 249.224 235.976C246.668 236.408 244.364 236.696 240.908 236.912C240.908 238.352 240.944 239.684 240.944 240.98C243.68 240.8 245.408 240.44 248 240.044C248.432 239.936 248.54 240.008 248.576 240.332C248.612 241.016 248.684 242.204 248.684 243.284C248.684 243.644 248.54 243.752 248.144 243.788C245.768 244.184 244.112 244.436 241.088 244.652C241.16 246.308 241.232 248.072 241.34 249.728C244.796 250.7 247.748 251.996 250.88 254.084C251.24 254.408 251.24 254.516 251.132 254.948C250.88 255.632 250.124 256.964 249.548 257.612C249.404 257.828 249.26 257.9 249.08 257.9C248.972 257.9 248.828 257.864 248.684 257.72C246.488 255.992 244.256 254.732 241.52 253.616C241.484 257.504 239.144 259.088 234.212 259.088C229.532 259.088 226.868 257.036 226.868 254.048C226.868 251.132 229.712 248.936 234.068 248.936C234.968 248.936 235.832 248.936 237.524 249.08ZM237.596 252.5C236.552 252.248 235.256 252.068 234.248 252.068C231.62 252.068 230.36 252.824 230.36 253.976C230.36 254.912 231.44 255.596 233.924 255.596C235.364 255.596 236.696 255.164 237.2 254.516C237.488 254.12 237.596 253.508 237.596 252.5ZM230.936 290.3V285.404C230.936 284.072 230.864 282.992 230.576 281.912C232.088 282.056 233.6 282.236 234.68 282.596C235.256 282.74 235.436 282.956 235.436 283.316C235.436 283.532 235.328 283.748 235.184 284C235.004 284.324 234.932 284.756 234.86 285.764C234.788 286.952 234.752 287.708 234.68 289.364C235.184 289.616 235.688 289.904 236.048 290.156C236.264 290.3 236.372 290.48 236.372 290.66C236.372 290.768 236.3 290.912 236.192 291.056C235.508 292.172 234.896 293.288 234.32 294.476V294.656C235.472 293.36 236.264 292.532 237.668 291.164C240.512 288.464 242.492 287.636 244.184 287.636C246.884 287.636 248.504 289.436 248.504 292.424C248.504 293.468 248.468 295.664 248.216 298.976C248.036 302.288 247.856 303.908 247.856 305.024C247.856 306.824 248.288 307.076 249.188 307.076C249.98 307.076 250.952 306.536 251.852 305.78C252.392 305.312 253.112 304.52 254.012 302.756C254.48 304.052 254.768 304.7 255.344 305.456C255.596 305.78 255.74 305.996 255.74 306.284C255.74 306.464 255.668 306.644 255.488 306.896C253.976 309.02 251.672 311.036 248.576 311.036C245.48 311.036 243.968 309.272 243.968 305.528C243.968 304.556 244.076 302.54 244.256 299.48C244.436 296.312 244.508 295.124 244.508 293.576C244.508 291.992 244.112 291.2 243.392 291.2C242.348 291.2 241.124 291.956 239.36 293.54C237.884 294.98 236.192 296.672 234.32 298.832C234.356 303.368 234.464 308.552 234.464 312.476C234.464 312.8 234.32 312.98 233.96 312.98C233.492 313.052 232.088 313.124 231.152 313.124C230.792 313.124 230.648 312.944 230.648 312.512C230.648 309.236 230.648 305.456 230.756 302.216C229.352 304.412 227.912 306.644 226.58 308.696C226.436 308.948 226.328 309.056 226.184 309.056C226.076 309.056 225.932 308.984 225.752 308.876C225.176 308.516 224.024 307.508 223.52 306.86C223.376 306.716 223.304 306.608 223.304 306.464C223.304 306.248 223.448 306.032 223.628 305.852C226.616 302.036 228.488 299.48 230.684 296.384C230.684 295.484 230.684 294.8 230.72 293.936C229.496 294.26 227.732 294.8 226.4 295.376C226.076 295.52 225.716 295.88 225.356 295.88C225.068 295.88 224.816 295.664 224.636 295.304C224.132 294.476 223.736 293.396 223.232 291.992C224.24 291.956 224.852 291.848 225.86 291.668C227.084 291.38 229.1 290.876 230.936 290.3ZM236.804 342.5C238.208 342.248 240.152 341.78 241.916 341.276C242.312 341.168 242.456 341.348 242.492 341.636C242.6 342.428 242.708 343.472 242.744 344.228C242.78 344.696 242.672 344.804 242.204 344.912C239.972 345.524 238.136 345.92 235.94 346.28C233.492 354.272 231.656 359.78 229.352 365.756C229.172 366.26 228.956 366.224 228.56 366.116C228.2 365.972 226.436 365.216 225.68 364.784C225.392 364.604 225.284 364.316 225.392 364.064C228.128 357.764 229.856 353.012 231.62 347C229.532 347.216 227.012 347.396 225.32 347.396C224.78 347.396 224.636 347.288 224.564 346.82C224.42 346.064 224.24 344.84 224.06 343.544C224.816 343.652 225.248 343.652 226.724 343.652C228.524 343.652 230.468 343.544 232.556 343.292C232.916 341.852 233.204 340.268 233.456 338.792C233.6 337.712 233.672 336.632 233.672 335.48C235.58 335.768 237.056 336.02 238.208 336.488C238.496 336.596 238.604 336.848 238.604 337.064C238.604 337.208 238.604 337.388 238.424 337.64C238.136 338.144 237.848 338.504 237.668 339.08C237.308 340.376 237.056 341.6 236.804 342.5ZM237.452 359.024C238.568 358.736 240.044 358.484 240.512 358.484C240.872 358.484 241.016 358.628 241.052 358.988C241.34 361.616 243.104 362.372 246.56 362.372C248.576 362.372 251.168 362.048 252.608 361.868C252.896 361.832 253.004 361.904 253.04 362.192C253.184 363.128 253.328 364.352 253.328 365.324C253.364 365.756 253.328 365.864 252.752 365.9C251.528 366.08 249.188 366.296 247.856 366.296C243.14 366.296 240.692 365.648 239.072 363.956C237.92 362.804 237.524 361.112 237.452 359.024ZM240.26 352.22C240.188 350.96 240.116 349.664 240.116 348.944C240.116 348.44 240.224 348.332 240.764 348.224C243.032 347.756 245.696 347.396 247.784 347.396C249.188 347.396 250.736 347.54 251.996 347.756C252.5 347.828 252.608 347.864 252.608 348.296C252.68 349.196 252.68 350.204 252.644 351.176C252.644 351.788 252.464 351.932 251.96 351.824C250.7 351.572 249.044 351.392 247.496 351.392C245.336 351.392 242.6 351.752 240.26 352.22Z" fill="black"/>
</svg>
